Arimo-Regular.ufo
<glyph name="exclam" format="2">
  <advance width="569"/>
  <unicode hex="0021"/>
  <note>
exclam
</note>
  <outline>
    <contour>
      <point x="383" y="1409" type="line"/>
      <point x="187" y="1409" type="line"/>
      <point x="211" y="397" type="line"/>
      <point x="359" y="397" type="line"/>
    </contour>
    <contour>
      <point x="379" y="201" type="line"/>
      <point x="185" y="201" type="line"/>
      <point x="185" y="0" type="line"/>
      <point x="379" y="0" type="line"/>
    </contour>
  </outline>
</glyph>
<glyph name="quotedbl" format="2">
  <advance width="727"/>
  <unicode hex="0022"/>
  <note>
quotedbl
</note>
  <outline>
    <contour>
      <point x="640" y="1409" type="line"/>
      <point x="456" y="1409" type="line"/>
      <point x="476" y="966" type="line"/>
      <point x="618" y="966" type="line"/>
    </contour>
    <contour>
      <point x="271" y="1409" type="line"/>
      <point x="87" y="1409" type="line"/>
      <point x="108" y="966" type="line"/>
      <point x="249" y="966" type="line"/>
    </contour>
  </outline>
</glyph>
<glyph name="numbersign" format="2">
  <advance width="1139"/>
  <unicode hex="0023"/>
  <note>
numbersign
</note>
  <outline>
    <contour>
      <point x="320" y="408" type="line"/>
      <point x="683" y="408" type="line"/>
      <point x="597" y="0" type="line"/>
      <point x="707" y="0" type="line"/>
      <point x="795" y="408" type="line"/>
      <point x="1078" y="408" type="line"/>
      <point x="1078" y="516" type="line"/>
      <point x="818" y="516" type="line"/>
      <point x="896" y="885" type="line"/>
      <point x="1129" y="885" type="line"/>
      <point x="1129" y="993" type="line"/>
      <point x="918" y="993" type="line"/>
      <point x="1006" y="1401" type="line"/>
      <point x="896" y="1401" type="line"/>
      <point x="808" y="993" type="line"/>
      <point x="445" y="993" type="line"/>
      <point x="533" y="1401" type="line"/>
      <point x="423" y="1401" type="line"/>
      <point x="334" y="993" type="line"/>
      <point x="60" y="993" type="line"/>
      <point x="60" y="885" type="line"/>
      <point x="312" y="885" type="line"/>
      <point x="234" y="516" type="line"/>
      <point x="9" y="516" type="line"/>
      <point x="9" y="408" type="line"/>
      <point x="210" y="408" type="line"/>
      <point x="126" y="0" type="line"/>
      <point x="236" y="0" type="line"/>
    </contour>
    <contour>
      <point x="345" y="516" type="line"/>
      <point x="425" y="885" type="line"/>
      <point x="785" y="885" type="line"/>
      <point x="707" y="516" type="line"/>
    </contour>
  </outline>
</glyph>
<glyph name="dollar" format="2">
  <advance width="1139"/>
  <unicode hex="0024"/>
  <note>
dollar
</note>
  <outline>
    <contour>
      <point x="518" y="20" type="curve"/>
      <point x="518" y="-142" type="line"/>
      <point x="642" y="-142" type="line"/>
      <point x="642" y="20" type="line"/>
      <point x="938" y="35"/>
      <point x="1106" y="176"/>
      <point x="1106" y="396" type="curve" smooth="yes"/>
      <point x="1106" y="557"/>
      <point x="1049" y="649"/>
      <point x="897" y="720" type="curve" smooth="yes"/>
      <point x="846" y="743"/>
      <point x="761" y="769"/>
      <point x="642" y="797" type="curve"/>
      <point x="642" y="1242" type="line"/>
      <point x="798" y="1227"/>
      <point x="874" y="1157"/>
      <point x="901" y="1032" type="curve"/>
      <point x="1075" y="1065" type="line"/>
      <point x="1019" y="1278"/>
      <point x="891" y="1373"/>
      <point x="642" y="1385" type="curve"/>
      <point x="642" y="1516" type="line"/>
      <point x="518" y="1516" type="line"/>
      <point x="518" y="1385" type="line"/>
      <point x="242" y="1373"/>
      <point x="86" y="1253"/>
      <point x="86" y="1046" type="curve" smooth="yes"/>
      <point x="86" y="900"/>
      <point x="139" y="813"/>
      <point x="274" y="743" type="curve" smooth="yes"/>
      <point x="319" y="720"/>
      <point x="400" y="693"/>
      <point x="518" y="664" type="curve"/>
      <point x="518" y="168" type="line"/>
      <point x="329" y="180"/>
      <point x="225" y="257"/>
      <point x="192" y="416" type="curve"/>
      <point x="22" y="379" type="line"/>
      <point x="69" y="152"/>
      <point x="234" y="32"/>
    </contour>
    <contour>
      <point x="258" y="1048" type="curve" smooth="yes"/>
      <point x="258" y="1169"/>
      <point x="345" y="1235"/>
      <point x="518" y="1244" type="curve"/>
      <point x="518" y="823" type="line"/>
      <point x="370" y="860"/>
      <point x="316" y="893"/>
      <point x="283" y="948" type="curve" smooth="yes"/>
      <point x="266" y="975"/>
      <point x="258" y="1009"/>
    </contour>
    <contour>
      <point x="934" y="394" type="curve"/>
      <point x="934" y="258"/>
      <point x="830" y="179"/>
      <point x="642" y="167" type="curve"/>
      <point x="642" y="635" type="line"/>
      <point x="737" y="610"/>
      <point x="800" y="589"/>
      <point x="833" y="571" type="curve" smooth="yes"/>
      <point x="898" y="534"/>
      <point x="934" y="481"/>
    </contour>
  </outline>
</glyph>
<glyph name="percent" format="2">
  <advance width="1821"/>
  <unicode hex="0025"/>
  <note>
percent
</note>
  <outline>
    <contour>
      <point x="394" y="1421" type="curve"/>
      <point x="171" y="1421"/>
      <point x="73" y="1272"/>
      <point x="73" y="975" type="curve" smooth="yes"/>
      <point x="73" y="683"/>
      <point x="179" y="524"/>
      <point x="390" y="524" type="curve" smooth="yes"/>
      <point x="601" y="524"/>
      <point x="707" y="686"/>
      <point x="707" y="975" type="curve" smooth="yes"/>
      <point x="707" y="1271"/>
      <point x="606" y="1421"/>
    </contour>
    <contour>
      <point x="1451" y="1409" type="line"/>
      <point x="1294" y="1409" type="line"/>
      <point x="372" y="0" type="line"/>
      <point x="527" y="0" type="line"/>
    </contour>
    <contour>
      <point x="560" y="975" type="curve"/>
      <point x="560" y="748"/>
      <point x="508" y="637"/>
      <point x="392" y="637" type="curve" smooth="yes"/>
      <point x="269" y="637"/>
      <point x="220" y="744"/>
      <point x="220" y="975" type="curve" smooth="yes"/>
      <point x="220" y="1214"/>
      <point x="269" y="1313"/>
      <point x="394" y="1313" type="curve" smooth="yes"/>
      <point x="514" y="1313"/>
      <point x="560" y="1210"/>
    </contour>
    <contour>
      <point x="1748" y="434" type="curve"/>
      <point x="1748" y="730"/>
      <point x="1651" y="885"/>
      <point x="1432" y="885" type="curve" smooth="yes"/>
      <point x="1211" y="885"/>
      <point x="1113" y="738"/>
      <point x="1113" y="434" type="curve" smooth="yes"/>
      <point x="1113" y="139"/>
      <point x="1220" y="-12"/>
      <point x="1428" y="-12" type="curve" smooth="yes"/>
      <point x="1639" y="-12"/>
      <point x="1748" y="147"/>
    </contour>
    <contour>
      <point x="1600" y="434" type="curve"/>
      <point x="1600" y="209"/>
      <point x="1547" y="98"/>
      <point x="1430" y="98" type="curve" smooth="yes"/>
      <point x="1309" y="98"/>
      <point x="1260" y="206"/>
      <point x="1260" y="434" type="curve" smooth="yes"/>
      <point x="1260" y="677"/>
      <point x="1311" y="774"/>
      <point x="1432" y="774" type="curve" smooth="yes"/>
      <point x="1553" y="774"/>
      <point x="1600" y="673"/>
    </contour>
  </outline>
</glyph>
<glyph name="ampersand" format="2">
  <advance width="1366"/>
  <unicode hex="0026"/>
  <note>
ampersand
</note>
  <outline>
    <contour>
      <point x="72" y="371" type="curve" smooth="yes"/>
      <point x="72" y="126"/>
      <point x="236" y="-20"/>
      <point x="523" y="-20" type="curve" smooth="yes"/>
      <point x="663" y="-20"/>
      <point x="795" y="28"/>
      <point x="895" y="115" type="curve"/>
      <point x="976" y="30"/>
      <point x="1075" y="-12"/>
      <point x="1193" y="-12" type="curve" smooth="yes"/>
      <point x="1250" y="-12"/>
      <point x="1297" y="-5"/>
      <point x="1334" y="10" type="curve"/>
      <point x="1334" y="145" type="line"/>
      <point x="1303" y="134"/>
      <point x="1264" y="129"/>
      <point x="1217" y="129" type="curve" smooth="yes"/>
      <point x="1142" y="129"/>
      <point x="1073" y="162"/>
      <point x="1009" y="227" type="curve"/>
      <point x="1108" y="374"/>
      <point x="1179" y="530"/>
      <point x="1221" y="696" type="curve"/>
      <point x="1076" y="739" type="line"/>
      <point x="1037" y="576"/>
      <point x="980" y="440"/>
      <point x="905" y="329" type="curve"/>
      <point x="784" y="467"/>
      <point x="686" y="604"/>
      <point x="612" y="741" type="curve"/>
      <point x="733" y="789"/>
      <point x="822" y="836"/>
      <point x="887" y="886" type="curve" smooth="yes"/>
      <point x="982" y="960"/>
      <point x="1021" y="1039"/>
      <point x="1021" y="1133" type="curve" smooth="yes"/>
      <point x="1021" y="1309"/>
      <point x="886" y="1417"/>
      <point x="685" y="1417" type="curve" smooth="yes"/>
      <point x="461" y="1417"/>
      <point x="334" y="1302"/>
      <point x="334" y="1102" type="curve" smooth="yes"/>
      <point x="334" y="1009"/>
      <point x="371" y="883"/>
      <point x="415" y="800" type="curve"/>
      <point x="186" y="699"/>
      <point x="72" y="556"/>
    </contour>
    <contour>
      <point x="869" y="1133" type="curve"/>
      <point x="869" y="1061"/>
      <point x="827" y="1002"/>
      <point x="745" y="950" type="curve" smooth="yes"/>
      <point x="704" y="924"/>
      <point x="639" y="893"/>
      <point x="552" y="858" type="curve"/>
      <point x="509" y="945"/>
      <point x="487" y="1026"/>
      <point x="487" y="1102" type="curve" smooth="yes"/>
      <point x="487" y="1223"/>
      <point x="555" y="1296"/>
      <point x="683" y="1296" type="curve" smooth="yes"/>
      <point x="798" y="1296"/>
      <point x="869" y="1229"/>
    </contour>
    <contour>
      <point x="795" y="217" type="curve"/>
      <point x="724" y="149"/>
      <point x="624" y="111"/>
      <point x="529" y="111" type="curve" smooth="yes"/>
      <point x="350" y="111"/>
      <point x="240" y="212"/>
      <point x="240" y="373" type="curve" smooth="yes"/>
      <point x="240" y="507"/>
      <point x="319" y="607"/>
      <point x="476" y="674" type="curve"/>
      <point x="557" y="525"/>
      <point x="663" y="373"/>
    </contour>
  </outline>
</glyph>
<glyph name="quotesingle" format="2">
  <advance width="391"/>
  <unicode hex="0027"/>
  <note>
quotesingle
</note>
  <outline>
    <contour>
      <point x="288" y="1409" type="line"/>
      <point x="104" y="1409" type="line"/>
      <point x="125" y="966" type="line"/>
      <point x="266" y="966" type="line"/>
    </contour>
  </outline>
</glyph>
<glyph name="parenleft" format="2">
  <advance width="682"/>
  <unicode hex="0028"/>
  <note>
parenleft
</note>
  <outline>
    <contour>
      <point x="496" y="-424" type="curve"/>
      <point x="670" y="-424" type="line"/>
      <point x="418" y="-143"/>
      <point x="308" y="161"/>
      <point x="308" y="530" type="curve" smooth="yes"/>
      <point x="308" y="901"/>
      <point x="421" y="1207"/>
      <point x="670" y="1484" type="curve"/>
      <point x="496" y="1484" type="line"/>
      <point x="245" y="1213"/>
      <point x="127" y="917"/>
      <point x="127" y="528" type="curve" smooth="yes"/>
      <point x="127" y="145"/>
      <point x="244" y="-152"/>
    </contour>
  </outline>
</glyph>
<glyph name="parenright" format="2">
  <advance width="682"/>
  <unicode hex="0029"/>
  <note>
parenright
</note>
  <outline>
    <contour>
      <point x="12" y="-424" type="curve"/>
      <point x="186" y="-424" type="line"/>
      <point x="437" y="-153"/>
      <point x="555" y="143"/>
      <point x="555" y="532" type="curve" smooth="yes"/>
      <point x="555" y="915"/>
      <point x="438" y="1212"/>
      <point x="186" y="1484" type="curve"/>
      <point x="12" y="1484" type="line"/>
      <point x="261" y="1205"/>
      <point x="374" y="902"/>
      <point x="374" y="530" type="curve" smooth="yes"/>
      <point x="374" y="158"/>
      <point x="263" y="-144"/>
    </contour>
  </outline>
</glyph>
<glyph name="asterisk" format="2">
  <advance width="797"/>
  <unicode hex="002A"/>
  <note>
asterisk
</note>
  <outline>
    <contour>
      <point x="668" y="762" type="line"/>
      <point x="483" y="1012" type="line"/>
      <point x="765" y="1085" type="line"/>
      <point x="720" y="1217" type="line"/>
      <point x="456" y="1114" type="line"/>
      <point x="469" y="1409" type="line"/>
      <point x="333" y="1409" type="line"/>
      <point x="345" y="1112" type="line"/>
      <point x="78" y="1219" type="line"/>
      <point x="33" y="1085" type="line"/>
      <point x="313" y="1012" type="line"/>
      <point x="124" y="764" type="line"/>
      <point x="243" y="692" type="line"/>
      <point x="399" y="948" type="line"/>
      <point x="549" y="690" type="line"/>
    </contour>
  </outline>
</glyph>
<glyph name="plus" format="2">
  <advance width="1196"/>
  <unicode hex="002B"/>
  <note>
plus
</note>
  <outline>
    <contour>
      <point x="671" y="608" type="line"/>
      <point x="1095" y="608" type="line"/>
      <point x="1095" y="754" type="line"/>
      <point x="671" y="754" type="line"/>
      <point x="671" y="1182" type="line"/>
      <point x="524" y="1182" type="line"/>
      <point x="524" y="754" type="line"/>
      <point x="100" y="754" type="line"/>
      <point x="100" y="608" type="line"/>
      <point x="524" y="608" type="line"/>
      <point x="524" y="180" type="line"/>
      <point x="671" y="180" type="line"/>
    </contour>
  </outline>
</glyph>
<glyph name="comma" format="2">
  <advance width="569"/>
  <unicode hex="002C"/>
  <note>
comma
</note>
  <outline>
    <contour>
      <point x="385" y="51" type="curve" smooth="yes"/>
      <point x="385" y="219" type="line"/>
      <point x="190" y="219" type="line"/>
      <point x="190" y="0" type="line"/>
      <point x="278" y="0" type="line"/>
      <point x="278" y="-84"/>
      <point x="247" y="-171"/>
      <point x="184" y="-262" type="curve"/>
      <point x="307" y="-262" type="line"/>
      <point x="360" y="-175"/>
      <point x="385" y="-90"/>
    </contour>
  </outline>
</glyph>
<glyph name="hyphen" format="2">
  <advance width="682"/>
  <unicode hex="002D"/>
  <unicode hex="00AD"/>
  <note>
hyphen
</note>
  <outline>
    <contour>
      <point x="591" y="624" type="line"/>
      <point x="91" y="624" type="line"/>
      <point x="91" y="464" type="line"/>
      <point x="591" y="464" type="line"/>
    </contour>
  </outline>
</glyph>
<glyph name="period" format="2">
  <advance width="569"/>
  <unicode hex="002E"/>
  <note>
period
</note>
  <outline>
    <contour>
      <point x="382" y="219" type="line"/>
      <point x="187" y="219" type="line"/>
      <point x="187" y="0" type="line"/>
      <point x="382" y="0" type="line"/>
    </contour>
  </outline>
</glyph>
<glyph name="slash" format="2">
  <advance width="569"/>
  <unicode hex="002F"/>
  <note>
slash
</note>
  <outline>
    <contour>
      <point x="569" y="1484" type="line"/>
      <point x="411" y="1484" type="line"/>
      <point x="0" y="-20" type="line"/>
      <point x="162" y="-20" type="line"/>
    </contour>
  </outline>
</glyph>
<glyph name="zero" format="2">
  <advance width="1139"/>
  <unicode hex="0030"/>
  <note>
zero
</note>
  <outline>
    <contour>
      <point x="1059" y="705" type="curve"/>
      <point x="1059" y="1184"/>
      <point x="905" y="1430"/>
      <point x="573" y="1430" type="curve" smooth="yes"/>
      <point x="232" y="1430"/>
      <point x="80" y="1189"/>
      <point x="80" y="705" type="curve" smooth="yes"/>
      <point x="80" y="232"/>
      <point x="243" y="-20"/>
      <point x="567" y="-20" type="curve" smooth="yes"/>
      <point x="891" y="-20"/>
      <point x="1059" y="234"/>
    </contour>
    <contour>
      <point x="876" y="705" type="curve"/>
      <point x="876" y="313"/>
      <point x="781" y="127"/>
      <point x="569" y="127" type="curve" smooth="yes"/>
      <point x="356" y="127"/>
      <point x="262" y="305"/>
      <point x="262" y="705" type="curve" smooth="yes"/>
      <point x="262" y="1117"/>
      <point x="352" y="1284"/>
      <point x="573" y="1284" type="curve" smooth="yes"/>
      <point x="789" y="1284"/>
      <point x="876" y="1112"/>
    </contour>
  </outline>
</glyph>
<glyph name="one" format="2">
  <advance width="1139"/>
  <unicode hex="0031"/>
  <note>
one
</note>
  <outline>
    <contour>
      <point x="1039" y="153" type="line"/>
      <point x="696" y="153" type="line"/>
      <point x="696" y="1409" type="line"/>
      <point x="530" y="1409" type="line"/>
      <point x="197" y="1180" type="line"/>
      <point x="197" y="1010" type="line"/>
      <point x="515" y="1237" type="line"/>
      <point x="515" y="153" type="line"/>
      <point x="156" y="153" type="line"/>
      <point x="156" y="0" type="line"/>
      <point x="1039" y="0" type="line"/>
    </contour>
  </outline>
</glyph>
<glyph name="two" format="2">
  <advance width="1139"/>
  <unicode hex="0032"/>
  <note>
two
</note>
  <outline>
    <contour>
      <point x="1036" y="153" type="line"/>
      <point x="301" y="153" type="line"/>
      <point x="341" y="246"/>
      <point x="429" y="343"/>
      <point x="582" y="468" type="curve" smooth="yes"/>
      <point x="721" y="581"/>
      <point x="816" y="665"/>
      <point x="865" y="719" type="curve" smooth="yes"/>
      <point x="964" y="827"/>
      <point x="1014" y="935"/>
      <point x="1014" y="1044" type="curve" smooth="yes"/>
      <point x="1014" y="1291"/>
      <point x="856" y="1430"/>
      <point x="572" y="1430" type="curve" smooth="yes"/>
      <point x="313" y="1430"/>
      <point x="138" y="1286"/>
      <point x="111" y="1061" type="curve"/>
      <point x="295" y="1044" type="line"/>
      <point x="312" y="1195"/>
      <point x="419" y="1282"/>
      <point x="572" y="1282" type="curve" smooth="yes"/>
      <point x="733" y="1282"/>
      <point x="829" y="1193"/>
      <point x="829" y="1038" type="curve" smooth="yes"/>
      <point x="829" y="923"/>
      <point x="771" y="837"/>
      <point x="686" y="754" type="curve" smooth="yes"/>
      <point x="643" y="713"/>
      <point x="596" y="671"/>
      <point x="543" y="630" type="curve" smooth="yes"/>
      <point x="383" y="506"/>
      <point x="205" y="360"/>
      <point x="103" y="127" type="curve"/>
      <point x="103" y="0" type="line"/>
      <point x="1036" y="0" type="line"/>
    </contour>
  </outline>
</glyph>
<glyph name="three" format="2">
  <advance width="1139"/>
  <unicode hex="0033"/>
  <note>
three
</note>
  <outline>
    <contour>
      <point x="1049" y="389" type="curve"/>
      <point x="1049" y="569"/>
      <point x="926" y="696"/>
      <point x="715" y="719" type="curve"/>
      <point x="715" y="723" type="line"/>
      <point x="907" y="763"/>
      <point x="1010" y="877"/>
      <point x="1010" y="1057" type="curve" smooth="yes"/>
      <point x="1010" y="1292"/>
      <point x="846" y="1430"/>
      <point x="563" y="1430" type="curve" smooth="yes"/>
      <point x="304" y="1430"/>
      <point x="129" y="1294"/>
      <point x="102" y="1063" type="curve"/>
      <point x="283" y="1049" type="line"/>
      <point x="299" y="1197"/>
      <point x="402" y="1282"/>
      <point x="561" y="1282" type="curve" smooth="yes"/>
      <point x="736" y="1282"/>
      <point x="825" y="1189"/>
      <point x="825" y="1038" type="curve" smooth="yes"/>
      <point x="825" y="886"/>
      <point x="711" y="795"/>
      <point x="514" y="795" type="curve" smooth="yes"/>
      <point x="416" y="795" type="line"/>
      <point x="416" y="639" type="line"/>
      <point x="518" y="639" type="line" smooth="yes"/>
      <point x="741" y="639"/>
      <point x="862" y="548"/>
      <point x="862" y="395" type="curve" smooth="yes"/>
      <point x="862" y="219"/>
      <point x="752" y="129"/>
      <point x="571" y="129" type="curve" smooth="yes"/>
      <point x="390" y="129"/>
      <point x="288" y="212"/>
      <point x="264" y="379" type="curve"/>
      <point x="78" y="362" type="line"/>
      <point x="110" y="110"/>
      <point x="286" y="-20"/>
      <point x="571" y="-20" type="curve" smooth="yes"/>
      <point x="878" y="-20"/>
      <point x="1049" y="129"/>
    </contour>
  </outline>
</glyph>
<glyph name="four" format="2">
  <advance width="1139"/>
  <unicode hex="0034"/>
  <note>
four
</note>
  <outline>
    <contour>
      <point x="881" y="319" type="line"/>
      <point x="1079" y="319" type="line"/>
      <point x="1079" y="461" type="line"/>
      <point x="881" y="461" type="line"/>
      <point x="881" y="1409" type="line"/>
      <point x="692" y="1409" type="line"/>
      <point x="47" y="459" type="line"/>
      <point x="47" y="319" type="line"/>
      <point x="711" y="319" type="line"/>
      <point x="711" y="0" type="line"/>
      <point x="881" y="0" type="line"/>
    </contour>
    <contour>
      <point x="213" y="461" type="line"/>
      <point x="644" y="1087" type="line" smooth="yes"/>
      <point x="662" y="1113"/>
      <point x="684" y="1147"/>
      <point x="715" y="1206" type="curve"/>
      <point x="711" y="1145"/>
      <point x="711" y="1084"/>
      <point x="711" y="1023" type="curve"/>
      <point x="711" y="461" type="line"/>
    </contour>
  </outline>
</glyph>
<glyph name="five" format="2">
  <advance width="1139"/>
  <unicode hex="0035"/>
  <note>
five
</note>
  <outline>
    <contour>
      <point x="1053" y="459" type="curve"/>
      <point x="1053" y="720"/>
      <point x="875" y="899"/>
      <point x="598" y="899" type="curve" smooth="yes"/>
      <point x="482" y="899"/>
      <point x="385" y="869"/>
      <point x="307" y="809" type="curve"/>
      <point x="334" y="1256" type="line"/>
      <point x="971" y="1256" type="line"/>
      <point x="971" y="1409" type="line"/>
      <point x="170" y="1409" type="line"/>
      <point x="123" y="651" type="line"/>
      <point x="299" y="651" type="line"/>
      <point x="383" y="724"/>
      <point x="464" y="752"/>
      <point x="561" y="752" type="curve" smooth="yes"/>
      <point x="748" y="752"/>
      <point x="866" y="632"/>
      <point x="866" y="455" type="curve" smooth="yes"/>
      <point x="866" y="251"/>
      <point x="750" y="127"/>
      <point x="557" y="127" type="curve" smooth="yes"/>
      <point x="400" y="127"/>
      <point x="302" y="197"/>
      <point x="264" y="336" type="curve"/>
      <point x="82" y="315" type="line"/>
      <point x="125" y="98"/>
      <point x="290" y="-20"/>
      <point x="553" y="-20" type="curve" smooth="yes"/>
      <point x="866" y="-20"/>
      <point x="1053" y="162"/>
    </contour>
  </outline>
</glyph>
<glyph name="six" format="2">
  <advance width="1139"/>
  <unicode hex="0036"/>
  <note>
six
</note>
  <outline>
    <contour>
      <point x="1049" y="461" type="curve"/>
      <point x="1049" y="736"/>
      <point x="885" y="911"/>
      <point x="625" y="911" type="curve" smooth="yes"/>
      <point x="472" y="911"/>
      <point x="348" y="846"/>
      <point x="283" y="725" type="curve"/>
      <point x="283" y="1088"/>
      <point x="401" y="1284"/>
      <point x="606" y="1284" type="curve" smooth="yes"/>
      <point x="725" y="1284"/>
      <point x="803" y="1227"/>
      <point x="838" y="1112" type="curve"/>
      <point x="1010" y="1143" type="line"/>
      <point x="955" y="1334"/>
      <point x="821" y="1430"/>
      <point x="608" y="1430" type="curve" smooth="yes"/>
      <point x="285" y="1430"/>
      <point x="104" y="1160"/>
      <point x="104" y="672" type="curve" smooth="yes"/>
      <point x="104" y="221"/>
      <point x="277" y="-20"/>
      <point x="594" y="-20" type="curve" smooth="yes"/>
      <point x="878" y="-20"/>
      <point x="1049" y="164"/>
    </contour>
    <contour>
      <point x="866" y="453" type="curve"/>
      <point x="866" y="249"/>
      <point x="761" y="125"/>
      <point x="588" y="125" type="curve" smooth="yes"/>
      <point x="420" y="125"/>
      <point x="301" y="279"/>
      <point x="301" y="496" type="curve" smooth="yes"/>
      <point x="301" y="668"/>
      <point x="414" y="772"/>
      <point x="582" y="772" type="curve" smooth="yes"/>
      <point x="761" y="772"/>
      <point x="866" y="657"/>
    </contour>
  </outline>
</glyph>
<glyph name="seven" format="2">
  <advance width="1139"/>
  <unicode hex="0037"/>
  <note>
seven
</note>
  <outline>
    <contour>
      <point x="1036" y="1263" type="curve"/>
      <point x="1036" y="1409" type="line"/>
      <point x="105" y="1409" type="line"/>
      <point x="105" y="1256" type="line"/>
      <point x="862" y="1256" type="line"/>
      <point x="689" y="1005"/>
      <point x="567" y="787"/>
      <point x="487" y="588" type="curve" smooth="yes"/>
      <point x="402" y="376"/>
      <point x="365" y="186"/>
      <point x="365" y="0" type="curve"/>
      <point x="553" y="0" type="line"/>
      <point x="553" y="260"/>
      <point x="612" y="497"/>
      <point x="731" y="746" type="curve" smooth="yes"/>
      <point x="790" y="871"/>
      <point x="892" y="1043"/>
    </contour>
  </outline>
</glyph>
<glyph name="eight" format="2">
  <advance width="1139"/>
  <unicode hex="0038"/>
  <note>
eight
</note>
  <outline>
    <contour>
      <point x="1050" y="393" type="curve"/>
      <point x="1050" y="578"/>
      <point x="945" y="710"/>
      <point x="765" y="739" type="curve"/>
      <point x="765" y="743" type="line"/>
      <point x="920" y="774"/>
      <point x="1015" y="906"/>
      <point x="1015" y="1067" type="curve" smooth="yes"/>
      <point x="1015" y="1290"/>
      <point x="843" y="1430"/>
      <point x="566" y="1430" type="curve" smooth="yes"/>
      <point x="295" y="1430"/>
      <point x="122" y="1284"/>
      <point x="122" y="1069" type="curve" smooth="yes"/>
      <point x="122" y="908"/>
      <point x="217" y="777"/>
      <point x="370" y="741" type="curve"/>
      <point x="370" y="737" type="line"/>
      <point x="206" y="710"/>
      <point x="89" y="575"/>
      <point x="89" y="391" type="curve" smooth="yes"/>
      <point x="89" y="128"/>
      <point x="269" y="-20"/>
      <point x="570" y="-20" type="curve" smooth="yes"/>
      <point x="879" y="-20"/>
      <point x="1050" y="133"/>
    </contour>
    <contour>
      <point x="828" y="1057" type="curve"/>
      <point x="828" y="882"/>
      <point x="737" y="809"/>
      <point x="568" y="809" type="curve" smooth="yes"/>
      <point x="401" y="809"/>
      <point x="306" y="896"/>
      <point x="306" y="1057" type="curve" smooth="yes"/>
      <point x="306" y="1216"/>
      <point x="397" y="1296"/>
      <point x="566" y="1296" type="curve" smooth="yes"/>
      <point x="741" y="1296"/>
      <point x="828" y="1216"/>
    </contour>
    <contour>
      <point x="863" y="410" type="curve"/>
      <point x="863" y="205"/>
      <point x="768" y="115"/>
      <point x="572" y="115" type="curve" smooth="yes"/>
      <point x="374" y="115"/>
      <point x="275" y="212"/>
      <point x="275" y="406" type="curve" smooth="yes"/>
      <point x="275" y="573"/>
      <point x="383" y="674"/>
      <point x="566" y="674" type="curve" smooth="yes"/>
      <point x="754" y="674"/>
      <point x="863" y="585"/>
    </contour>
  </outline>
</glyph>
<glyph name="nine" format="2">
  <advance width="1139"/>
  <unicode hex="0039"/>
  <note>
nine
</note>
  <outline>
    <contour>
      <point x="1042" y="733" type="curve"/>
      <point x="1042" y="1198"/>
      <point x="878" y="1430"/>
      <point x="565" y="1430" type="curve" smooth="yes"/>
      <point x="270" y="1430"/>
      <point x="96" y="1251"/>
      <point x="96" y="956" type="curve" smooth="yes"/>
      <point x="96" y="669"/>
      <point x="261" y="481"/>
      <point x="514" y="481" type="curve" smooth="yes"/>
      <point x="669" y="481"/>
      <point x="811" y="560"/>
      <point x="864" y="680" type="curve"/>
      <point x="859" y="324"/>
      <point x="742" y="125"/>
      <point x="535" y="125" type="curve" smooth="yes"/>
      <point x="412" y="125"/>
      <point x="333" y="184"/>
      <point x="297" y="301" type="curve"/>
      <point x="125" y="274" type="line"/>
      <point x="182" y="67"/>
      <point x="312" y="-20"/>
      <point x="532" y="-20" type="curve" smooth="yes"/>
      <point x="859" y="-20"/>
      <point x="1042" y="249"/>
    </contour>
    <contour>
      <point x="846" y="907" type="curve"/>
      <point x="846" y="740"/>
      <point x="712" y="623"/>
      <point x="557" y="623" type="curve" smooth="yes"/>
      <point x="386" y="623"/>
      <point x="279" y="751"/>
      <point x="279" y="956" type="curve" smooth="yes"/>
      <point x="279" y="1157"/>
      <point x="386" y="1284"/>
      <point x="559" y="1284" type="curve" smooth="yes"/>
      <point x="734" y="1284"/>
      <point x="846" y="1134"/>
    </contour>
  </outline>
</glyph>
<glyph name="colon" format="2">
  <advance width="569"/>
  <unicode hex="003A"/>
  <note>
colon
</note>
  <outline>
    <contour>
      <point x="382" y="1082" type="line"/>
      <point x="187" y="1082" type="line"/>
      <point x="187" y="875" type="line"/>
      <point x="382" y="875" type="line"/>
    </contour>
    <contour>
      <point x="382" y="207" type="line"/>
      <point x="187" y="207" type="line"/>
      <point x="187" y="0" type="line"/>
      <point x="382" y="0" type="line"/>
    </contour>
  </outline>
</glyph>
<glyph name="semicolon" format="2">
  <advance width="569"/>
  <unicode hex="003B"/>
  <unicode hex="037E"/>
  <note>
semicolon
</note>
  <outline>
    <contour>
      <point x="385" y="1082" type="line"/>
      <point x="190" y="1082" type="line"/>
      <point x="190" y="875" type="line"/>
      <point x="385" y="875" type="line"/>
    </contour>
    <contour>
      <point x="385" y="51" type="curve" smooth="yes"/>
      <point x="385" y="207" type="line"/>
      <point x="190" y="207" type="line"/>
      <point x="190" y="0" type="line"/>
      <point x="278" y="0" type="line"/>
      <point x="278" y="-84"/>
      <point x="247" y="-171"/>
      <point x="184" y="-262" type="curve"/>
      <point x="307" y="-262" type="line"/>
      <point x="360" y="-175"/>
      <point x="385" y="-90"/>
    </contour>
  </outline>
</glyph>
<glyph name="less" format="2">
  <advance width="1196"/>
  <unicode hex="003C"/>
  <note>
less
</note>
  <outline>
    <contour>
      <point x="1096" y="307" type="line"/>
      <point x="238" y="674" type="line"/>
      <point x="1096" y="1040" type="line"/>
      <point x="1096" y="1194" type="line"/>
      <point x="101" y="776" type="line"/>
      <point x="101" y="571" type="line"/>
      <point x="1096" y="154" type="line"/>
    </contour>
  </outline>
</glyph>
<glyph name="equal" format="2">
  <advance width="1196"/>
  <unicode hex="003D"/>
  <note>
equal
</note>
  <outline>
    <contour>
      <point x="1095" y="1004" type="line"/>
      <point x="100" y="1004" type="line"/>
      <point x="100" y="856" type="line"/>
      <point x="1095" y="856" type="line"/>
    </contour>
    <contour>
      <point x="1095" y="492" type="line"/>
      <point x="100" y="492" type="line"/>
      <point x="100" y="344" type="line"/>
      <point x="1095" y="344" type="line"/>
    </contour>
  </outline>
</glyph>
<glyph name="greater" format="2">
  <advance width="1196"/>
  <unicode hex="003E"/>
  <note>
greater
</note>
  <outline>
    <contour>
      <point x="1096" y="571" type="line"/>
      <point x="1096" y="776" type="line"/>
      <point x="101" y="1194" type="line"/>
      <point x="101" y="1040" type="line"/>
      <point x="959" y="674" type="line"/>
      <point x="101" y="307" type="line"/>
      <point x="101" y="154" type="line"/>
    </contour>
  </outline>
</glyph>
<glyph name="question" format="2">
  <advance width="1139"/>
  <unicode hex="003F"/>
  <note>
question
</note>
  <outline>
    <contour>
      <point x="1063" y="1032" type="curve"/>
      <point x="1063" y="1281"/>
      <point x="881" y="1430"/>
      <point x="584" y="1430" type="curve" smooth="yes"/>
      <point x="299" y="1430"/>
      <point x="119" y="1284"/>
      <point x="84" y="1020" type="curve"/>
      <point x="268" y="1008" type="line"/>
      <point x="287" y="1171"/>
      <point x="399" y="1270"/>
      <point x="586" y="1270" type="curve" smooth="yes"/>
      <point x="773" y="1270"/>
      <point x="881" y="1176"/>
      <point x="881" y="1024" type="curve" smooth="yes"/>
      <point x="881" y="870"/>
      <point x="781" y="803"/>
      <point x="667" y="722" type="curve" smooth="yes"/>
      <point x="560" y="646"/>
      <point x="451" y="561"/>
      <point x="446" y="377" type="curve"/>
      <point x="621" y="377" type="line"/>
      <point x="622" y="468"/>
      <point x="668" y="543"/>
      <point x="764" y="612" type="curve" smooth="yes"/>
      <point x="844" y="671" type="line" smooth="yes"/>
      <point x="1007" y="791"/>
      <point x="1063" y="881"/>
    </contour>
    <contour>
      <point x="633" y="201" type="line"/>
      <point x="438" y="201" type="line"/>
      <point x="438" y="0" type="line"/>
      <point x="633" y="0" type="line"/>
    </contour>
  </outline>
</glyph>
<glyph name="at" format="2">
  <advance width="2079"/>
  <unicode hex="0040"/>
  <note>
at
</note>
  <outline>
    <contour>
      <point x="1902" y="755" type="curve"/>
      <point x="1902" y="1046"/>
      <point x="1775" y="1273"/>
      <point x="1542" y="1394" type="curve" smooth="yes"/>
      <point x="1425" y="1454"/>
      <point x="1287" y="1484"/>
      <point x="1126" y="1484" type="curve" smooth="yes"/>
      <point x="761" y="1484"/>
      <point x="452" y="1305"/>
      <point x="286" y="1000" type="curve" smooth="yes"/>
      <point x="203" y="847"/>
      <point x="161" y="678"/>
      <point x="161" y="491" type="curve" smooth="yes"/>
      <point x="161" y="184"/>
      <point x="292" y="-60"/>
      <point x="533" y="-187" type="curve" smooth="yes"/>
      <point x="653" y="-251"/>
      <point x="793" y="-283"/>
      <point x="954" y="-283" type="curve" smooth="yes"/>
      <point x="1186" y="-283"/>
      <point x="1419" y="-221"/>
      <point x="1612" y="-105" type="curve"/>
      <point x="1557" y="7" type="line"/>
      <point x="1344" y="-109"/>
      <point x="1147" y="-155"/>
      <point x="954" y="-155" type="curve" smooth="yes"/>
      <point x="690" y="-155"/>
      <point x="485" y="-46"/>
      <point x="381" y="151" type="curve" smooth="yes"/>
      <point x="328" y="249"/>
      <point x="302" y="362"/>
      <point x="302" y="491" type="curve" smooth="yes"/>
      <point x="302" y="824"/>
      <point x="452" y="1108"/>
      <point x="700" y="1251" type="curve" smooth="yes"/>
      <point x="824" y="1322"/>
      <point x="967" y="1358"/>
      <point x="1128" y="1358" type="curve" smooth="yes"/>
      <point x="1387" y="1358"/>
      <point x="1586" y="1255"/>
      <point x="1689" y="1071" type="curve" smooth="yes"/>
      <point x="1740" y="978"/>
      <point x="1766" y="872"/>
      <point x="1766" y="753" type="curve" smooth="yes"/>
      <point x="1766" y="557"/>
      <point x="1711" y="387"/>
      <point x="1621" y="295" type="curve" smooth="yes"/>
      <point x="1576" y="249"/>
      <point x="1526" y="226"/>
      <point x="1473" y="226" type="curve" smooth="yes"/>
      <point x="1419" y="226"/>
      <point x="1392" y="257"/>
      <point x="1392" y="320" type="curve" smooth="yes"/>
      <point x="1392" y="379"/>
      <point x="1404" y="464"/>
      <point x="1429" y="573" type="curve" smooth="yes"/>
      <point x="1545" y="1079" type="line"/>
      <point x="1389" y="1079" type="line"/>
      <point x="1350" y="919" type="line"/>
      <point x="1344" y="919" type="line"/>
      <point x="1289" y="1040"/>
      <point x="1189" y="1101"/>
      <point x="1043" y="1101" type="curve" smooth="yes"/>
      <point x="855" y="1101"/>
      <point x="692" y="982"/>
      <point x="606" y="794" type="curve" smooth="yes"/>
      <point x="563" y="700"/>
      <point x="541" y="598"/>
      <point x="541" y="489" type="curve" smooth="yes"/>
      <point x="541" y="248"/>
      <point x="662" y="104"/>
      <point x="871" y="104" type="curve" smooth="yes"/>
      <point x="1022" y="104"/>
      <point x="1157" y="186"/>
      <point x="1245" y="350" type="curve"/>
      <point x="1251" y="350" type="line"/>
      <point x="1250" y="327"/>
      <point x="1249" y="303"/>
      <point x="1248" y="280" type="curve" smooth="yes"/>
      <point x="1248" y="163"/>
      <point x="1323" y="104"/>
      <point x="1455" y="104" type="curve" smooth="yes"/>
      <point x="1624" y="104"/>
      <point x="1768" y="218"/>
      <point x="1845" y="419" type="curve" smooth="yes"/>
      <point x="1883" y="519"/>
      <point x="1902" y="631"/>
    </contour>
    <contour>
      <point x="1296" y="747" type="curve"/>
      <point x="1296" y="667"/>
      <point x="1253" y="497"/>
      <point x="1176" y="394" type="curve" smooth="yes"/>
      <point x="1103" y="297"/>
      <point x="1004" y="235"/>
      <point x="900" y="235" type="curve" smooth="yes"/>
      <point x="768" y="235"/>
      <point x="706" y="331"/>
      <point x="706" y="491" type="curve" smooth="yes"/>
      <point x="706" y="666"/>
      <point x="770" y="826"/>
      <point x="874" y="910" type="curve" smooth="yes"/>
      <point x="927" y="953"/>
      <point x="987" y="974"/>
      <point x="1054" y="974" type="curve" smooth="yes"/>
      <point x="1201" y="974"/>
      <point x="1296" y="883"/>
    </contour>
  </outline>
</glyph>
<glyph name="A" format="2">
  <advance width="1366"/>
  <unicode hex="0041"/>
  <note>
A
</note>
  <outline>
    <contour>
      <point x="364" y="412" type="line"/>
      <point x="1006" y="412" type="line"/>
      <point x="1167" y="0" type="line"/>
      <point x="1362" y="0" type="line"/>
      <point x="796" y="1409" type="line"/>
      <point x="579" y="1409" type="line"/>
      <point x="4" y="0" type="line"/>
      <point x="202" y="0" type="line"/>
    </contour>
    <contour>
      <point x="685" y="1265" type="curve"/>
      <point x="715" y="1164"/>
      <point x="749" y="1072"/>
      <point x="768" y="1026" type="curve" smooth="yes"/>
      <point x="949" y="561" type="line"/>
      <point x="422" y="561" type="line"/>
      <point x="601" y="1020" type="line" smooth="yes"/>
      <point x="628" y="1089"/>
      <point x="662" y="1190"/>
    </contour>
  </outline>
</glyph>
<glyph name="C" format="2">
  <advance width="1479"/>
  <unicode hex="0043"/>
  <note>
C
</note>
  <outline>
    <contour>
      <point x="800" y="137" type="curve" smooth="yes"/>
      <point x="492" y="137"/>
      <point x="298" y="366"/>
      <point x="298" y="711" type="curve" smooth="yes"/>
      <point x="298" y="1060"/>
      <point x="480" y="1274"/>
      <point x="792" y="1274" type="curve" smooth="yes"/>
      <point x="991" y="1274"/>
      <point x="1142" y="1185"/>
      <point x="1207" y="1021" type="curve"/>
      <point x="1388" y="1081" type="line"/>
      <point x="1293" y="1312"/>
      <point x="1090" y="1430"/>
      <point x="790" y="1430" type="curve" smooth="yes"/>
      <point x="361" y="1430"/>
      <point x="104" y="1160"/>
      <point x="104" y="711" type="curve" smooth="yes"/>
      <point x="104" y="262"/>
      <point x="363" y="-20"/>
      <point x="791" y="-20" type="curve" smooth="yes"/>
      <point x="1068" y="-20"/>
      <point x="1285" y="109"/>
      <point x="1401" y="352" type="curve"/>
      <point x="1245" y="430" type="line"/>
      <point x="1146" y="235"/>
      <point x="997" y="137"/>
    </contour>
  </outline>
</glyph>
<glyph name="D" format="2">
  <advance width="1479"/>
  <unicode hex="0044"/>
  <note>
D
</note>
  <outline>
    <contour>
      <point x="1381" y="719" type="curve" smooth="yes"/>
      <point x="1381" y="1160"/>
      <point x="1111" y="1409"/>
      <point x="634" y="1409" type="curve" smooth="yes"/>
      <point x="168" y="1409" type="line"/>
      <point x="168" y="0" type="line"/>
      <point x="695" y="0" type="line" smooth="yes"/>
      <point x="1103" y="0"/>
      <point x="1381" y="274"/>
    </contour>
    <contour>
      <point x="1189" y="719" type="curve" smooth="yes"/>
      <point x="1189" y="370"/>
      <point x="986" y="153"/>
      <point x="673" y="153" type="curve" smooth="yes"/>
      <point x="359" y="153" type="line"/>
      <point x="359" y="1256" type="line"/>
      <point x="630" y="1256" type="line" smooth="yes"/>
      <point x="993" y="1256"/>
      <point x="1189" y="1068"/>
    </contour>
  </outline>
</glyph>
<glyph name="E" format="2">
  <advance width="1366"/>
  <unicode hex="0045"/>
  <note>
E
</note>
  <outline>
    <contour>
      <point x="1278" y="156" type="line"/>
      <point x="359" y="156" type="line"/>
      <point x="359" y="647" type="line"/>
      <point x="1177" y="647" type="line"/>
      <point x="1177" y="801" type="line"/>
      <point x="359" y="801" type="line"/>
      <point x="359" y="1253" type="line"/>
      <point x="1237" y="1253" type="line"/>
      <point x="1237" y="1409" type="line"/>
      <point x="168" y="1409" type="line"/>
      <point x="168" y="0" type="line"/>
      <point x="1278" y="0" type="line"/>
    </contour>
  </outline>
</glyph>
<glyph name="F" format="2">
  <advance width="1251"/>
  <unicode hex="0046"/>
  <note>
F
</note>
  <outline>
    <contour>
      <point x="359" y="571" type="line"/>
      <point x="1145" y="571" type="line"/>
      <point x="1145" y="729" type="line"/>
      <point x="359" y="729" type="line"/>
      <point x="359" y="1253" type="line"/>
      <point x="1169" y="1253" type="line"/>
      <point x="1169" y="1409" type="line"/>
      <point x="168" y="1409" type="line"/>
      <point x="168" y="0" type="line"/>
      <point x="359" y="0" type="line"/>
    </contour>
  </outline>
</glyph>
<glyph name="G" format="2">
  <advance width="1593"/>
  <unicode hex="0047"/>
  <note>
G
</note>
  <outline>
    <contour>
      <point x="813" y="135" type="curve" smooth="yes"/>
      <point x="490" y="135"/>
      <point x="297" y="355"/>
      <point x="297" y="711" type="curve" smooth="yes"/>
      <point x="297" y="1068"/>
      <point x="474" y="1274"/>
      <point x="799" y="1274" type="curve" smooth="yes"/>
      <point x="1008" y="1274"/>
      <point x="1147" y="1204"/>
      <point x="1227" y="1044" type="curve"/>
      <point x="1409" y="1098" type="line"/>
      <point x="1304" y="1330"/>
      <point x="1116" y="1430"/>
      <point x="804" y="1430" type="curve" smooth="yes"/>
      <point x="360" y="1430"/>
      <point x="103" y="1168"/>
      <point x="103" y="711" type="curve" smooth="yes"/>
      <point x="103" y="262"/>
      <point x="373" y="-20"/>
      <point x="813" y="-20" type="curve" smooth="yes"/>
      <point x="1066" y="-20"/>
      <point x="1291" y="67"/>
      <point x="1440" y="219" type="curve"/>
      <point x="1440" y="705" type="line"/>
      <point x="843" y="705" type="line"/>
      <point x="843" y="545" type="line"/>
      <point x="1264" y="545" type="line"/>
      <point x="1264" y="291" type="line"/>
      <point x="1165" y="195"/>
      <point x="997" y="135"/>
    </contour>
  </outline>
</glyph>
<glyph name="H" format="2">
  <advance width="1479"/>
  <unicode hex="0048"/>
  <note>
H
</note>
  <outline>
    <contour>
      <point x="359" y="653" type="line"/>
      <point x="1121" y="653" type="line"/>
      <point x="1121" y="0" type="line"/>
      <point x="1312" y="0" type="line"/>
      <point x="1312" y="1409" type="line"/>
      <point x="1121" y="1409" type="line"/>
      <point x="1121" y="813" type="line"/>
      <point x="359" y="813" type="line"/>
      <point x="359" y="1409" type="line"/>
      <point x="168" y="1409" type="line"/>
      <point x="168" y="0" type="line"/>
      <point x="359" y="0" type="line"/>
    </contour>
  </outline>
</glyph>
<glyph name="I" format="2">
  <advance width="569"/>
  <unicode hex="0049"/>
  <note>
I
</note>
  <outline>
    <contour>
      <point x="380" y="1409" type="line"/>
      <point x="189" y="1409" type="line"/>
      <point x="189" y="0" type="line"/>
      <point x="380" y="0" type="line"/>
    </contour>
  </outline>
</glyph>
<glyph name="J" format="2">
  <advance width="1024"/>
  <unicode hex="004A"/>
  <note>
J
</note>
  <outline>
    <contour>
      <point x="457" y="-20" type="curve" smooth="yes"/>
      <point x="714" y="-20"/>
      <point x="872" y="147"/>
      <point x="872" y="420" type="curve" smooth="yes"/>
      <point x="872" y="1409" type="line"/>
      <point x="411" y="1409" type="line"/>
      <point x="411" y="1253" type="line"/>
      <point x="682" y="1253" type="line"/>
      <point x="682" y="416" type="line" smooth="yes"/>
      <point x="682" y="232"/>
      <point x="597" y="135"/>
      <point x="458" y="135" type="curve" smooth="yes"/>
      <point x="331" y="135"/>
      <point x="243" y="226"/>
      <point x="219" y="381" type="curve"/>
      <point x="32" y="350" type="line"/>
      <point x="77" y="103"/>
      <point x="218" y="-20"/>
    </contour>
  </outline>
</glyph>
<glyph name="K" format="2">
  <advance width="1366"/>
  <unicode hex="004B"/>
  <note>
K
</note>
  <outline>
    <contour>
      <point x="359" y="540" type="line"/>
      <point x="543" y="680" type="line"/>
      <point x="1106" y="0" type="line"/>
      <point x="1343" y="0" type="line"/>
      <point x="663" y="797" type="line"/>
      <point x="1263" y="1409" type="line"/>
      <point x="1038" y="1409" type="line"/>
      <point x="359" y="703" type="line"/>
      <point x="359" y="1409" type="line"/>
      <point x="168" y="1409" type="line"/>
      <point x="168" y="0" type="line"/>
      <point x="359" y="0" type="line"/>
    </contour>
  </outline>
</glyph>
<glyph name="L" format="2">
  <advance width="1139"/>
  <unicode hex="004C"/>
  <note>
L
</note>
  <outline>
    <contour>
      <point x="1071" y="156" type="line"/>
      <point x="359" y="156" type="line"/>
      <point x="359" y="1409" type="line"/>
      <point x="168" y="1409" type="line"/>
      <point x="168" y="0" type="line"/>
      <point x="1071" y="0" type="line"/>
    </contour>
  </outline>
</glyph>
<glyph name="M" format="2">
  <advance width="1706"/>
  <unicode hex="004D"/>
  <note>
M
</note>
  <outline>
    <contour>
      <point x="338" y="940" type="line" smooth="yes"/>
      <point x="338" y="1040"/>
      <point x="333" y="1140"/>
      <point x="331" y="1240" type="curve"/>
      <point x="420" y="960" type="line"/>
      <point x="789" y="0" type="line"/>
      <point x="923" y="0" type="line"/>
      <point x="1287" y="960" type="line" smooth="yes"/>
      <point x="1313" y="1027"/>
      <point x="1342" y="1121"/>
      <point x="1375" y="1240" type="curve"/>
      <point x="1369" y="1144"/>
      <point x="1366" y="1044"/>
      <point x="1366" y="940" type="curve" smooth="yes"/>
      <point x="1366" y="0" type="line"/>
      <point x="1538" y="0" type="line"/>
      <point x="1538" y="1409" type="line"/>
      <point x="1293" y="1409" type="line"/>
      <point x="925" y="432" type="line" smooth="yes"/>
      <point x="913" y="404"/>
      <point x="868" y="261"/>
      <point x="857" y="208" type="curve"/>
      <point x="849" y="248"/>
      <point x="821" y="353"/>
      <point x="794" y="432" type="curve"/>
      <point x="419" y="1409" type="line"/>
      <point x="168" y="1409" type="line"/>
      <point x="168" y="0" type="line"/>
      <point x="338" y="0" type="line"/>
    </contour>
  </outline>
</glyph>
<glyph name="N" format="2">
  <advance width="1479"/>
  <unicode hex="004E"/>
  <note>
N
</note>
  <outline>
    <contour>
      <point x="338" y="936" type="line" smooth="yes"/>
      <point x="338" y="1024"/>
      <point x="331" y="1112"/>
      <point x="328" y="1200" type="curve"/>
      <point x="1082" y="0" type="line"/>
      <point x="1312" y="0" type="line"/>
      <point x="1312" y="1409" type="line"/>
      <point x="1140" y="1409" type="line"/>
      <point x="1140" y="485" type="line" smooth="yes"/>
      <point x="1140" y="426"/>
      <point x="1144" y="332"/>
      <point x="1152" y="201" type="curve"/>
      <point x="390" y="1409" type="line"/>
      <point x="168" y="1409" type="line"/>
      <point x="168" y="0" type="line"/>
      <point x="338" y="0" type="line"/>
    </contour>
  </outline>
</glyph>
<glyph name="O" format="2">
  <advance width="1593"/>
  <unicode hex="004F"/>
  <note>
O
</note>
  <outline>
    <contour>
      <point x="1495" y="711" type="curve" smooth="yes"/>
      <point x="1495" y="1166"/>
      <point x="1228" y="1430"/>
      <point x="797" y="1430" type="curve" smooth="yes"/>
      <point x="357" y="1430"/>
      <point x="97" y="1162"/>
      <point x="97" y="711" type="curve" smooth="yes"/>
      <point x="97" y="257"/>
      <point x="362" y="-20"/>
      <point x="795" y="-20" type="curve" smooth="yes"/>
      <point x="1225" y="-20"/>
      <point x="1495" y="259"/>
    </contour>
    <contour>
      <point x="1300" y="711" type="curve" smooth="yes"/>
      <point x="1300" y="344"/>
      <point x="1120" y="135"/>
      <point x="795" y="135" type="curve" smooth="yes"/>
      <point x="479" y="135"/>
      <point x="291" y="358"/>
      <point x="291" y="711" type="curve" smooth="yes"/>
      <point x="291" y="1067"/>
      <point x="474" y="1274"/>
      <point x="797" y="1274" type="curve" smooth="yes"/>
      <point x="1117" y="1274"/>
      <point x="1300" y="1062"/>
    </contour>
  </outline>
</glyph>
<glyph name="Q" format="2">
  <advance width="1593"/>
  <unicode hex="0051"/>
  <note>
Q
</note>
  <outline>
    <contour>
      <point x="1495" y="711" type="curve" smooth="yes"/>
      <point x="1495" y="1154"/>
      <point x="1240" y="1430"/>
      <point x="797" y="1430" type="curve" smooth="yes"/>
      <point x="357" y="1430"/>
      <point x="97" y="1162"/>
      <point x="97" y="711" type="curve" smooth="yes"/>
      <point x="97" y="285"/>
      <point x="329" y="4"/>
      <point x="733" y="-16" type="curve"/>
      <point x="816" y="-283"/>
      <point x="940" y="-387"/>
      <point x="1141" y="-387" type="curve" smooth="yes"/>
      <point x="1198" y="-387"/>
      <point x="1257" y="-380"/>
      <point x="1319" y="-365" type="curve"/>
      <point x="1319" y="-231" type="line"/>
      <point x="1279" y="-240"/>
      <point x="1241" y="-244"/>
      <point x="1204" y="-244" type="curve" smooth="yes"/>
      <point x="1068" y="-244"/>
      <point x="983" y="-174"/>
      <point x="928" y="-6" type="curve"/>
      <point x="1284" y="41"/>
      <point x="1495" y="314"/>
    </contour>
    <contour>
      <point x="1300" y="711" type="curve" smooth="yes"/>
      <point x="1300" y="344"/>
      <point x="1120" y="135"/>
      <point x="795" y="135" type="curve" smooth="yes"/>
      <point x="479" y="135"/>
      <point x="291" y="358"/>
      <point x="291" y="711" type="curve" smooth="yes"/>
      <point x="291" y="1067"/>
      <point x="474" y="1274"/>
      <point x="797" y="1274" type="curve" smooth="yes"/>
      <point x="1117" y="1274"/>
      <point x="1300" y="1062"/>
    </contour>
  </outline>
</glyph>
<glyph name="R" format="2">
  <advance width="1479"/>
  <unicode hex="0052"/>
  <note>
R
</note>
  <outline>
    <contour>
      <point x="359" y="585" type="line"/>
      <point x="798" y="585" type="line"/>
      <point x="1164" y="0" type="line"/>
      <point x="1384" y="0" type="line"/>
      <point x="984" y="607" type="line"/>
      <point x="1199" y="644"/>
      <point x="1328" y="797"/>
      <point x="1328" y="1006" type="curve" smooth="yes"/>
      <point x="1328" y="1259"/>
      <point x="1148" y="1409"/>
      <point x="831" y="1409" type="curve" smooth="yes"/>
      <point x="168" y="1409" type="line"/>
      <point x="168" y="0" type="line"/>
      <point x="359" y="0" type="line"/>
    </contour>
    <contour>
      <point x="1136" y="1004" type="curve" smooth="yes"/>
      <point x="1136" y="835"/>
      <point x="1021" y="736"/>
      <point x="820" y="736" type="curve" smooth="yes"/>
      <point x="359" y="736" type="line"/>
      <point x="359" y="1256" type="line"/>
      <point x="812" y="1256" type="line" smooth="yes"/>
      <point x="1021" y="1256"/>
      <point x="1136" y="1168"/>
    </contour>
  </outline>
</glyph>
<glyph name="S" format="2">
  <advance width="1366"/>
  <unicode hex="0053"/>
  <note>
S
</note>
  <outline>
    <contour>
      <point x="1272" y="389" type="curve" smooth="yes"/>
      <point x="1272" y="492"/>
      <point x="1242" y="566"/>
      <point x="1191" y="622" type="curve" smooth="yes"/>
      <point x="1153" y="665"/>
      <point x="1102" y="697"/>
      <point x="1047" y="720" type="curve" smooth="yes"/>
      <point x="954" y="761"/>
      <point x="846" y="786"/>
      <point x="738" y="811" type="curve" smooth="yes"/>
      <point x="609" y="840"/>
      <point x="522" y="864"/>
      <point x="479" y="884" type="curve" smooth="yes"/>
      <point x="392" y="923"/>
      <point x="345" y="976"/>
      <point x="345" y="1063" type="curve" smooth="yes"/>
      <point x="345" y="1211"/>
      <point x="467" y="1286"/>
      <point x="692" y="1286" type="curve" smooth="yes"/>
      <point x="897" y="1286"/>
      <point x="1010" y="1222"/>
      <point x="1051" y="1073" type="curve"/>
      <point x="1239" y="1106" type="line"/>
      <point x="1171" y="1342"/>
      <point x="1014" y="1430"/>
      <point x="694" y="1430" type="curve" smooth="yes"/>
      <point x="350" y="1430"/>
      <point x="159" y="1294"/>
      <point x="159" y="1053" type="curve" smooth="yes"/>
      <point x="159" y="948"/>
      <point x="195" y="867"/>
      <point x="262" y="806" type="curve" smooth="yes"/>
      <point x="329" y="746"/>
      <point x="429" y="699"/>
      <point x="652" y="650" type="curve" smooth="yes"/>
      <point x="780" y="621"/>
      <point x="887" y="599"/>
      <point x="963" y="562" type="curve" smooth="yes"/>
      <point x="1039" y="525"/>
      <point x="1083" y="471"/>
      <point x="1083" y="379" type="curve" smooth="yes"/>
      <point x="1083" y="215"/>
      <point x="944" y="129"/>
      <point x="697" y="129" type="curve" smooth="yes"/>
      <point x="458" y="129"/>
      <point x="321" y="206"/>
      <point x="278" y="375" type="curve"/>
      <point x="93" y="338" type="line"/>
      <point x="148" y="99"/>
      <point x="347" y="-20"/>
      <point x="690" y="-20" type="curve" smooth="yes"/>
      <point x="1059" y="-20"/>
      <point x="1272" y="129"/>
    </contour>
  </outline>
</glyph>
<glyph name="T" format="2">
  <advance width="1251"/>
  <unicode hex="0054"/>
  <note>
T
</note>
  <outline>
    <contour>
      <point x="720" y="1253" type="line"/>
      <point x="1204" y="1253" type="line"/>
      <point x="1204" y="1409" type="line"/>
      <point x="46" y="1409" type="line"/>
      <point x="46" y="1253" type="line"/>
      <point x="530" y="1253" type="line"/>
      <point x="530" y="0" type="line"/>
      <point x="720" y="0" type="line"/>
    </contour>
  </outline>
</glyph>
<glyph name="U" format="2">
  <advance width="1479"/>
  <unicode hex="0055"/>
  <note>
U
</note>
  <outline>
    <contour>
      <point x="731" y="-20" type="curve" smooth="yes"/>
      <point x="1091" y="-20"/>
      <point x="1321" y="188"/>
      <point x="1321" y="530" type="curve" smooth="yes"/>
      <point x="1321" y="1409" type="line"/>
      <point x="1131" y="1409" type="line"/>
      <point x="1131" y="541" type="line" smooth="yes"/>
      <point x="1131" y="276"/>
      <point x="983" y="135"/>
      <point x="730" y="135" type="curve" smooth="yes"/>
      <point x="483" y="135"/>
      <point x="349" y="271"/>
      <point x="349" y="528" type="curve" smooth="yes"/>
      <point x="349" y="1409" type="line"/>
      <point x="158" y="1409" type="line"/>
      <point x="158" y="512" type="line" smooth="yes"/>
      <point x="158" y="180"/>
      <point x="385" y="-20"/>
    </contour>
  </outline>
</glyph>
<glyph name="V" format="2">
  <advance width="1366"/>
  <unicode hex="0056"/>
  <note>
V
</note>
  <outline>
    <contour>
      <point x="1357" y="1409" type="line"/>
      <point x="1156" y="1409" type="line"/>
      <point x="768" y="417" type="line" smooth="yes"/>
      <point x="741" y="349"/>
      <point x="711" y="251"/>
      <point x="684" y="168" type="curve"/>
      <point x="656" y="251"/>
      <point x="632" y="335"/>
      <point x="600" y="417" type="curve" smooth="yes"/>
      <point x="210" y="1409" type="line"/>
      <point x="9" y="1409" type="line"/>
      <point x="584" y="0" type="line"/>
      <point x="782" y="0" type="line"/>
    </contour>
  </outline>
</glyph>
<glyph name="W" format="2">
  <advance width="1933"/>
  <unicode hex="0057"/>
  <note>
W
</note>
  <outline>
    <contour>
      <point x="897" y="890" type="line" smooth="yes"/>
      <point x="911" y="941"/>
      <point x="950" y="1089"/>
      <point x="969" y="1196" type="curve"/>
      <point x="1000" y="1051"/>
      <point x="1023" y="951"/>
      <point x="1039" y="895" type="curve" smooth="yes"/>
      <point x="1283" y="0" type="line"/>
      <point x="1511" y="0" type="line"/>
      <point x="1926" y="1409" type="line"/>
      <point x="1727" y="1409" type="line"/>
      <point x="1476" y="501" type="line" smooth="yes"/>
      <point x="1463" y="453"/>
      <point x="1422" y="286"/>
      <point x="1393" y="168" type="curve"/>
      <point x="1372" y="267"/>
      <point x="1342" y="389"/>
      <point x="1305" y="532" type="curve" smooth="yes"/>
      <point x="1060" y="1409" type="line"/>
      <point x="877" y="1409" type="line"/>
      <point x="621" y="495" type="line" smooth="yes"/>
      <point x="597" y="409"/>
      <point x="560" y="241"/>
      <point x="544" y="168" type="curve"/>
      <point x="519" y="287"/>
      <point x="491" y="402"/>
      <point x="461" y="514" type="curve" smooth="yes"/>
      <point x="208" y="1409" type="line"/>
      <point x="9" y="1409" type="line"/>
      <point x="424" y="0" type="line"/>
      <point x="652" y="0" type="line"/>
    </contour>
  </outline>
</glyph>
<glyph name="X" format="2">
  <advance width="1366"/>
  <unicode hex="0058"/>
  <note>
X
</note>
  <outline>
    <contour>
      <point x="689" y="616" type="line"/>
      <point x="1112" y="0" type="line"/>
      <point x="1323" y="0" type="line"/>
      <point x="800" y="739" type="line"/>
      <point x="1282" y="1409" type="line"/>
      <point x="1071" y="1409" type="line"/>
      <point x="690" y="856" type="line"/>
      <point x="298" y="1409" type="line"/>
      <point x="87" y="1409" type="line"/>
      <point x="582" y="732" type="line"/>
      <point x="46" y="0" type="line"/>
      <point x="257" y="0" type="line"/>
    </contour>
  </outline>
</glyph>
<glyph name="Y" format="2">
  <advance width="1366"/>
  <unicode hex="0059"/>
  <note>
Y
</note>
  <outline>
    <contour>
      <point x="777" y="584" type="line"/>
      <point x="1321" y="1409" type="line"/>
      <point x="1111" y="1409" type="line"/>
      <point x="684" y="738" type="line"/>
      <point x="255" y="1409" type="line"/>
      <point x="45" y="1409" type="line"/>
      <point x="587" y="584" type="line"/>
      <point x="587" y="0" type="line"/>
      <point x="777" y="0" type="line"/>
    </contour>
  </outline>
</glyph>
<glyph name="Z" format="2">
  <advance width="1251"/>
  <unicode hex="005A"/>
  <note>
Z
</note>
  <outline>
    <contour>
      <point x="1187" y="156" type="line"/>
      <point x="282" y="156" type="line"/>
      <point x="1140" y="1270" type="line"/>
      <point x="1140" y="1409" type="line"/>
      <point x="138" y="1409" type="line"/>
      <point x="138" y="1253" type="line"/>
      <point x="923" y="1253" type="line"/>
      <point x="65" y="143" type="line"/>
      <point x="65" y="0" type="line"/>
      <point x="1187" y="0" type="line"/>
    </contour>
  </outline>
</glyph>
<glyph name="bracketleft" format="2">
  <advance width="569"/>
  <unicode hex="005B"/>
  <note>
bracketleft
</note>
  <outline>
    <contour>
      <point x="553" y="-296" type="line"/>
      <point x="320" y="-296" type="line"/>
      <point x="320" y="1355" type="line"/>
      <point x="553" y="1355" type="line"/>
      <point x="553" y="1484" type="line"/>
      <point x="146" y="1484" type="line"/>
      <point x="146" y="-425" type="line"/>
      <point x="553" y="-425" type="line"/>
    </contour>
  </outline>
</glyph>
<glyph name="backslash" format="2">
  <advance width="569"/>
  <unicode hex="005C"/>
  <note>
backslash
</note>
  <outline>
    <contour>
      <point x="158" y="1484" type="line"/>
      <point x="0" y="1484" type="line"/>
      <point x="407" y="-20" type="line"/>
      <point x="569" y="-20" type="line"/>
    </contour>
  </outline>
</glyph>
<glyph name="bracketright" format="2">
  <advance width="569"/>
  <unicode hex="005D"/>
  <note>
bracketright
</note>
  <outline>
    <contour>
      <point x="423" y="1484" type="line"/>
      <point x="16" y="1484" type="line"/>
      <point x="16" y="1355" type="line"/>
      <point x="249" y="1355" type="line"/>
      <point x="249" y="-296" type="line"/>
      <point x="16" y="-296" type="line"/>
      <point x="16" y="-425" type="line"/>
      <point x="423" y="-425" type="line"/>
    </contour>
  </outline>
</glyph>
<glyph name="asciicircum" format="2">
  <advance width="961"/>
  <unicode hex="005E"/>
  <note>
asciicircum
</note>
  <outline>
    <contour>
      <point x="10" y="673" type="line"/>
      <point x="172" y="673" type="line"/>
      <point x="478" y="1306" type="line"/>
      <point x="787" y="673" type="line"/>
      <point x="951" y="673" type="line"/>
      <point x="581" y="1409" type="line"/>
      <point x="378" y="1409" type="line"/>
    </contour>
  </outline>
</glyph>
<glyph name="underscore" format="2">
  <advance width="1139"/>
  <unicode hex="005F"/>
  <note>
underscore
</note>
  <outline>
    <contour>
      <point x="1162" y="-277" type="line"/>
      <point x="-31" y="-277" type="line"/>
      <point x="-31" y="-407" type="line"/>
      <point x="1162" y="-407" type="line"/>
    </contour>
  </outline>
</glyph>
<glyph name="grave" format="2">
  <advance width="682"/>
  <unicode hex="0060"/>
  <note>
grave
</note>
  <outline>
    <contour>
      <point x="530" y="1221" type="line"/>
      <point x="313" y="1508" type="line"/>
      <point x="106" y="1508" type="line"/>
      <point x="106" y="1479" type="line"/>
      <point x="436" y="1201" type="line"/>
      <point x="530" y="1201" type="line"/>
    </contour>
  </outline>
</glyph>
<glyph name="a" format="2">
  <advance width="1139"/>
  <unicode hex="0061"/>
  <note>
a
</note>
  <outline>
    <contour>
      <point x="414" y="-20" type="curve" smooth="yes"/>
      <point x="589" y="-20"/>
      <point x="705" y="42"/>
      <point x="797" y="207" type="curve"/>
      <point x="803" y="207" type="line"/>
      <point x="811" y="58"/>
      <point x="867" y="-10"/>
      <point x="1000" y="-10" type="curve" smooth="yes"/>
      <point x="1047" y="-10"/>
      <point x="1094" y="-5"/>
      <point x="1139" y="6" type="curve"/>
      <point x="1139" y="118" type="line"/>
      <point x="1117" y="113"/>
      <point x="1097" y="111"/>
      <point x="1080" y="111" type="curve" smooth="yes"/>
      <point x="1001" y="111"/>
      <point x="979" y="165"/>
      <point x="979" y="272" type="curve" smooth="yes"/>
      <point x="979" y="738" type="line" smooth="yes"/>
      <point x="979" y="974"/>
      <point x="841" y="1102"/>
      <point x="569" y="1102" type="curve" smooth="yes"/>
      <point x="310" y="1102"/>
      <point x="166" y="1005"/>
      <point x="135" y="810" type="curve"/>
      <point x="323" y="793" type="line"/>
      <point x="338" y="913"/>
      <point x="404" y="965"/>
      <point x="565" y="965" type="curve" smooth="yes"/>
      <point x="725" y="965"/>
      <point x="797" y="895"/>
      <point x="797" y="719" type="curve" smooth="yes"/>
      <point x="797" y="660" type="line"/>
      <point x="554" y="656" type="line" smooth="yes"/>
      <point x="226" y="648"/>
      <point x="87" y="526"/>
      <point x="87" y="302" type="curve" smooth="yes"/>
      <point x="87" y="102"/>
      <point x="197" y="-20"/>
    </contour>
    <contour>
      <point x="797" y="534" type="line"/>
      <point x="797" y="445" type="line" smooth="yes"/>
      <point x="797" y="334"/>
      <point x="734" y="220"/>
      <point x="631" y="160" type="curve" smooth="yes"/>
      <point x="580" y="130"/>
      <point x="521" y="115"/>
      <point x="455" y="115" type="curve" smooth="yes"/>
      <point x="338" y="115"/>
      <point x="272" y="182"/>
      <point x="272" y="299" type="curve" smooth="yes"/>
      <point x="272" y="407"/>
      <point x="320" y="472"/>
      <point x="408" y="504" type="curve" smooth="yes"/>
      <point x="451" y="520"/>
      <point x="515" y="529"/>
      <point x="600" y="530" type="curve" smooth="yes"/>
    </contour>
  </outline>
</glyph>
<glyph name="c" format="2">
  <advance width="1024"/>
  <unicode hex="0063"/>
  <note>
c
</note>
  <outline>
    <contour>
      <point x="553" y="-20" type="curve" smooth="yes"/>
      <point x="782" y="-20"/>
      <point x="942" y="114"/>
      <point x="970" y="322" type="curve"/>
      <point x="788" y="334" type="line"/>
      <point x="768" y="190"/>
      <point x="676" y="122"/>
      <point x="548" y="122" type="curve" smooth="yes"/>
      <point x="365" y="122"/>
      <point x="275" y="258"/>
      <point x="275" y="546" type="curve" smooth="yes"/>
      <point x="275" y="846"/>
      <point x="355" y="961"/>
      <point x="546" y="961" type="curve" smooth="yes"/>
      <point x="686" y="961"/>
      <point x="760" y="885"/>
      <point x="779" y="765" type="curve"/>
      <point x="964" y="779" type="line"/>
      <point x="927" y="980"/>
      <point x="772" y="1102"/>
      <point x="551" y="1102" type="curve" smooth="yes"/>
      <point x="252" y="1102"/>
      <point x="87" y="906"/>
      <point x="87" y="542" type="curve" smooth="yes"/>
      <point x="87" y="175"/>
      <point x="250" y="-20"/>
    </contour>
  </outline>
</glyph>
<glyph name="e" format="2">
  <advance width="1139"/>
  <unicode hex="0065"/>
  <note>
e
</note>
  <outline>
    <contour>
      <point x="276" y="503" type="curve"/>
      <point x="1048" y="503" type="line"/>
      <point x="1048" y="527" type="line" smooth="yes"/>
      <point x="1048" y="910"/>
      <point x="889" y="1102"/>
      <point x="571" y="1102" type="curve" smooth="yes"/>
      <point x="260" y="1102"/>
      <point x="87" y="905"/>
      <point x="87" y="548" type="curve" smooth="yes"/>
      <point x="87" y="172"/>
      <point x="258" y="-20"/>
      <point x="578" y="-20" type="curve" smooth="yes"/>
      <point x="807" y="-20"/>
      <point x="954" y="65"/>
      <point x="1019" y="236" type="curve"/>
      <point x="861" y="281" type="line"/>
      <point x="828" y="185"/>
      <point x="734" y="115"/>
      <point x="578" y="115" type="curve" smooth="yes"/>
      <point x="381" y="115"/>
      <point x="276" y="255"/>
    </contour>
    <contour>
      <point x="862" y="641" type="curve"/>
      <point x="278" y="641" type="line"/>
      <point x="286" y="845"/>
      <point x="393" y="969"/>
      <point x="568" y="969" type="curve" smooth="yes"/>
      <point x="748" y="969"/>
      <point x="842" y="869"/>
    </contour>
  </outline>
</glyph>
<glyph name="g" format="2">
  <advance width="1139"/>
  <unicode hex="0067"/>
  <note>
g
</note>
  <outline>
    <contour>
      <point x="548" y="-425" type="curve" smooth="yes"/>
      <point x="850" y="-425"/>
      <point x="1001" y="-273"/>
      <point x="1001" y="31" type="curve" smooth="yes"/>
      <point x="1001" y="858" type="line" smooth="yes"/>
      <point x="1001" y="971"/>
      <point x="1003" y="1046"/>
      <point x="1007" y="1082" type="curve"/>
      <point x="836" y="1082" type="line"/>
      <point x="831" y="1073"/>
      <point x="824" y="937"/>
      <point x="824" y="897" type="curve"/>
      <point x="822" y="897" type="line"/>
      <point x="761" y="1026"/>
      <point x="645" y="1099"/>
      <point x="492" y="1099" type="curve" smooth="yes"/>
      <point x="219" y="1099"/>
      <point x="86" y="922"/>
      <point x="86" y="539" type="curve" smooth="yes"/>
      <point x="86" y="162"/>
      <point x="207" y="-8"/>
      <point x="472" y="-8" type="curve" smooth="yes"/>
      <point x="631" y="-8"/>
      <point x="752" y="62"/>
      <point x="820" y="201" type="curve"/>
      <point x="822" y="201" type="line"/>
      <point x="822" y="27" type="line" smooth="yes"/>
      <point x="822" y="-183"/>
      <point x="732" y="-288"/>
      <point x="553" y="-288" type="curve" smooth="yes"/>
      <point x="420" y="-288"/>
      <point x="336" y="-232"/>
      <point x="312" y="-132" type="curve"/>
      <point x="131" y="-158" type="line"/>
      <point x="171" y="-329"/>
      <point x="312" y="-425"/>
    </contour>
    <contour>
      <point x="822" y="541" type="curve" smooth="yes"/>
      <point x="822" y="283"/>
      <point x="704" y="125"/>
      <point x="533" y="125" type="curve" smooth="yes"/>
      <point x="342" y="125"/>
      <point x="272" y="245"/>
      <point x="272" y="541" type="curve" smooth="yes"/>
      <point x="272" y="840"/>
      <point x="352" y="965"/>
      <point x="536" y="965" type="curve" smooth="yes"/>
      <point x="702" y="965"/>
      <point x="822" y="804"/>
    </contour>
  </outline>
</glyph>
<glyph name="h" format="2">
  <advance width="1139"/>
  <unicode hex="0068"/>
  <note>
h
</note>
  <outline>
    <contour>
      <point x="317" y="897" type="curve"/>
      <point x="314" y="897" type="line"/>
      <point x="315" y="910"/>
      <point x="322" y="1017"/>
      <point x="322" y="1098" type="curve" smooth="yes"/>
      <point x="322" y="1484" type="line"/>
      <point x="142" y="1484" type="line"/>
      <point x="142" y="0" type="line"/>
      <point x="322" y="0" type="line"/>
      <point x="322" y="638" type="line" smooth="yes"/>
      <point x="322" y="837"/>
      <point x="433" y="963"/>
      <point x="602" y="963" type="curve" smooth="yes"/>
      <point x="762" y="963"/>
      <point x="825" y="882"/>
      <point x="825" y="686" type="curve" smooth="yes"/>
      <point x="825" y="0" type="line"/>
      <point x="1006" y="0" type="line"/>
      <point x="1006" y="721" type="line" smooth="yes"/>
      <point x="1006" y="985"/>
      <point x="898" y="1102"/>
      <point x="663" y="1102" type="curve" smooth="yes"/>
      <point x="496" y="1102"/>
      <point x="394" y="1038"/>
    </contour>
  </outline>
</glyph>
<glyph name="i" format="2">
  <advance width="455"/>
  <unicode hex="0069"/>
  <note>
i
</note>
  <outline>
    <contour>
      <point x="317" y="1484" type="line"/>
      <point x="137" y="1484" type="line"/>
      <point x="137" y="1312" type="line"/>
      <point x="317" y="1312" type="line"/>
    </contour>
    <contour>
      <point x="317" y="1082" type="line"/>
      <point x="137" y="1082" type="line"/>
      <point x="137" y="0" type="line"/>
      <point x="317" y="0" type="line"/>
    </contour>
  </outline>
</glyph>
<glyph name="l" format="2">
  <advance width="455"/>
  <unicode hex="006C"/>
  <note>
l
</note>
  <outline>
    <contour>
      <point x="318" y="1484" type="line"/>
      <point x="138" y="1484" type="line"/>
      <point x="138" y="0" type="line"/>
      <point x="318" y="0" type="line"/>
    </contour>
  </outline>
</glyph>
<glyph name="n" format="2">
  <advance width="1139"/>
  <unicode hex="006E"/>
  <note>
n
</note>
  <outline>
    <contour>
      <point x="322" y="627" type="line" smooth="yes"/>
      <point x="322" y="838"/>
      <point x="429" y="963"/>
      <point x="602" y="963" type="curve" smooth="yes"/>
      <point x="766" y="963"/>
      <point x="825" y="892"/>
      <point x="825" y="686" type="curve" smooth="yes"/>
      <point x="825" y="0" type="line"/>
      <point x="1006" y="0" type="line"/>
      <point x="1006" y="721" type="line" smooth="yes"/>
      <point x="1006" y="986"/>
      <point x="900" y="1102"/>
      <point x="663" y="1102" type="curve" smooth="yes"/>
      <point x="502" y="1102"/>
      <point x="400" y="1046"/>
      <point x="317" y="897" type="curve"/>
      <point x="314" y="897" type="line"/>
      <point x="312" y="973"/>
      <point x="310" y="1043"/>
      <point x="306" y="1082" type="curve"/>
      <point x="136" y="1082" type="line"/>
      <point x="140" y="1054"/>
      <point x="142" y="977"/>
      <point x="142" y="851" type="curve" smooth="yes"/>
      <point x="142" y="0" type="line"/>
      <point x="322" y="0" type="line"/>
    </contour>
  </outline>
</glyph>
<glyph name="o" format="2">
  <advance width="1139"/>
  <unicode hex="006F"/>
  <note>
o
</note>
  <outline>
    <contour>
      <point x="1053" y="542" type="curve" smooth="yes"/>
      <point x="1053" y="925"/>
      <point x="902" y="1102"/>
      <point x="571" y="1102" type="curve" smooth="yes"/>
      <point x="248" y="1102"/>
      <point x="86" y="915"/>
      <point x="86" y="542" type="curve" smooth="yes"/>
      <point x="86" y="178"/>
      <point x="249" y="-20"/>
      <point x="565" y="-20" type="curve" smooth="yes"/>
      <point x="882" y="-20"/>
      <point x="1053" y="163"/>
    </contour>
    <contour>
      <point x="864" y="542" type="curve" smooth="yes"/>
      <point x="864" y="247"/>
      <point x="779" y="113"/>
      <point x="563" y="113" type="curve" smooth="yes"/>
      <point x="364" y="113"/>
      <point x="275" y="257"/>
      <point x="275" y="542" type="curve" smooth="yes"/>
      <point x="275" y="835"/>
      <point x="363" y="969"/>
      <point x="574" y="969" type="curve" smooth="yes"/>
      <point x="783" y="969"/>
      <point x="864" y="841"/>
    </contour>
  </outline>
</glyph>
<glyph name="p" format="2">
  <advance width="1139"/>
  <unicode hex="0070"/>
  <note>
p
</note>
  <outline>
    <contour>
      <point x="1053" y="546" type="curve" smooth="yes"/>
      <point x="1053" y="929"/>
      <point x="922" y="1101"/>
      <point x="655" y="1101" type="curve" smooth="yes"/>
      <point x="483" y="1101"/>
      <point x="384" y="1041"/>
      <point x="320" y="908" type="curve"/>
      <point x="316" y="908" type="line"/>
      <point x="316" y="946"/>
      <point x="308" y="1074"/>
      <point x="306" y="1082" type="curve"/>
      <point x="132" y="1082" type="line"/>
      <point x="136" y="1046"/>
      <point x="138" y="972"/>
      <point x="138" y="861" type="curve" smooth="yes"/>
      <point x="138" y="-425" type="line"/>
      <point x="318" y="-425" type="line"/>
      <point x="318" y="-2" type="line" smooth="yes"/>
      <point x="318" y="106"/>
      <point x="317" y="163"/>
      <point x="314" y="168" type="curve"/>
      <point x="319" y="168" type="line"/>
      <point x="376" y="43"/>
      <point x="488" y="-20"/>
      <point x="655" y="-20" type="curve" smooth="yes"/>
      <point x="920" y="-20"/>
      <point x="1053" y="169"/>
    </contour>
    <contour>
      <point x="864" y="542" type="curve" smooth="yes"/>
      <point x="864" y="233"/>
      <point x="786" y="113"/>
      <point x="607" y="113" type="curve" smooth="yes"/>
      <point x="403" y="113"/>
      <point x="318" y="244"/>
      <point x="318" y="528" type="curve" smooth="yes"/>
      <point x="318.0" y="833.1886836063754"/>
      <point x="411" y="962"/>
      <point x="609" y="962" type="curve" smooth="yes"/>
      <point x="786" y="962"/>
      <point x="864" y="843"/>
    </contour>
  </outline>
</glyph>
<glyph name="r" format="2">
  <advance width="682"/>
  <unicode hex="0072"/>
  <note>
r
</note>
  <outline>
    <contour>
      <point x="322" y="564" type="line" smooth="yes"/>
      <point x="322" y="804"/>
      <point x="403" y="937"/>
      <point x="552" y="937" type="curve" smooth="yes"/>
      <point x="592" y="937"/>
      <point x="624" y="934"/>
      <point x="648" y="927" type="curve"/>
      <point x="648" y="1092" type="line"/>
      <point x="623" y="1099"/>
      <point x="599" y="1102"/>
      <point x="575" y="1102" type="curve" smooth="yes"/>
      <point x="487" y="1102"/>
      <point x="430" y="1079"/>
      <point x="384" y="1013" type="curve" smooth="yes"/>
      <point x="359" y="976"/>
      <point x="338" y="927"/>
      <point x="318" y="861" type="curve"/>
      <point x="314" y="861" type="line"/>
      <point x="314" y="886"/>
      <point x="311" y="959"/>
      <point x="306" y="1082" type="curve"/>
      <point x="136" y="1082" type="line"/>
      <point x="140" y="990"/>
      <point x="142" y="906"/>
      <point x="142" y="830" type="curve" smooth="yes"/>
      <point x="142" y="0" type="line"/>
      <point x="322" y="0" type="line"/>
    </contour>
  </outline>
</glyph>
<glyph name="s" format="2">
  <advance width="1024"/>
  <unicode hex="0073"/>
  <note>
s
</note>
  <outline>
    <contour>
      <point x="950" y="299" type="curve" smooth="yes"/>
      <point x="950" y="403"/>
      <point x="910" y="474"/>
      <point x="834" y="529" type="curve" smooth="yes"/>
      <point x="768" y="576"/>
      <point x="601" y="625"/>
      <point x="434" y="665" type="curve" smooth="yes"/>
      <point x="310" y="695"/>
      <point x="275" y="740"/>
      <point x="275" y="814" type="curve" smooth="yes"/>
      <point x="275" y="914"/>
      <point x="350" y="963"/>
      <point x="513" y="963" type="curve" smooth="yes"/>
      <point x="660" y="963"/>
      <point x="749" y="910"/>
      <point x="769" y="814" type="curve"/>
      <point x="931" y="834" type="line"/>
      <point x="894" y="1019"/>
      <point x="752" y="1099"/>
      <point x="513" y="1099" type="curve" smooth="yes"/>
      <point x="244" y="1099"/>
      <point x="100" y="993"/>
      <point x="100" y="796" type="curve" smooth="yes"/>
      <point x="100" y="689"/>
      <point x="152" y="619"/>
      <point x="240" y="568" type="curve" smooth="yes"/>
      <point x="283" y="542"/>
      <point x="357" y="516"/>
      <point x="589" y="455" type="curve" smooth="yes"/>
      <point x="720" y="420"/>
      <point x="775" y="370"/>
      <point x="775" y="285" type="curve" smooth="yes"/>
      <point x="775" y="173"/>
      <point x="694" y="117"/>
      <point x="511" y="117" type="curve" smooth="yes"/>
      <point x="340" y="117"/>
      <point x="247" y="169"/>
      <point x="216" y="285" type="curve"/>
      <point x="57" y="254" type="line"/>
      <point x="101" y="66"/>
      <point x="242" y="-20"/>
      <point x="511" y="-20" type="curve" smooth="yes"/>
      <point x="788" y="-20"/>
      <point x="950" y="95"/>
    </contour>
  </outline>
</glyph>
<glyph name="v" format="2">
  <advance width="1024"/>
  <unicode hex="0076"/>
  <note>
v
</note>
  <outline>
    <contour>
      <point x="1017" y="1082" type="line"/>
      <point x="826" y="1082" type="line"/>
      <point x="580" y="376" type="line" smooth="yes"/>
      <point x="558" y="313"/>
      <point x="531" y="219"/>
      <point x="506" y="141" type="curve"/>
      <point x="469" y="272"/>
      <point x="446" y="351"/>
      <point x="437" y="378" type="curve" smooth="yes"/>
      <point x="199" y="1082" type="line"/>
      <point x="7" y="1082" type="line"/>
      <point x="400" y="0" type="line"/>
      <point x="613" y="0" type="line"/>
    </contour>
  </outline>
</glyph>
<glyph name="w" format="2">
  <advance width="1479"/>
  <unicode hex="0077"/>
  <note>
w
</note>
  <outline>
    <contour>
      <point x="704" y="765" type="line" smooth="yes"/>
      <point x="718" y="821"/>
      <point x="734" y="904"/>
      <point x="740" y="934" type="curve"/>
      <point x="752" y="878"/>
      <point x="762" y="821"/>
      <point x="776" y="765" type="curve" smooth="yes"/>
      <point x="965" y="0" type="line"/>
      <point x="1174" y="0" type="line"/>
      <point x="1484" y="1082" type="line"/>
      <point x="1308" y="1082" type="line"/>
      <point x="1116" y="342" type="line" smooth="yes"/>
      <point x="1102" y="288"/>
      <point x="1087" y="213"/>
      <point x="1072" y="149" type="curve"/>
      <point x="1057" y="212"/>
      <point x="1042" y="276"/>
      <point x="1026" y="339" type="curve" smooth="yes"/>
      <point x="837" y="1082" type="line"/>
      <point x="644" y="1082" type="line"/>
      <point x="447" y="336" type="line" smooth="yes"/>
      <point x="431" y="274"/>
      <point x="416" y="211"/>
      <point x="401" y="149" type="curve"/>
      <point x="388" y="221"/>
      <point x="372" y="290"/>
      <point x="361" y="333" type="curve" smooth="yes"/>
      <point x="175" y="1082" type="line"/>
      <point x="-3" y="1082" type="line"/>
      <point x="300" y="0" type="line"/>
      <point x="508" y="0" type="line"/>
    </contour>
  </outline>
</glyph>
<glyph name="x" format="2">
  <advance width="1024"/>
  <unicode hex="0078"/>
  <note>
x
</note>
  <outline>
    <contour>
      <point x="510" y="444" type="line"/>
      <point x="801" y="0" type="line"/>
      <point x="1002" y="0" type="line"/>
      <point x="612" y="558" type="line"/>
      <point x="979" y="1082" type="line"/>
      <point x="778" y="1082" type="line"/>
      <point x="510" y="661" type="line"/>
      <point x="240" y="1082" type="line"/>
      <point x="41" y="1082" type="line"/>
      <point x="408" y="556" type="line"/>
      <point x="23" y="0" type="line"/>
      <point x="217" y="0" type="line"/>
    </contour>
  </outline>
</glyph>
<glyph name="y" format="2">
  <advance width="1024"/>
  <unicode hex="0079"/>
  <note>
y
</note>
  <outline>
    <contour>
      <point x="191" y="-425" type="curve" smooth="yes"/>
      <point x="310" y="-425"/>
      <point x="402" y="-370"/>
      <point x="479" y="-257" type="curve" smooth="yes"/>
      <point x="518" y="-201"/>
      <point x="559" y="-115"/>
      <point x="604" y="0" type="curve" smooth="yes"/>
      <point x="1020" y="1082" type="line"/>
      <point x="830" y="1082" type="line"/>
      <point x="623" y="477" type="line" smooth="yes"/>
      <point x="591" y="383"/>
      <point x="556" y="290"/>
      <point x="523" y="196" type="curve"/>
      <point x="501" y="279"/>
      <point x="458" y="399"/>
      <point x="425" y="484" type="curve" smooth="yes"/>
      <point x="197" y="1082" type="line"/>
      <point x="5" y="1082" type="line"/>
      <point x="434" y="5" type="line"/>
      <point x="359" y="-215"/>
      <point x="263" y="-285"/>
      <point x="151" y="-285" type="curve" smooth="yes"/>
      <point x="120" y="-285"/>
      <point x="92" y="-283"/>
      <point x="67" y="-279" type="curve"/>
      <point x="67" y="-414" type="line"/>
      <point x="100" y="-421"/>
      <point x="142" y="-425"/>
    </contour>
  </outline>
</glyph>
<glyph name="z" format="2">
  <advance width="1024"/>
  <unicode hex="007A"/>
  <note>
z
</note>
  <outline>
    <contour>
      <point x="922" y="139" type="line"/>
      <point x="295" y="139" type="line"/>
      <point x="901" y="945" type="line"/>
      <point x="901" y="1082" type="line"/>
      <point x="117" y="1082" type="line"/>
      <point x="117" y="943" type="line"/>
      <point x="688" y="943" type="line"/>
      <point x="83" y="137" type="line"/>
      <point x="83" y="0" type="line"/>
      <point x="922" y="0" type="line"/>
    </contour>
  </outline>
</glyph>
<glyph name="braceleft" format="2">
  <advance width="684"/>
  <unicode hex="007B"/>
  <note>
braceleft
</note>
  <outline>
    <contour>
      <point x="513" y="-425" type="curve" smooth="yes"/>
      <point x="648" y="-425" type="line"/>
      <point x="648" y="-296" type="line"/>
      <point x="585" y="-296" type="line" smooth="yes"/>
      <point x="464" y="-296"/>
      <point x="417" y="-222"/>
      <point x="417" y="-81" type="curve" smooth="yes"/>
      <point x="417" y="276" type="line" smooth="yes"/>
      <point x="417" y="405"/>
      <point x="342" y="502"/>
      <point x="223" y="530" type="curve"/>
      <point x="223" y="532" type="line"/>
      <point x="340" y="560"/>
      <point x="417" y="659"/>
      <point x="417" y="784" type="curve" smooth="yes"/>
      <point x="417" y="1140" type="line" smooth="yes"/>
      <point x="417" y="1284"/>
      <point x="464" y="1355"/>
      <point x="585" y="1355" type="curve" smooth="yes"/>
      <point x="648" y="1355" type="line"/>
      <point x="648" y="1484" type="line"/>
      <point x="513" y="1484" type="line" smooth="yes"/>
      <point x="338" y="1484"/>
      <point x="249" y="1379"/>
      <point x="249" y="1191" type="curve" smooth="yes"/>
      <point x="249" y="829" type="line" smooth="yes"/>
      <point x="249" y="673"/>
      <point x="179" y="598"/>
      <point x="34" y="593" type="curve"/>
      <point x="34" y="466" type="line"/>
      <point x="181" y="459"/>
      <point x="249" y="385"/>
      <point x="249" y="229" type="curve" smooth="yes"/>
      <point x="249" y="-132" type="line" smooth="yes"/>
      <point x="249" y="-317"/>
      <point x="344" y="-425"/>
    </contour>
  </outline>
</glyph>
<glyph name="bar" format="2">
  <advance width="532"/>
  <unicode hex="007C"/>
  <note>
bar
</note>
  <outline>
    <contour>
      <point x="349" y="1484" type="line"/>
      <point x="183" y="1484" type="line"/>
      <point x="183" y="-434" type="line"/>
      <point x="349" y="-434" type="line"/>
    </contour>
  </outline>
</glyph>
<glyph name="braceright" format="2">
  <advance width="684"/>
  <unicode hex="007D"/>
  <note>
braceright
</note>
  <outline>
    <contour>
      <point x="34" y="-296" type="line"/>
      <point x="34" y="-425" type="line"/>
      <point x="166" y="-425" type="line" smooth="yes"/>
      <point x="335" y="-425"/>
      <point x="430" y="-316"/>
      <point x="430" y="-132" type="curve" smooth="yes"/>
      <point x="430" y="229" type="line" smooth="yes"/>
      <point x="430" y="385"/>
      <point x="498" y="461"/>
      <point x="647" y="466" type="curve"/>
      <point x="647" y="593" type="line"/>
      <point x="499" y="598"/>
      <point x="430" y="674"/>
      <point x="430" y="829" type="curve" smooth="yes"/>
      <point x="430" y="1191" type="line" smooth="yes"/>
      <point x="430" y="1379"/>
      <point x="341" y="1484"/>
      <point x="166" y="1484" type="curve" smooth="yes"/>
      <point x="34" y="1484" type="line"/>
      <point x="34" y="1355" type="line"/>
      <point x="94" y="1355" type="line" smooth="yes"/>
      <point x="215" y="1355"/>
      <point x="264" y="1284"/>
      <point x="264" y="1140" type="curve" smooth="yes"/>
      <point x="264" y="784" type="line" smooth="yes"/>
      <point x="264" y="655"/>
      <point x="342" y="559"/>
      <point x="457" y="532" type="curve"/>
      <point x="457" y="530" type="line"/>
      <point x="338" y="503"/>
      <point x="264" y="407"/>
      <point x="264" y="276" type="curve" smooth="yes"/>
      <point x="264" y="-81" type="line" smooth="yes"/>
      <point x="264" y="-222"/>
      <point x="215" y="-296"/>
      <point x="94" y="-296" type="curve" smooth="yes"/>
    </contour>
  </outline>
</glyph>
<glyph name="asciitilde" format="2">
  <advance width="1196"/>
  <unicode hex="007E"/>
  <note>
asciitilde
</note>
  <outline>
    <contour>
      <point x="844" y="553" type="curve" smooth="yes"/>
      <point x="957" y="553"/>
      <point x="1027" y="577"/>
      <point x="1104" y="633" type="curve"/>
      <point x="1104" y="782" type="line"/>
      <point x="1028" y="721"/>
      <point x="947" y="690"/>
      <point x="860" y="690" type="curve" smooth="yes"/>
      <point x="800" y="690"/>
      <point x="705" y="719"/>
      <point x="664" y="735" type="curve" smooth="yes"/>
      <point x="577" y="766"/>
      <point x="513" y="785"/>
      <point x="471" y="794" type="curve" smooth="yes"/>
      <point x="428" y="803"/>
      <point x="390" y="807"/>
      <point x="355" y="807" type="curve" smooth="yes"/>
      <point x="254" y="807"/>
      <point x="166" y="779"/>
      <point x="92" y="723" type="curve"/>
      <point x="92" y="580" type="line"/>
      <point x="179" y="643"/>
      <point x="251" y="668"/>
      <point x="340" y="668" type="curve" smooth="yes"/>
      <point x="399" y="668"/>
      <point x="471" y="653"/>
      <point x="557" y="623" type="curve" smooth="yes"/>
      <point x="654" y="588"/>
      <point x="752" y="553"/>
    </contour>
  </outline>
</glyph>
<glyph name="exclamdown" format="2">
  <advance width="682"/>
  <unicode hex="00A1"/>
  <note>
exclamdown
</note>
  <outline>
    <contour>
      <point x="440" y="1082" type="line"/>
      <point x="246" y="1082" type="line"/>
      <point x="246" y="881" type="line"/>
      <point x="440" y="881" type="line"/>
    </contour>
    <contour>
      <point x="242" y="-327" type="line"/>
      <point x="438" y="-327" type="line"/>
      <point x="414" y="685" type="line"/>
      <point x="266" y="685" type="line"/>
    </contour>
  </outline>
</glyph>
<glyph name="cent" format="2">
  <advance width="1139"/>
  <unicode hex="00A2"/>
  <note>
cent
</note>
  <outline>
    <contour>
      <point x="596" y="277" type="curve" smooth="yes"/>
      <point x="413" y="277"/>
      <point x="323" y="413"/>
      <point x="323" y="701" type="curve" smooth="yes"/>
      <point x="323" y="1001"/>
      <point x="403" y="1116"/>
      <point x="594" y="1116" type="curve" smooth="yes"/>
      <point x="734" y="1116"/>
      <point x="808" y="1040"/>
      <point x="827" y="920" type="curve"/>
      <point x="1012" y="934" type="line"/>
      <point x="976" y="1119"/>
      <point x="853" y="1234"/>
      <point x="662" y="1254" type="curve"/>
      <point x="662" y="1409" type="line"/>
      <point x="538" y="1409" type="line"/>
      <point x="538" y="1254" type="line"/>
      <point x="273" y="1231"/>
      <point x="135" y="1034"/>
      <point x="135" y="697" type="curve" smooth="yes"/>
      <point x="135" y="354"/>
      <point x="273" y="161"/>
      <point x="538" y="137" type="curve"/>
      <point x="538" y="-31" type="line"/>
      <point x="662" y="-31" type="line"/>
      <point x="662" y="137" type="line"/>
      <point x="858" y="156"/>
      <point x="993" y="285"/>
      <point x="1018" y="477" type="curve"/>
      <point x="836" y="489" type="line"/>
      <point x="816" y="345"/>
      <point x="724" y="277"/>
    </contour>
  </outline>
</glyph>
<glyph name="currency" format="2">
  <advance width="1139"/>
  <unicode hex="00A4"/>
  <note>
currency
</note>
  <outline>
    <contour>
      <point x="137" y="684" type="curve" smooth="yes"/>
      <point x="137" y="592"/>
      <point x="163" y="508"/>
      <point x="215" y="432" type="curve"/>
      <point x="113" y="330" type="line"/>
      <point x="215" y="225" type="line"/>
      <point x="320" y="330" type="line"/>
      <point x="393" y="277"/>
      <point x="477" y="250"/>
      <point x="572" y="250" type="curve" smooth="yes"/>
      <point x="663" y="250"/>
      <point x="747" y="276"/>
      <point x="823" y="328" type="curve"/>
      <point x="924" y="227" type="line"/>
      <point x="1026" y="332" type="line"/>
      <point x="926" y="432" type="line"/>
      <point x="981" y="508"/>
      <point x="1008" y="592"/>
      <point x="1008" y="684" type="curve" smooth="yes"/>
      <point x="1008" y="774"/>
      <point x="981" y="858"/>
      <point x="928" y="936" type="curve"/>
      <point x="1024" y="1032" type="line"/>
      <point x="920" y="1137" type="line"/>
      <point x="823" y="1040" type="line"/>
      <point x="747" y="1093"/>
      <point x="663" y="1120"/>
      <point x="572" y="1120" type="curve" smooth="yes"/>
      <point x="479" y="1120"/>
      <point x="394" y="1093"/>
      <point x="318" y="1038" type="curve"/>
      <point x="219" y="1139" type="line"/>
      <point x="115" y="1036" type="line"/>
      <point x="215" y="936" type="line"/>
      <point x="163" y="860"/>
      <point x="137" y="776"/>
    </contour>
    <contour>
      <point x="291" y="686" type="curve" smooth="yes"/>
      <point x="291" y="843"/>
      <point x="421" y="967"/>
      <point x="572" y="967" type="curve" smooth="yes"/>
      <point x="723" y="967"/>
      <point x="852" y="842"/>
      <point x="852" y="686" type="curve" smooth="yes"/>
      <point x="852" y="529"/>
      <point x="724" y="406"/>
      <point x="572" y="406" type="curve" smooth="yes"/>
      <point x="419" y="406"/>
      <point x="291" y="530"/>
    </contour>
  </outline>
</glyph>
<glyph name="yen" format="2">
  <advance width="1139"/>
  <unicode hex="00A5"/>
  <note>
yen
</note>
  <outline>
    <contour>
      <point x="658" y="303" type="line"/>
      <point x="1041" y="303" type="line"/>
      <point x="1041" y="430" type="line"/>
      <point x="658" y="430" type="line"/>
      <point x="658" y="584" type="line"/>
      <point x="1041" y="584" type="line"/>
      <point x="1041" y="709" type="line"/>
      <point x="720" y="709" type="line"/>
      <point x="1142" y="1409" type="line"/>
      <point x="943" y="1409" type="line"/>
      <point x="568" y="762" type="line"/>
      <point x="197" y="1409" type="line"/>
      <point x="-2" y="1409" type="line"/>
      <point x="419" y="709" type="line"/>
      <point x="99" y="709" type="line"/>
      <point x="99" y="584" type="line"/>
      <point x="482" y="584" type="line"/>
      <point x="480" y="430" type="line"/>
      <point x="99" y="430" type="line"/>
      <point x="99" y="303" type="line"/>
      <point x="480" y="303" type="line"/>
      <point x="480" y="0" type="line"/>
      <point x="658" y="0" type="line"/>
    </contour>
  </outline>
</glyph>
<glyph name="brokenbar" format="2">
  <advance width="532"/>
  <unicode hex="00A6"/>
  <note>
brokenbar
</note>
  <outline>
    <contour>
      <point x="349" y="1484" type="line"/>
      <point x="183" y="1484" type="line"/>
      <point x="183" y="706" type="line"/>
      <point x="349" y="706" type="line"/>
    </contour>
    <contour>
      <point x="349" y="345" type="line"/>
      <point x="183" y="345" type="line"/>
      <point x="183" y="-434" type="line"/>
      <point x="349" y="-434" type="line"/>
    </contour>
  </outline>
</glyph>
<glyph name="section" format="2">
  <advance width="1139"/>
  <unicode hex="00A7"/>
  <note>
section
</note>
  <outline>
    <contour>
      <point x="588" y="1484" type="curve"/>
      <point x="317" y="1484"/>
      <point x="174" y="1375"/>
      <point x="174" y="1190" type="curve" smooth="yes"/>
      <point x="174" y="1075"/>
      <point x="253" y="981"/>
      <point x="381" y="938" type="curve"/>
      <point x="241" y="898"/>
      <point x="153" y="790"/>
      <point x="153" y="671" type="curve" smooth="yes"/>
      <point x="153" y="522"/>
      <point x="259" y="418"/>
      <point x="518" y="358" type="curve" smooth="yes"/>
      <point x="619" y="333"/>
      <point x="690" y="311"/>
      <point x="731" y="292" type="curve" smooth="yes"/>
      <point x="813" y="253"/>
      <point x="858" y="205"/>
      <point x="858" y="129" type="curve" smooth="yes"/>
      <point x="858" y="20"/>
      <point x="758" y="-41"/>
      <point x="577" y="-41" type="curve" smooth="yes"/>
      <point x="384" y="-41"/>
      <point x="303" y="11"/>
      <point x="276" y="131" type="curve"/>
      <point x="115" y="100" type="line"/>
      <point x="160" y="-85"/>
      <point x="298" y="-172"/>
      <point x="577" y="-172" type="curve" smooth="yes"/>
      <point x="857" y="-172"/>
      <point x="1018" y="-52"/>
      <point x="1018" y="145" type="curve" smooth="yes"/>
      <point x="1018" y="266"/>
      <point x="954" y="349"/>
      <point x="805" y="413" type="curve"/>
      <point x="938" y="445"/>
      <point x="1024" y="554"/>
      <point x="1024" y="686" type="curve" smooth="yes"/>
      <point x="1024" y="794"/>
      <point x="964" y="871"/>
      <point x="860" y="927" type="curve" smooth="yes"/>
      <point x="808" y="954"/>
      <point x="733" y="980"/>
      <point x="635" y="1003" type="curve" smooth="yes"/>
      <point x="548" y="1024"/>
      <point x="487" y="1043"/>
      <point x="450" y="1060" type="curve" smooth="yes"/>
      <point x="376" y="1095"/>
      <point x="334" y="1140"/>
      <point x="334" y="1204" type="curve" smooth="yes"/>
      <point x="334" y="1299"/>
      <point x="421" y="1354"/>
      <point x="588" y="1354" type="curve" smooth="yes"/>
      <point x="738" y="1354"/>
      <point x="822" y="1304"/>
      <point x="840" y="1204" type="curve"/>
      <point x="1001" y="1224" type="line"/>
      <point x="965" y="1393"/>
      <point x="819" y="1484"/>
    </contour>
    <contour>
      <point x="866" y="663" type="curve" smooth="yes"/>
      <point x="866" y="550"/>
      <point x="771" y="478"/>
      <point x="612" y="475" type="curve"/>
      <point x="526" y="497"/>
      <point x="465" y="517"/>
      <point x="428" y="535" type="curve" smooth="yes"/>
      <point x="354" y="571"/>
      <point x="313" y="619"/>
      <point x="313" y="684" type="curve" smooth="yes"/>
      <point x="313" y="796"/>
      <point x="406" y="872"/>
      <point x="551" y="880" type="curve"/>
      <point x="668" y="853"/>
      <point x="750" y="822"/>
      <point x="797" y="787" type="curve" smooth="yes"/>
      <point x="843" y="752"/>
      <point x="866" y="711"/>
    </contour>
  </outline>
</glyph>
<glyph name="dieresis" format="2">
  <advance width="682"/>
  <unicode hex="00A8"/>
  <note>
dieresis
</note>
  <outline>
    <contour>
      <point x="602" y="1403" type="line"/>
      <point x="439" y="1403" type="line"/>
      <point x="439" y="1219" type="line"/>
      <point x="602" y="1219" type="line"/>
    </contour>
    <contour>
      <point x="210" y="1403" type="line"/>
      <point x="45" y="1403" type="line"/>
      <point x="45" y="1219" type="line"/>
      <point x="210" y="1219" type="line"/>
    </contour>
  </outline>
</glyph>
<glyph name="copyright" format="2">
  <advance width="1509"/>
  <unicode hex="00A9"/>
  <note>
copyright
</note>
  <outline>
    <contour>
      <point x="1477" y="707" type="curve" smooth="yes"/>
      <point x="1477" y="966"/>
      <point x="1341" y="1203"/>
      <point x="1117" y="1333" type="curve" smooth="yes"/>
      <point x="1004" y="1398"/>
      <point x="883" y="1430"/>
      <point x="754" y="1430" type="curve" smooth="yes"/>
      <point x="497" y="1430"/>
      <point x="257" y="1292"/>
      <point x="128" y="1068" type="curve" smooth="yes"/>
      <point x="63" y="956"/>
      <point x="31" y="836"/>
      <point x="31" y="707" type="curve" smooth="yes"/>
      <point x="31" y="455"/>
      <point x="162" y="219"/>
      <point x="388" y="85" type="curve" smooth="yes"/>
      <point x="501" y="18"/>
      <point x="623" y="-16"/>
      <point x="754" y="-16" type="curve" smooth="yes"/>
      <point x="1011" y="-16"/>
      <point x="1252" y="121"/>
      <point x="1381" y="346" type="curve" smooth="yes"/>
      <point x="1445" y="458"/>
      <point x="1477" y="578"/>
    </contour>
    <contour>
      <point x="1385" y="707" type="curve" smooth="yes"/>
      <point x="1385" y="482"/>
      <point x="1266" y="274"/>
      <point x="1070" y="162" type="curve" smooth="yes"/>
      <point x="972" y="106"/>
      <point x="867" y="78"/>
      <point x="754" y="78" type="curve" smooth="yes"/>
      <point x="529" y="78"/>
      <point x="323" y="197"/>
      <point x="211" y="392" type="curve" smooth="yes"/>
      <point x="154" y="489"/>
      <point x="126" y="594"/>
      <point x="126" y="707" type="curve" smooth="yes"/>
      <point x="126" y="930"/>
      <point x="245" y="1138"/>
      <point x="440" y="1251" type="curve" smooth="yes"/>
      <point x="537" y="1307"/>
      <point x="642" y="1335"/>
      <point x="754" y="1335" type="curve" smooth="yes"/>
      <point x="981" y="1335"/>
      <point x="1189" y="1213"/>
      <point x="1301" y="1021" type="curve" smooth="yes"/>
      <point x="1357" y="924"/>
      <point x="1385" y="820"/>
    </contour>
    <contour>
      <point x="498" y="709" type="curve" smooth="yes"/>
      <point x="498" y="920"/>
      <point x="591" y="1028"/>
      <point x="760" y="1028" type="curve" smooth="yes"/>
      <point x="861" y="1028"/>
      <point x="941" y="983"/>
      <point x="984" y="891" type="curve"/>
      <point x="1098" y="924" type="line"/>
      <point x="1034" y="1063"/>
      <point x="921" y="1133"/>
      <point x="758" y="1133" type="curve" smooth="yes"/>
      <point x="506" y="1133"/>
      <point x="369" y="980"/>
      <point x="369" y="709" type="curve" smooth="yes"/>
      <point x="369" y="437"/>
      <point x="514" y="279"/>
      <point x="765" y="279" type="curve" smooth="yes"/>
      <point x="921" y="279"/>
      <point x="1030" y="343"/>
      <point x="1113" y="504" type="curve"/>
      <point x="998" y="539" type="line"/>
      <point x="948" y="435"/>
      <point x="870" y="383"/>
      <point x="765" y="383" type="curve" smooth="yes"/>
      <point x="598" y="383"/>
      <point x="498" y="502"/>
    </contour>
  </outline>
</glyph>
<glyph name="ordfeminine" format="2">
  <advance width="758"/>
  <unicode hex="00AA"/>
  <note>
ordfeminine
</note>
  <outline>
    <contour>
      <point x="260" y="651" type="curve" smooth="yes"/>
      <point x="385" y="651"/>
      <point x="471" y="700"/>
      <point x="520" y="798" type="curve"/>
      <point x="524" y="798" type="line"/>
      <point x="529" y="711"/>
      <point x="585" y="657"/>
      <point x="682" y="657" type="curve" smooth="yes"/>
      <point x="705" y="657"/>
      <point x="732" y="661"/>
      <point x="765" y="670" type="curve"/>
      <point x="765" y="774" type="line"/>
      <point x="749" y="769"/>
      <point x="735" y="766"/>
      <point x="722" y="766" type="curve" smooth="yes"/>
      <point x="675" y="766"/>
      <point x="659" y="797"/>
      <point x="659" y="874" type="curve" smooth="yes"/>
      <point x="659" y="1182" type="line" smooth="yes"/>
      <point x="659" y="1349"/>
      <point x="556" y="1432"/>
      <point x="363" y="1432" type="curve" smooth="yes"/>
      <point x="191" y="1432"/>
      <point x="80" y="1347"/>
      <point x="59" y="1206" type="curve"/>
      <point x="208" y="1196" type="line"/>
      <point x="220" y="1297"/>
      <point x="276" y="1331"/>
      <point x="365" y="1331" type="curve" smooth="yes"/>
      <point x="473" y="1331"/>
      <point x="516" y="1284"/>
      <point x="516" y="1176" type="curve" smooth="yes"/>
      <point x="516" y="1116" type="line"/>
      <point x="338" y="1112" type="line" smooth="yes"/>
      <point x="131" y="1109"/>
      <point x="26" y="1025"/>
      <point x="26" y="870" type="curve" smooth="yes"/>
      <point x="26" y="733"/>
      <point x="116" y="651"/>
    </contour>
    <contour>
      <point x="299" y="762" type="curve" smooth="yes"/>
      <point x="217" y="762"/>
      <point x="176" y="802"/>
      <point x="176" y="883" type="curve" smooth="yes"/>
      <point x="176" y="970"/>
      <point x="221" y="1012"/>
      <point x="378" y="1020" type="curve" smooth="yes"/>
      <point x="516" y="1024" type="line"/>
      <point x="516" y="959" type="line" smooth="yes"/>
      <point x="516" y="854"/>
      <point x="419" y="762"/>
    </contour>
  </outline>
</glyph>
<glyph name="guillemotleft" format="2">
  <advance width="1139"/>
  <unicode hex="00AB"/>
  <note>
guillemotleft
</note>
  <outline>
    <contour>
      <point x="1056" y="170" type="line"/>
      <point x="716" y="537" type="line"/>
      <point x="1054" y="909" type="line"/>
      <point x="1054" y="940" type="line"/>
      <point x="886" y="940" type="line"/>
      <point x="548" y="569" type="line"/>
      <point x="548" y="506" type="line"/>
      <point x="886" y="141" type="line"/>
      <point x="1056" y="141" type="line"/>
    </contour>
    <contour>
      <point x="588" y="170" type="line"/>
      <point x="251" y="537" type="line"/>
      <point x="586" y="909" type="line"/>
      <point x="586" y="940" type="line"/>
      <point x="419" y="940" type="line"/>
      <point x="83" y="569" type="line"/>
      <point x="83" y="506" type="line"/>
      <point x="419" y="141" type="line"/>
      <point x="588" y="141" type="line"/>
    </contour>
  </outline>
</glyph>
<glyph name="registered" format="2">
  <advance width="1509"/>
  <unicode hex="00AE"/>
  <note>
registered
</note>
  <outline>
    <contour>
      <point x="1477" y="707" type="curve" smooth="yes"/>
      <point x="1477" y="966"/>
      <point x="1341" y="1203"/>
      <point x="1117" y="1333" type="curve" smooth="yes"/>
      <point x="1004" y="1398"/>
      <point x="883" y="1430"/>
      <point x="754" y="1430" type="curve" smooth="yes"/>
      <point x="497" y="1430"/>
      <point x="257" y="1292"/>
      <point x="128" y="1068" type="curve" smooth="yes"/>
      <point x="63" y="956"/>
      <point x="31" y="836"/>
      <point x="31" y="707" type="curve" smooth="yes"/>
      <point x="31" y="455"/>
      <point x="162" y="219"/>
      <point x="388" y="85" type="curve" smooth="yes"/>
      <point x="501" y="18"/>
      <point x="623" y="-16"/>
      <point x="754" y="-16" type="curve" smooth="yes"/>
      <point x="1011" y="-16"/>
      <point x="1252" y="121"/>
      <point x="1381" y="346" type="curve" smooth="yes"/>
      <point x="1445" y="458"/>
      <point x="1477" y="578"/>
    </contour>
    <contour>
      <point x="1385" y="707" type="curve" smooth="yes"/>
      <point x="1385" y="482"/>
      <point x="1266" y="274"/>
      <point x="1070" y="162" type="curve" smooth="yes"/>
      <point x="972" y="106"/>
      <point x="867" y="78"/>
      <point x="754" y="78" type="curve" smooth="yes"/>
      <point x="529" y="78"/>
      <point x="323" y="197"/>
      <point x="211" y="392" type="curve" smooth="yes"/>
      <point x="154" y="489"/>
      <point x="126" y="594"/>
      <point x="126" y="707" type="curve" smooth="yes"/>
      <point x="126" y="930"/>
      <point x="245" y="1138"/>
      <point x="440" y="1251" type="curve" smooth="yes"/>
      <point x="537" y="1307"/>
      <point x="642" y="1335"/>
      <point x="754" y="1335" type="curve" smooth="yes"/>
      <point x="981" y="1335"/>
      <point x="1189" y="1213"/>
      <point x="1301" y="1021" type="curve" smooth="yes"/>
      <point x="1357" y="924"/>
      <point x="1385" y="820"/>
    </contour>
    <contour>
      <point x="595" y="625" type="line"/>
      <point x="756" y="625" type="line"/>
      <point x="955" y="289" type="line"/>
      <point x="1100" y="289" type="line"/>
      <point x="879" y="639" type="line"/>
      <point x="992" y="664"/>
      <point x="1068" y="747"/>
      <point x="1068" y="883" type="curve" smooth="yes"/>
      <point x="1068" y="1031"/>
      <point x="964" y="1120"/>
      <point x="775" y="1120" type="curve" smooth="yes"/>
      <point x="468" y="1120" type="line"/>
      <point x="468" y="289" type="line"/>
      <point x="595" y="289" type="line"/>
    </contour>
    <contour>
      <point x="941" y="881" type="curve" smooth="yes"/>
      <point x="941" y="781"/>
      <point x="884" y="721"/>
      <point x="777" y="721" type="curve" smooth="yes"/>
      <point x="595" y="721" type="line"/>
      <point x="595" y="1022" type="line"/>
      <point x="765" y="1022" type="line" smooth="yes"/>
      <point x="873" y="1022"/>
      <point x="941" y="973"/>
    </contour>
  </outline>
</glyph>
<glyph name="degree" format="2">
  <advance width="819"/>
  <unicode hex="00B0"/>
  <note>
degree
</note>
  <outline>
    <contour>
      <point x="696" y="1145" type="curve" smooth="yes"/>
      <point x="696" y="1304"/>
      <point x="569" y="1430"/>
      <point x="409" y="1430" type="curve" smooth="yes"/>
      <point x="249" y="1430"/>
      <point x="122" y="1301"/>
      <point x="122" y="1145" type="curve" smooth="yes"/>
      <point x="122" y="989"/>
      <point x="252" y="860"/>
      <point x="409" y="860" type="curve" smooth="yes"/>
      <point x="566" y="860"/>
      <point x="696" y="986"/>
    </contour>
    <contour>
      <point x="587" y="1145" type="curve" smooth="yes"/>
      <point x="587" y="1045"/>
      <point x="508" y="965"/>
      <point x="409" y="965" type="curve" smooth="yes"/>
      <point x="312" y="965"/>
      <point x="231" y="1046"/>
      <point x="231" y="1145" type="curve" smooth="yes"/>
      <point x="231" y="1244"/>
      <point x="309" y="1325"/>
      <point x="409" y="1325" type="curve" smooth="yes"/>
      <point x="509" y="1325"/>
      <point x="587" y="1246"/>
    </contour>
  </outline>
</glyph>
<glyph name="twosuperior" format="2">
  <advance width="682"/>
  <unicode hex="00B2"/>
  <note>
twosuperior
</note>
  <outline>
    <contour>
      <point x="643" y="676" type="line"/>
      <point x="200" y="676" type="line"/>
      <point x="213" y="706"/>
      <point x="237" y="736"/>
      <point x="270" y="767" type="curve" smooth="yes"/>
      <point x="303" y="798"/>
      <point x="361" y="843"/>
      <point x="442" y="903" type="curve" smooth="yes"/>
      <point x="567" y="995"/>
      <point x="630" y="1090"/>
      <point x="630" y="1188" type="curve" smooth="yes"/>
      <point x="630" y="1335"/>
      <point x="523" y="1421"/>
      <point x="354" y="1421" type="curve" smooth="yes"/>
      <point x="182" y="1421"/>
      <point x="68" y="1325"/>
      <point x="51" y="1182" type="curve"/>
      <point x="184" y="1174" type="line"/>
      <point x="195" y="1265"/>
      <point x="257" y="1315"/>
      <point x="348" y="1315" type="curve" smooth="yes"/>
      <point x="447" y="1315"/>
      <point x="493" y="1261"/>
      <point x="493" y="1178" type="curve" smooth="yes"/>
      <point x="493" y="1101"/>
      <point x="437" y="1031"/>
      <point x="308" y="940" type="curve" smooth="yes"/>
      <point x="165" y="841"/>
      <point x="82" y="758"/>
      <point x="41" y="666" type="curve"/>
      <point x="43" y="563" type="line"/>
      <point x="643" y="563" type="line"/>
    </contour>
  </outline>
</glyph>
<glyph name="threesuperior" format="2">
  <advance width="682"/>
  <unicode hex="00B3"/>
  <note>
threesuperior
</note>
  <outline>
    <contour>
      <point x="642" y="795" type="curve" smooth="yes"/>
      <point x="642" y="912"/>
      <point x="566" y="985"/>
      <point x="445" y="997" type="curve"/>
      <point x="445" y="999" type="line"/>
      <point x="565" y="1026"/>
      <point x="621" y="1104"/>
      <point x="621" y="1204" type="curve" smooth="yes"/>
      <point x="621" y="1335"/>
      <point x="516" y="1421"/>
      <point x="343" y="1421" type="curve" smooth="yes"/>
      <point x="174" y="1421"/>
      <point x="63" y="1337"/>
      <point x="46" y="1192" type="curve"/>
      <point x="181" y="1180" type="line"/>
      <point x="189" y="1267"/>
      <point x="248" y="1315"/>
      <point x="339" y="1315" type="curve" smooth="yes"/>
      <point x="434" y="1315"/>
      <point x="484" y="1266"/>
      <point x="484" y="1186" type="curve" smooth="yes"/>
      <point x="484" y="1099"/>
      <point x="419" y="1049"/>
      <point x="312" y="1049" type="curve" smooth="yes"/>
      <point x="255" y="1049" type="line"/>
      <point x="255" y="940" type="line"/>
      <point x="316" y="940" type="line" smooth="yes"/>
      <point x="442" y="940"/>
      <point x="505" y="894"/>
      <point x="505" y="803" type="curve" smooth="yes"/>
      <point x="505" y="704"/>
      <point x="452" y="655"/>
      <point x="345" y="655" type="curve" smooth="yes"/>
      <point x="236" y="655"/>
      <point x="175" y="700"/>
      <point x="163" y="791" type="curve"/>
      <point x="27" y="778" type="line"/>
      <point x="48" y="627"/>
      <point x="154" y="551"/>
      <point x="345" y="551" type="curve" smooth="yes"/>
      <point x="534" y="551"/>
      <point x="642" y="640"/>
    </contour>
  </outline>
</glyph>
<glyph name="acute" format="2">
  <advance width="682"/>
  <unicode hex="00B4"/>
  <note>
acute
</note>
  <outline>
    <contour>
      <point x="496" y="1479" type="line"/>
      <point x="496" y="1508" type="line"/>
      <point x="289" y="1508" type="line"/>
      <point x="72" y="1221" type="line"/>
      <point x="72" y="1201" type="line"/>
      <point x="166" y="1201" type="line"/>
    </contour>
  </outline>
</glyph>
<glyph name="mu1" format="2">
  <advance width="1180"/>
  <unicode hex="00B5"/>
  <note>
mu1
</note>
  <outline>
    <contour>
      <point x="140" y="-425" type="line"/>
      <point x="320" y="-425" type="line"/>
      <point x="320" y="59" type="line"/>
      <point x="361" y="8"/>
      <point x="438" y="-20"/>
      <point x="527" y="-20" type="curve" smooth="yes"/>
      <point x="656" y="-20"/>
      <point x="755" y="45"/>
      <point x="826" y="174" type="curve"/>
      <point x="829" y="174" type="line"/>
      <point x="836" y="41"/>
      <point x="899" y="-20"/>
      <point x="1020" y="-20" type="curve" smooth="yes"/>
      <point x="1052" y="-20"/>
      <point x="1090" y="-13"/>
      <point x="1133" y="0" type="curve"/>
      <point x="1133" y="129" type="line"/>
      <point x="1114" y="124"/>
      <point x="1096" y="121"/>
      <point x="1079" y="121" type="curve" smooth="yes"/>
      <point x="1023" y="121"/>
      <point x="1001" y="165"/>
      <point x="1001" y="266" type="curve" smooth="yes"/>
      <point x="1001" y="1082" type="line"/>
      <point x="821" y="1082" type="line"/>
      <point x="821" y="455" type="line" smooth="yes"/>
      <point x="821" y="239"/>
      <point x="718" y="119"/>
      <point x="547" y="119" type="curve" smooth="yes"/>
      <point x="388" y="119"/>
      <point x="321" y="212"/>
      <point x="321" y="396" type="curve" smooth="yes"/>
      <point x="321" y="1082" type="line"/>
      <point x="140" y="1082" type="line"/>
    </contour>
  </outline>
</glyph>
<glyph name="paragraph" format="2">
  <advance width="1100"/>
  <unicode hex="00B6"/>
  <note>
paragraph
</note>
  <outline>
    <contour>
      <point x="555" y="1307" type="line"/>
      <point x="772" y="1307" type="line"/>
      <point x="772" y="-264" type="line"/>
      <point x="884" y="-264" type="line"/>
      <point x="884" y="1307" type="line"/>
      <point x="1013" y="1307" type="line"/>
      <point x="1013" y="1409" type="line"/>
      <point x="450" y="1409" type="line" smooth="yes"/>
      <point x="219" y="1409"/>
      <point x="80" y="1274"/>
      <point x="80" y="1049" type="curve" smooth="yes"/>
      <point x="80" y="822"/>
      <point x="218" y="694"/>
      <point x="442" y="694" type="curve"/>
      <point x="442" y="-264" type="line"/>
      <point x="555" y="-264" type="line"/>
    </contour>
  </outline>
</glyph>
<glyph name="middot" format="2">
  <advance width="682"/>
  <unicode hex="00B7"/>
  <note>
middot
</note>
  <outline>
    <contour>
      <point x="438" y="666" type="line"/>
      <point x="243" y="666" type="line"/>
      <point x="243" y="446" type="line"/>
      <point x="438" y="446" type="line"/>
    </contour>
  </outline>
</glyph>
<glyph name="cedilla" format="2">
  <advance width="682"/>
  <unicode hex="00B8"/>
  <note>
cedilla
</note>
  <outline>
    <contour>
      <point x="483" y="-253" type="curve" smooth="yes"/>
      <point x="483" y="-161"/>
      <point x="420" y="-104"/>
      <point x="295" y="-100" type="curve"/>
      <point x="334" y="0" type="line"/>
      <point x="227" y="0" type="line"/>
      <point x="162" y="-182" type="line"/>
      <point x="171" y="-181"/>
      <point x="190" y="-180"/>
      <point x="219" y="-180" type="curve" smooth="yes"/>
      <point x="308" y="-180"/>
      <point x="352" y="-206"/>
      <point x="352" y="-257" type="curve" smooth="yes"/>
      <point x="352" y="-311"/>
      <point x="303" y="-338"/>
      <point x="205" y="-338" type="curve" smooth="yes"/>
      <point x="180" y="-338"/>
      <point x="152" y="-336"/>
      <point x="119" y="-332" type="curve"/>
      <point x="119" y="-430" type="line"/>
      <point x="141" y="-433"/>
      <point x="171" y="-434"/>
      <point x="209" y="-434" type="curve" smooth="yes"/>
      <point x="392" y="-434"/>
      <point x="483" y="-374"/>
    </contour>
  </outline>
</glyph>
<glyph name="onesuperior" format="2">
  <advance width="682"/>
  <unicode hex="00B9"/>
  <note>
onesuperior
</note>
  <outline>
    <contour>
      <point x="637" y="670" type="line"/>
      <point x="422" y="670" type="line"/>
      <point x="422" y="1409" type="line"/>
      <point x="299" y="1409" type="line"/>
      <point x="89" y="1272" type="line"/>
      <point x="89" y="1152" type="line"/>
      <point x="291" y="1290" type="line"/>
      <point x="291" y="670" type="line"/>
      <point x="80" y="670" type="line"/>
      <point x="80" y="563" type="line"/>
      <point x="637" y="563" type="line"/>
    </contour>
  </outline>
</glyph>
<glyph name="ordmasculine" format="2">
  <advance width="748"/>
  <unicode hex="00BA"/>
  <note>
ordmasculine
</note>
  <outline>
    <contour>
      <point x="723" y="1042" type="curve" smooth="yes"/>
      <point x="723" y="1302"/>
      <point x="607" y="1432"/>
      <point x="376" y="1432" type="curve" smooth="yes"/>
      <point x="148" y="1432"/>
      <point x="27" y="1294"/>
      <point x="27" y="1042" type="curve" smooth="yes"/>
      <point x="27" y="789"/>
      <point x="148" y="651"/>
      <point x="372" y="651" type="curve" smooth="yes"/>
      <point x="605" y="651"/>
      <point x="723" y="791"/>
    </contour>
    <contour>
      <point x="574" y="1042" type="curve" smooth="yes"/>
      <point x="574" y="845"/>
      <point x="519" y="756"/>
      <point x="371" y="756" type="curve" smooth="yes"/>
      <point x="236" y="756"/>
      <point x="179" y="849"/>
      <point x="179" y="1042" type="curve" smooth="yes"/>
      <point x="179" y="1242"/>
      <point x="235" y="1327"/>
      <point x="379" y="1327" type="curve" smooth="yes"/>
      <point x="518" y="1327"/>
      <point x="574" y="1247"/>
    </contour>
  </outline>
</glyph>
<glyph name="guillemotright" format="2">
  <advance width="1139"/>
  <unicode hex="00BB"/>
  <note>
guillemotright
</note>
  <outline>
    <contour>
      <point x="718" y="141" type="line"/>
      <point x="1056" y="506" type="line"/>
      <point x="1056" y="569" type="line"/>
      <point x="718" y="940" type="line"/>
      <point x="552" y="940" type="line"/>
      <point x="552" y="909" type="line"/>
      <point x="888" y="537" type="line"/>
      <point x="550" y="170" type="line"/>
      <point x="550" y="141" type="line"/>
    </contour>
    <contour>
      <point x="253" y="141" type="line"/>
      <point x="588" y="506" type="line"/>
      <point x="588" y="569" type="line"/>
      <point x="253" y="940" type="line"/>
      <point x="85" y="940" type="line"/>
      <point x="85" y="909" type="line"/>
      <point x="421" y="537" type="line"/>
      <point x="83" y="170" type="line"/>
      <point x="83" y="141" type="line"/>
    </contour>
  </outline>
</glyph>
<glyph name="questiondown" format="2">
  <advance width="1251"/>
  <unicode hex="00BF"/>
  <note>
questiondown
</note>
  <outline>
    <contour>
      <point x="756" y="1082" type="line"/>
      <point x="561" y="1082" type="line"/>
      <point x="561" y="881" type="line"/>
      <point x="756" y="881" type="line"/>
    </contour>
    <contour>
      <point x="131" y="50" type="curve" smooth="yes"/>
      <point x="131" y="-199"/>
      <point x="313" y="-348"/>
      <point x="610" y="-348" type="curve" smooth="yes"/>
      <point x="895" y="-348"/>
      <point x="1075" y="-202"/>
      <point x="1110" y="62" type="curve"/>
      <point x="926" y="74" type="line"/>
      <point x="907" y="-89"/>
      <point x="795" y="-188"/>
      <point x="608" y="-188" type="curve" smooth="yes"/>
      <point x="421" y="-188"/>
      <point x="313" y="-94"/>
      <point x="313" y="58" type="curve" smooth="yes"/>
      <point x="313" y="212"/>
      <point x="413" y="279"/>
      <point x="527" y="361" type="curve" smooth="yes"/>
      <point x="634" y="437"/>
      <point x="743" y="521"/>
      <point x="748" y="705" type="curve"/>
      <point x="573" y="705" type="line"/>
      <point x="572" y="614"/>
      <point x="526" y="539"/>
      <point x="431" y="470" type="curve" smooth="yes"/>
      <point x="350" y="411" type="line" smooth="yes"/>
      <point x="191" y="295"/>
      <point x="131" y="201"/>
    </contour>
  </outline>
</glyph>
<glyph name="AE" format="2">
  <advance width="2048"/>
  <unicode hex="00C6"/>
  <note>
AE
</note>
  <outline>
    <contour>
      <point x="421" y="412" type="line"/>
      <point x="969" y="412" type="line"/>
      <point x="969" y="0" type="line"/>
      <point x="1960" y="0" type="line"/>
      <point x="1960" y="156" type="line"/>
      <point x="1160" y="156" type="line"/>
      <point x="1160" y="647" type="line"/>
      <point x="1859" y="647" type="line"/>
      <point x="1859" y="801" type="line"/>
      <point x="1160" y="801" type="line"/>
      <point x="1160" y="1253" type="line"/>
      <point x="1919" y="1253" type="line"/>
      <point x="1919" y="1409" type="line"/>
      <point x="710" y="1409" type="line"/>
      <point x="24" y="0" type="line"/>
      <point x="223" y="0" type="line"/>
    </contour>
    <contour>
      <point x="491" y="561" type="line"/>
      <point x="818" y="1262" type="line"/>
      <point x="969" y="1262" type="line"/>
      <point x="969" y="561" type="line"/>
    </contour>
  </outline>
</glyph>
<glyph name="Eth" format="2">
  <advance width="1479"/>
  <unicode hex="00D0"/>
  <note>
Eth
</note>
  <outline>
    <contour>
      <point x="1381" y="719" type="curve" smooth="yes"/>
      <point x="1381" y="1160"/>
      <point x="1111" y="1409"/>
      <point x="634" y="1409" type="curve" smooth="yes"/>
      <point x="168" y="1409" type="line"/>
      <point x="168" y="801" type="line"/>
      <point x="14" y="801" type="line"/>
      <point x="14" y="647" type="line"/>
      <point x="168" y="647" type="line"/>
      <point x="168" y="0" type="line"/>
      <point x="695" y="0" type="line" smooth="yes"/>
      <point x="1103" y="0"/>
      <point x="1381" y="271"/>
    </contour>
    <contour>
      <point x="1189" y="719" type="curve" smooth="yes"/>
      <point x="1189.0" y="370.20784321942466"/>
      <point x="991" y="153.0"/>
      <point x="673" y="153" type="curve" smooth="yes"/>
      <point x="359" y="153" type="line"/>
      <point x="359" y="647" type="line"/>
      <point x="765" y="647" type="line"/>
      <point x="765" y="801" type="line"/>
      <point x="359" y="801" type="line"/>
      <point x="359" y="1256" type="line"/>
      <point x="630" y="1256" type="line" smooth="yes"/>
      <point x="993" y="1256"/>
      <point x="1189" y="1068"/>
    </contour>
  </outline>
</glyph>
<glyph name="multiply" format="2">
  <advance width="1196"/>
  <unicode hex="00D7"/>
  <note>
multiply
</note>
  <outline>
    <contour>
      <point x="600" y="580" type="line"/>
      <point x="953" y="227" type="line"/>
      <point x="1055" y="332" type="line"/>
      <point x="703" y="684" type="line"/>
      <point x="1053" y="1032" type="line"/>
      <point x="948" y="1137" type="line"/>
      <point x="598" y="786" type="line"/>
      <point x="248" y="1139" type="line"/>
      <point x="144" y="1036" type="line"/>
      <point x="496" y="684" type="line"/>
      <point x="142" y="330" type="line"/>
      <point x="244" y="225" type="line"/>
    </contour>
  </outline>
</glyph>
<glyph name="Oslash" format="2">
  <advance width="1593"/>
  <unicode hex="00D8"/>
  <note>
Oslash
</note>
  <outline>
    <contour>
      <point x="1495" y="711" type="curve" smooth="yes"/>
      <point x="1495" y="926"/>
      <point x="1438" y="1097"/>
      <point x="1323" y="1224" type="curve"/>
      <point x="1524" y="1466" type="line"/>
      <point x="1332" y="1466" type="line"/>
      <point x="1211" y="1320" type="line"/>
      <point x="1100" y="1393"/>
      <point x="962" y="1430"/>
      <point x="797" y="1430" type="curve" smooth="yes"/>
      <point x="357" y="1430"/>
      <point x="97" y="1162"/>
      <point x="97" y="711" type="curve" smooth="yes"/>
      <point x="97" y="490"/>
      <point x="155" y="316"/>
      <point x="271" y="188" type="curve"/>
      <point x="71" y="-53" type="line"/>
      <point x="261" y="-53" type="line"/>
      <point x="381" y="92" type="line"/>
      <point x="493" y="17"/>
      <point x="631" y="-20"/>
      <point x="795" y="-20" type="curve" smooth="yes"/>
      <point x="1225" y="-20"/>
      <point x="1495" y="271"/>
    </contour>
    <contour>
      <point x="291" y="711" type="curve" smooth="yes"/>
      <point x="291" y="1067"/>
      <point x="474" y="1274"/>
      <point x="797" y="1274" type="curve" smooth="yes"/>
      <point x="916" y="1274"/>
      <point x="1016" y="1245"/>
      <point x="1099" y="1186" type="curve"/>
      <point x="392" y="333" type="line"/>
      <point x="325" y="432"/>
      <point x="291" y="558"/>
    </contour>
    <contour>
      <point x="1300" y="711" type="curve" smooth="yes"/>
      <point x="1300" y="344"/>
      <point x="1120" y="135"/>
      <point x="795" y="135" type="curve" smooth="yes"/>
      <point x="675" y="135"/>
      <point x="574" y="165"/>
      <point x="493" y="226" type="curve"/>
      <point x="1202" y="1079" type="line"/>
      <point x="1267" y="983"/>
      <point x="1300" y="860"/>
    </contour>
  </outline>
</glyph>
<glyph name="Thorn" format="2">
  <advance width="1366"/>
  <unicode hex="00DE"/>
  <note>
Thorn
</note>
  <outline>
    <contour>
      <point x="1258" y="735" type="curve" smooth="yes"/>
      <point x="1258" y="1002"/>
      <point x="1080" y="1157"/>
      <point x="761" y="1157" type="curve" smooth="yes"/>
      <point x="359" y="1157" type="line"/>
      <point x="359" y="1409" type="line"/>
      <point x="168" y="1409" type="line"/>
      <point x="168" y="0" type="line"/>
      <point x="359" y="0" type="line"/>
      <point x="359" y="297" type="line"/>
      <point x="773" y="297" type="line" smooth="yes"/>
      <point x="1073" y="297"/>
      <point x="1258" y="480"/>
    </contour>
    <contour>
      <point x="1066" y="731" type="curve" smooth="yes"/>
      <point x="1066" y="547"/>
      <point x="950" y="438"/>
      <point x="746" y="438" type="curve" smooth="yes"/>
      <point x="359" y="438" type="line"/>
      <point x="359" y="1014" type="line"/>
      <point x="738" y="1014" type="line" smooth="yes"/>
      <point x="957" y="1014"/>
      <point x="1066" y="910"/>
    </contour>
  </outline>
</glyph>
<glyph name="germandbls" format="2">
  <advance width="1251"/>
  <unicode hex="00DF"/>
  <note>
germandbls
</note>
  <outline>
    <contour>
      <point x="1167" y="295" type="curve" smooth="yes"/>
      <point x="1167" y="419"/>
      <point x="1106" y="522"/>
      <point x="983" y="605" type="curve" smooth="yes"/>
      <point x="887" y="669"/>
      <point x="798" y="720"/>
      <point x="798" y="791" type="curve" smooth="yes"/>
      <point x="798" y="829"/>
      <point x="803" y="843"/>
      <point x="911" y="941" type="curve" smooth="yes"/>
      <point x="986" y="1010"/>
      <point x="1024" y="1092"/>
      <point x="1024" y="1187" type="curve" smooth="yes"/>
      <point x="1024" y="1368"/>
      <point x="862" y="1484"/>
      <point x="609" y="1484" type="curve" smooth="yes"/>
      <point x="300" y="1484"/>
      <point x="142" y="1330"/>
      <point x="142" y="1027" type="curve" smooth="yes"/>
      <point x="142" y="0" type="line"/>
      <point x="322" y="0" type="line"/>
      <point x="322" y="1021" type="line" smooth="yes"/>
      <point x="322" y="1237"/>
      <point x="412" y="1343"/>
      <point x="609" y="1343" type="curve" smooth="yes"/>
      <point x="754" y="1343"/>
      <point x="852" y="1276"/>
      <point x="852" y="1173" type="curve" smooth="yes"/>
      <point x="852" y="1106"/>
      <point x="818" y="1055"/>
      <point x="741" y="991" type="curve" smooth="yes"/>
      <point x="669" y="931"/>
      <point x="630" y="866"/>
      <point x="630" y="785" type="curve" smooth="yes"/>
      <point x="630" y="670"/>
      <point x="690" y="585"/>
      <point x="813" y="513" type="curve" smooth="yes"/>
      <point x="942" y="436"/>
      <point x="995" y="374"/>
      <point x="995" y="289" type="curve" smooth="yes"/>
      <point x="995" y="184"/>
      <point x="928" y="124"/>
      <point x="805" y="124" type="curve" smooth="yes"/>
      <point x="713" y="124"/>
      <point x="593" y="154"/>
      <point x="524" y="193" type="curve"/>
      <point x="526" y="29" type="line"/>
      <point x="601" y="-4"/>
      <point x="695" y="-20"/>
      <point x="809" y="-20" type="curve" smooth="yes"/>
      <point x="1036" y="-20"/>
      <point x="1167" y="95"/>
    </contour>
  </outline>
</glyph>
<glyph name="ae" format="2">
  <advance width="1821"/>
  <unicode hex="00E6"/>
  <note>
ae
</note>
  <outline>
    <contour>
      <point x="1701" y="236" type="curve"/>
      <point x="1543" y="281" type="line"/>
      <point x="1510" y="185"/>
      <point x="1416" y="115"/>
      <point x="1260" y="115" type="curve" smooth="yes"/>
      <point x="1073" y="115"/>
      <point x="968.0" y="244.98132852411618"/>
      <point x="968" y="503" type="curve"/>
      <point x="1730" y="503" type="line"/>
      <point x="1730" y="527" type="line" smooth="yes"/>
      <point x="1730" y="910"/>
      <point x="1571" y="1102"/>
      <point x="1253" y="1102" type="curve" smooth="yes"/>
      <point x="1101" y="1102"/>
      <point x="986" y="1056"/>
      <point x="907" y="963" type="curve"/>
      <point x="841" y="1056"/>
      <point x="725" y="1102"/>
      <point x="558" y="1102" type="curve" smooth="yes"/>
      <point x="293" y="1102"/>
      <point x="145" y="1005"/>
      <point x="114" y="810" type="curve"/>
      <point x="302" y="793" type="line"/>
      <point x="319" y="916"/>
      <point x="386" y="965"/>
      <point x="554" y="965" type="curve" smooth="yes"/>
      <point x="715" y="965"/>
      <point x="786" y="899"/>
      <point x="786" y="719" type="curve" smooth="yes"/>
      <point x="786" y="660" type="line"/>
      <point x="546" y="656" type="line" smooth="yes"/>
      <point x="223" y="651"/>
      <point x="66" y="534"/>
      <point x="66" y="302" type="curve" smooth="yes"/>
      <point x="66" y="102"/>
      <point x="179" y="-20"/>
      <point x="402" y="-20" type="curve" smooth="yes"/>
      <point x="597" y="-20"/>
      <point x="732" y="50"/>
      <point x="837" y="237" type="curve"/>
      <point x="905" y="66"/>
      <point x="1046" y="-20"/>
      <point x="1260" y="-20" type="curve" smooth="yes"/>
      <point x="1489" y="-20"/>
      <point x="1636" y="65"/>
    </contour>
    <contour>
      <point x="1544" y="641" type="curve"/>
      <point x="970" y="641" type="line"/>
      <point x="978" y="850"/>
      <point x="1081" y="969"/>
      <point x="1250" y="969" type="curve" smooth="yes"/>
      <point x="1430" y="969"/>
      <point x="1524" y="869"/>
    </contour>
    <contour>
      <point x="251" y="299" type="curve" smooth="yes"/>
      <point x="251" y="398"/>
      <point x="294" y="465"/>
      <point x="388" y="501" type="curve" smooth="yes"/>
      <point x="435" y="518"/>
      <point x="502" y="528"/>
      <point x="591" y="530" type="curve" smooth="yes"/>
      <point x="786" y="534" type="line"/>
      <point x="786" y="445" type="line" smooth="yes"/>
      <point x="786" y="330"/>
      <point x="725" y="219"/>
      <point x="623" y="160" type="curve" smooth="yes"/>
      <point x="572" y="130"/>
      <point x="512" y="115"/>
      <point x="444" y="115" type="curve" smooth="yes"/>
      <point x="320" y="115"/>
      <point x="251" y="183"/>
    </contour>
  </outline>
</glyph>
<glyph name="eth" format="2">
  <advance width="1139"/>
  <unicode hex="00F0"/>
  <note>
eth
</note>
  <outline>
    <contour>
      <point x="566" y="-20" type="curve" smooth="yes"/>
      <point x="897" y="-20"/>
      <point x="1063" y="162"/>
      <point x="1063" y="516" type="curve" smooth="yes"/>
      <point x="1063" y="825"/>
      <point x="946" y="1102"/>
      <point x="718" y="1310" type="curve"/>
      <point x="929" y="1402" type="line"/>
      <point x="930" y="1514" type="line"/>
      <point x="624" y="1382" type="line"/>
      <point x="564" y="1426"/>
      <point x="507" y="1460"/>
      <point x="454" y="1484" type="curve"/>
      <point x="245" y="1484" type="line"/>
      <point x="334" y="1437"/>
      <point x="414" y="1384"/>
      <point x="487" y="1326" type="curve"/>
      <point x="269" y="1232" type="line"/>
      <point x="269" y="1118" type="line"/>
      <point x="570" y="1251" type="line"/>
      <point x="653" y="1175"/>
      <point x="731" y="1065"/>
      <point x="804" y="920" type="curve"/>
      <point x="741" y="959"/>
      <point x="664" y="979"/>
      <point x="573" y="979" type="curve" smooth="yes"/>
      <point x="254" y="979"/>
      <point x="86" y="806"/>
      <point x="86" y="481" type="curve" smooth="yes"/>
      <point x="86" y="157"/>
      <point x="257" y="-20"/>
    </contour>
    <contour>
      <point x="874" y="481" type="curve" smooth="yes"/>
      <point x="874" y="224"/>
      <point x="779" y="113"/>
      <point x="564" y="113" type="curve" smooth="yes"/>
      <point x="371" y="113"/>
      <point x="275" y="228"/>
      <point x="275" y="481" type="curve" smooth="yes"/>
      <point x="275" y="736"/>
      <point x="368" y="846"/>
      <point x="577" y="846" type="curve" smooth="yes"/>
      <point x="785" y="846"/>
      <point x="874" y="737"/>
    </contour>
  </outline>
</glyph>
<glyph name="divide" format="2">
  <advance width="1124"/>
  <unicode hex="00F7"/>
  <note>
divide
</note>
  <outline>
    <contour>
      <point x="646" y="1141" type="line"/>
      <point x="478" y="1141" type="line"/>
      <point x="478" y="958" type="line"/>
      <point x="646" y="958" type="line"/>
    </contour>
    <contour>
      <point x="1060" y="754" type="line"/>
      <point x="65" y="754" type="line"/>
      <point x="65" y="608" type="line"/>
      <point x="1060" y="608" type="line"/>
    </contour>
    <contour>
      <point x="646" y="406" type="line"/>
      <point x="478" y="406" type="line"/>
      <point x="478" y="223" type="line"/>
      <point x="646" y="223" type="line"/>
    </contour>
  </outline>
</glyph>
<glyph name="oslash" format="2">
  <advance width="1251"/>
  <unicode hex="00F8"/>
  <note>
oslash
</note>
  <outline>
    <contour>
      <point x="1112" y="542" type="curve" smooth="yes"/>
      <point x="1112" y="702"/>
      <point x="1085" y="826"/>
      <point x="1031" y="915" type="curve"/>
      <point x="1204" y="1116" type="line"/>
      <point x="1037" y="1116" type="line"/>
      <point x="946" y="1011" type="line"/>
      <point x="869" y="1072"/>
      <point x="764" y="1102"/>
      <point x="630" y="1102" type="curve" smooth="yes"/>
      <point x="307" y="1102"/>
      <point x="145" y="915"/>
      <point x="145" y="542" type="curve" smooth="yes"/>
      <point x="145" y="390"/>
      <point x="173" y="268"/>
      <point x="228" y="176" type="curve"/>
      <point x="44" y="-38" type="line"/>
      <point x="211" y="-38" type="line"/>
      <point x="311" y="78" type="line"/>
      <point x="390" y="13"/>
      <point x="494" y="-20"/>
      <point x="624" y="-20" type="curve" smooth="yes"/>
      <point x="941" y="-20"/>
      <point x="1112" y="163"/>
    </contour>
    <contour>
      <point x="334" y="542" type="curve" smooth="yes"/>
      <point x="334" y="835"/>
      <point x="422" y="969"/>
      <point x="633" y="969" type="curve" smooth="yes"/>
      <point x="726" y="969"/>
      <point x="795" y="942"/>
      <point x="840" y="888" type="curve"/>
      <point x="358" y="327" type="line"/>
      <point x="342" y="384"/>
      <point x="334" y="455"/>
    </contour>
    <contour>
      <point x="923" y="542" type="curve" smooth="yes"/>
      <point x="923" y="247"/>
      <point x="838" y="113"/>
      <point x="622" y="113" type="curve" smooth="yes"/>
      <point x="531" y="113"/>
      <point x="462" y="142"/>
      <point x="417" y="201" type="curve"/>
      <point x="900" y="763" type="line"/>
      <point x="915" y="702"/>
      <point x="923" y="628"/>
    </contour>
  </outline>
</glyph>
<glyph name="thorn" format="2">
  <advance width="1139"/>
  <unicode hex="00FE"/>
  <note>
thorn
</note>
  <outline>
    <contour>
      <point x="318" y="-2" type="line" smooth="yes"/>
      <point x="318" y="106"/>
      <point x="317" y="163"/>
      <point x="314" y="168" type="curve"/>
      <point x="319" y="168" type="line"/>
      <point x="376" y="43"/>
      <point x="488" y="-20"/>
      <point x="655" y="-20" type="curve" smooth="yes"/>
      <point x="920" y="-20"/>
      <point x="1053" y="169"/>
      <point x="1053" y="546" type="curve" smooth="yes"/>
      <point x="1053" y="929"/>
      <point x="922" y="1101"/>
      <point x="655" y="1101" type="curve" smooth="yes"/>
      <point x="483" y="1101"/>
      <point x="384" y="1041"/>
      <point x="320" y="908" type="curve"/>
      <point x="314" y="908" type="line"/>
      <point x="317" y="967"/>
      <point x="318" y="1018"/>
      <point x="318" y="1061" type="curve" smooth="yes"/>
      <point x="318" y="1484" type="line"/>
      <point x="138" y="1484" type="line"/>
      <point x="138" y="-425" type="line"/>
      <point x="318" y="-425" type="line"/>
    </contour>
    <contour>
      <point x="864" y="542" type="curve" smooth="yes"/>
      <point x="864" y="233"/>
      <point x="786" y="113"/>
      <point x="607" y="113" type="curve" smooth="yes"/>
      <point x="403" y="113"/>
      <point x="318" y="244"/>
      <point x="318" y="528" type="curve" smooth="yes"/>
      <point x="318" y="833"/>
      <point x="407" y="962"/>
      <point x="609" y="962" type="curve" smooth="yes"/>
      <point x="786" y="962"/>
      <point x="864" y="843"/>
    </contour>
  </outline>
</glyph>
<glyph name="dcroat" format="2">
  <advance width="1139"/>
  <unicode hex="0111"/>
  <note>
dcroat
</note>
  <outline>
    <contour>
      <point x="821" y="1337" type="line"/>
      <point x="521" y="1337" type="line"/>
      <point x="521" y="1206" type="line"/>
      <point x="821" y="1206" type="line"/>
      <point x="821" y="1035" type="line"/>
      <point x="823" y="914" type="line"/>
      <point x="821" y="914" type="line"/>
      <point x="754" y="1045"/>
      <point x="648" y="1102"/>
      <point x="484" y="1102" type="curve" smooth="yes"/>
      <point x="219" y="1102"/>
      <point x="86" y="913"/>
      <point x="86" y="536" type="curve" smooth="yes"/>
      <point x="86" y="163"/>
      <point x="211" y="-20"/>
      <point x="484" y="-20" type="curve" smooth="yes"/>
      <point x="647" y="-20"/>
      <point x="754" y="35"/>
      <point x="821" y="174" type="curve"/>
      <point x="825" y="174" type="line"/>
      <point x="825" y="118"/>
      <point x="831" y="21"/>
      <point x="835" y="0" type="curve"/>
      <point x="1007" y="0" type="line"/>
      <point x="1003" y="36"/>
      <point x="1001" y="110"/>
      <point x="1001" y="223" type="curve" smooth="yes"/>
      <point x="1001" y="1206" type="line"/>
      <point x="1133" y="1206" type="line"/>
      <point x="1133" y="1337" type="line"/>
      <point x="1001" y="1337" type="line"/>
      <point x="1001" y="1484" type="line"/>
      <point x="821" y="1484" type="line"/>
    </contour>
    <contour>
      <point x="275" y="542" type="curve" smooth="yes"/>
      <point x="275" y="843"/>
      <point x="351" y="969"/>
      <point x="532" y="969" type="curve" smooth="yes"/>
      <point x="733" y="969"/>
      <point x="821" y="841"/>
      <point x="821" y="554" type="curve" smooth="yes"/>
      <point x="821" y="257"/>
      <point x="734" y="119"/>
      <point x="530" y="119" type="curve" smooth="yes"/>
      <point x="350" y="119"/>
      <point x="275" y="239"/>
    </contour>
  </outline>
</glyph>
<glyph name="Hbar" format="2">
  <advance width="1479"/>
  <unicode hex="0126"/>
  <note>
Hbar
</note>
  <outline>
    <contour>
      <point x="359" y="653" type="line"/>
      <point x="1126" y="653" type="line"/>
      <point x="1126" y="0" type="line"/>
      <point x="1312" y="0" type="line"/>
      <point x="1312" y="1025" type="line"/>
      <point x="1465" y="1025" type="line"/>
      <point x="1465" y="1179" type="line"/>
      <point x="1312" y="1179" type="line"/>
      <point x="1312" y="1409" type="line"/>
      <point x="1126" y="1409" type="line"/>
      <point x="1126" y="1179" type="line"/>
      <point x="359" y="1179" type="line"/>
      <point x="359" y="1409" type="line"/>
      <point x="168" y="1409" type="line"/>
      <point x="168" y="1179" type="line"/>
      <point x="14" y="1179" type="line"/>
      <point x="14" y="1025" type="line"/>
      <point x="168" y="1025" type="line"/>
      <point x="168" y="0" type="line"/>
      <point x="359" y="0" type="line"/>
    </contour>
    <contour>
      <point x="359" y="813" type="line"/>
      <point x="359" y="1025" type="line"/>
      <point x="1126" y="1025" type="line"/>
      <point x="1126" y="813" type="line"/>
    </contour>
  </outline>
</glyph>
<glyph name="hbar" format="2">
  <advance width="1139"/>
  <unicode hex="0127"/>
  <note>
hbar
</note>
  <outline>
    <contour>
      <point x="317" y="857" type="curve"/>
      <point x="314" y="857" type="line"/>
      <point x="315" y="870"/>
      <point x="322" y="977"/>
      <point x="322" y="1058" type="curve" smooth="yes"/>
      <point x="322" y="1206" type="line"/>
      <point x="622" y="1206" type="line"/>
      <point x="622" y="1337" type="line"/>
      <point x="322" y="1337" type="line"/>
      <point x="322" y="1484" type="line"/>
      <point x="142" y="1484" type="line"/>
      <point x="142" y="1337" type="line"/>
      <point x="10" y="1337" type="line"/>
      <point x="10" y="1206" type="line"/>
      <point x="142" y="1206" type="line"/>
      <point x="142" y="0" type="line"/>
      <point x="322" y="0" type="line"/>
      <point x="322" y="598" type="line" smooth="yes"/>
      <point x="322" y="797"/>
      <point x="433" y="923"/>
      <point x="602" y="923" type="curve" smooth="yes"/>
      <point x="772" y="923"/>
      <point x="825" y="839"/>
      <point x="825" y="646" type="curve" smooth="yes"/>
      <point x="825" y="0" type="line"/>
      <point x="1006" y="0" type="line"/>
      <point x="1006" y="681" type="line" smooth="yes"/>
      <point x="1006" y="938"/>
      <point x="898" y="1062"/>
      <point x="663" y="1062" type="curve" smooth="yes"/>
      <point x="496" y="1062"/>
      <point x="394" y="998"/>
    </contour>
  </outline>
</glyph>
<glyph name="dotlessi" format="2">
  <advance width="569"/>
  <unicode hex="0131"/>
  <note>
dotlessi
</note>
  <outline>
    <contour>
      <point x="374" y="1082" type="line"/>
      <point x="194" y="1082" type="line"/>
      <point x="194" y="0" type="line"/>
      <point x="374" y="0" type="line"/>
    </contour>
  </outline>
</glyph>
<glyph name="jcircumflex" format="2">
  <advance width="455"/>
  <unicode hex="0135"/>
  <note>
jcircumflex
</note>
  <outline>
    <contour>
      <point x="233" y="1370" type="line"/>
      <point x="235" y="1370" type="line"/>
      <point x="454" y="1201" type="line"/>
      <point x="559" y="1201" type="line"/>
      <point x="559" y="1221" type="line"/>
      <point x="335" y="1491" type="line"/>
      <point x="131" y="1491" type="line"/>
      <point x="-103" y="1221" type="line"/>
      <point x="-103" y="1201" type="line"/>
      <point x="1" y="1201" type="line"/>
    </contour>
    <contour>
      <point x="77" y="-425" type="curve" smooth="yes"/>
      <point x="237" y="-425"/>
      <point x="317" y="-338"/>
      <point x="317" y="-134" type="curve" smooth="yes"/>
      <point x="317" y="1082" type="line"/>
      <point x="137" y="1082" type="line"/>
      <point x="137" y="-107" type="line" smooth="yes"/>
      <point x="137" y="-246"/>
      <point x="104" y="-283"/>
      <point x="12" y="-283" type="curve"/>
      <point x="-50" y="-277" type="line"/>
      <point x="-50" y="-416" type="line"/>
      <point x="-17" y="-422"/>
      <point x="26" y="-425"/>
    </contour>
  </outline>
</glyph>
<glyph name="kgreenlandic" format="2">
  <advance width="1024"/>
  <unicode hex="0138"/>
  <note>
kgreenlandic
</note>
  <outline>
    <contour>
      <point x="318" y="386" type="line"/>
      <point x="450" y="494" type="line"/>
      <point x="816" y="0" type="line"/>
      <point x="1027" y="0" type="line"/>
      <point x="565" y="617" type="line"/>
      <point x="1004" y="1082" type="line"/>
      <point x="793" y="1082" type="line"/>
      <point x="318" y="557" type="line"/>
      <point x="318" y="1082" type="line"/>
      <point x="138" y="1082" type="line"/>
      <point x="138" y="0" type="line"/>
      <point x="318" y="0" type="line"/>
    </contour>
  </outline>
</glyph>
<glyph name="Lslash" format="2">
  <advance width="1139"/>
  <unicode hex="0141"/>
  <note>
Lslash
</note>
  <outline>
    <contour>
      <point x="168" y="0" type="line"/>
      <point x="1071" y="0" type="line"/>
      <point x="1071" y="156" type="line"/>
      <point x="359" y="156" type="line"/>
      <point x="359" y="648" type="line"/>
      <point x="616" y="797" type="line"/>
      <point x="616" y="954" type="line"/>
      <point x="359" y="806" type="line"/>
      <point x="359" y="1409" type="line"/>
      <point x="168" y="1409" type="line"/>
      <point x="168" y="696" type="line"/>
      <point x="20" y="611" type="line"/>
      <point x="20" y="453" type="line"/>
      <point x="168" y="538" type="line"/>
    </contour>
  </outline>
</glyph>
<glyph name="lslash" format="2">
  <advance width="455"/>
  <unicode hex="0142"/>
  <note>
lslash
</note>
  <outline>
    <contour>
      <point x="138" y="0" type="line"/>
      <point x="318" y="0" type="line"/>
      <point x="318" y="646" type="line"/>
      <point x="442" y="717" type="line"/>
      <point x="442" y="876" type="line"/>
      <point x="318" y="804" type="line"/>
      <point x="318" y="1484" type="line"/>
      <point x="138" y="1484" type="line"/>
      <point x="138" y="700" type="line"/>
      <point x="16" y="632" type="line"/>
      <point x="16" y="474" type="line"/>
      <point x="138" y="542" type="line"/>
    </contour>
  </outline>
</glyph>
<glyph name="Eng" format="2">
  <advance width="1481"/>
  <unicode hex="014A"/>
  <note>
Eng
</note>
  <outline>
    <contour>
      <point x="941" y="-20" type="curve" smooth="yes"/>
      <point x="1227" y="-20"/>
      <point x="1332" y="134"/>
      <point x="1332" y="542" type="curve" smooth="yes"/>
      <point x="1332" y="889" type="line" smooth="yes"/>
      <point x="1332" y="1265"/>
      <point x="1194" y="1429"/>
      <point x="866" y="1429" type="curve" smooth="yes"/>
      <point x="649" y="1429"/>
      <point x="456" y="1330"/>
      <point x="360" y="1158" type="curve"/>
      <point x="356" y="1158" type="line"/>
      <point x="356" y="1223"/>
      <point x="354" y="1306"/>
      <point x="349" y="1409" type="curve"/>
      <point x="165" y="1409" type="line"/>
      <point x="169" y="1092" type="line"/>
      <point x="169" y="0" type="line"/>
      <point x="360" y="0" type="line"/>
      <point x="360" y="891" type="line" smooth="yes"/>
      <point x="360" y="1026"/>
      <point x="446" y="1153"/>
      <point x="585" y="1222" type="curve" smooth="yes"/>
      <point x="654" y="1257"/>
      <point x="729" y="1274"/>
      <point x="808" y="1274" type="curve" smooth="yes"/>
      <point x="1044" y="1274"/>
      <point x="1142" y="1152"/>
      <point x="1142" y="868" type="curve" smooth="yes"/>
      <point x="1142" y="546" type="line" smooth="yes"/>
      <point x="1142" y="431"/>
      <point x="1136" y="347"/>
      <point x="1123" y="293" type="curve" smooth="yes"/>
      <point x="1098" y="185"/>
      <point x="1043" y="133"/>
      <point x="946" y="133" type="curve" smooth="yes"/>
      <point x="875" y="133"/>
      <point x="810" y="170"/>
      <point x="750" y="243" type="curve"/>
      <point x="623" y="128" type="line"/>
      <point x="702" y="29"/>
      <point x="814" y="-20"/>
    </contour>
  </outline>
</glyph>
<glyph name="eng" format="2">
  <advance width="1139"/>
  <unicode hex="014B"/>
  <note>
eng
</note>
  <outline>
    <contour>
      <point x="769" y="-425" type="curve" smooth="yes"/>
      <point x="930" y="-425"/>
      <point x="1010" y="-335"/>
      <point x="1010" y="-134" type="curve" smooth="yes"/>
      <point x="1010" y="721" type="line" smooth="yes"/>
      <point x="1010" y="993"/>
      <point x="904" y="1102"/>
      <point x="667" y="1102" type="curve" smooth="yes"/>
      <point x="506" y="1102"/>
      <point x="404" y="1046"/>
      <point x="321" y="897" type="curve"/>
      <point x="318" y="897" type="line"/>
      <point x="315" y="1025"/>
      <point x="311" y="1075"/>
      <point x="310" y="1082" type="curve"/>
      <point x="140" y="1082" type="line"/>
      <point x="144" y="1054"/>
      <point x="146" y="977"/>
      <point x="146" y="851" type="curve" smooth="yes"/>
      <point x="146" y="0" type="line"/>
      <point x="326" y="0" type="line"/>
      <point x="326" y="627" type="line" smooth="yes"/>
      <point x="326" y="838"/>
      <point x="433" y="963"/>
      <point x="606" y="963" type="curve" smooth="yes"/>
      <point x="783" y="963"/>
      <point x="829" y="880"/>
      <point x="829" y="686" type="curve" smooth="yes"/>
      <point x="829" y="-107" type="line" smooth="yes"/>
      <point x="829" y="-246"/>
      <point x="796" y="-283"/>
      <point x="704" y="-283" type="curve"/>
      <point x="642" y="-277" type="line"/>
      <point x="642" y="-416" type="line"/>
      <point x="675" y="-422"/>
      <point x="718" y="-425"/>
    </contour>
  </outline>
</glyph>
<glyph name="OE" format="2">
  <advance width="2048"/>
  <unicode hex="0152"/>
  <note>
OE
</note>
  <outline>
    <contour>
      <point x="999" y="0" type="curve"/>
      <point x="1958" y="0" type="line"/>
      <point x="1958" y="156" type="line"/>
      <point x="1114" y="156" type="line"/>
      <point x="1114" y="647" type="line"/>
      <point x="1857" y="647" type="line"/>
      <point x="1857" y="801" type="line"/>
      <point x="1114" y="801" type="line"/>
      <point x="1114" y="1253" type="line"/>
      <point x="1917" y="1253" type="line"/>
      <point x="1917" y="1409" type="line"/>
      <point x="1003" y="1409" type="line"/>
      <point x="933" y="1416"/>
      <point x="862" y="1420"/>
      <point x="791" y="1420" type="curve" smooth="yes"/>
      <point x="356" y="1420"/>
      <point x="97" y="1154"/>
      <point x="97" y="711" type="curve" smooth="yes"/>
      <point x="97" y="264"/>
      <point x="358" y="-10"/>
      <point x="789" y="-10" type="curve" smooth="yes"/>
      <point x="884" y="-10"/>
      <point x="954" y="-7"/>
    </contour>
    <contour>
      <point x="923" y="1260" type="curve"/>
      <point x="923" y="149" type="line"/>
      <point x="888" y="146"/>
      <point x="844" y="145"/>
      <point x="789" y="145" type="curve" smooth="yes"/>
      <point x="476" y="145"/>
      <point x="291" y="354"/>
      <point x="291" y="711" type="curve" smooth="yes"/>
      <point x="291" y="1067"/>
      <point x="464" y="1264"/>
      <point x="791" y="1264" type="curve" smooth="yes"/>
      <point x="811" y="1264"/>
      <point x="863" y="1265"/>
    </contour>
  </outline>
</glyph>
<glyph name="oe" format="2">
  <advance width="1933"/>
  <unicode hex="0153"/>
  <note>
oe
</note>
  <outline>
    <contour>
      <point x="1070" y="503" type="curve"/>
      <point x="1842" y="503" type="line"/>
      <point x="1842" y="527" type="line" smooth="yes"/>
      <point x="1842" y="910"/>
      <point x="1683" y="1102"/>
      <point x="1365" y="1102" type="curve" smooth="yes"/>
      <point x="1192" y="1102"/>
      <point x="1063" y="1043"/>
      <point x="979" y="925" type="curve"/>
      <point x="901" y="1043"/>
      <point x="768" y="1102"/>
      <point x="581" y="1102" type="curve" smooth="yes"/>
      <point x="258" y="1102"/>
      <point x="86" y="914"/>
      <point x="86" y="542" type="curve" smooth="yes"/>
      <point x="86" y="178"/>
      <point x="258" y="-20"/>
      <point x="575" y="-20" type="curve" smooth="yes"/>
      <point x="760" y="-20"/>
      <point x="893" y="41"/>
      <point x="976" y="163" type="curve"/>
      <point x="1057" y="41"/>
      <point x="1189" y="-20"/>
      <point x="1372" y="-20" type="curve" smooth="yes"/>
      <point x="1601" y="-20"/>
      <point x="1748" y="65"/>
      <point x="1813" y="236" type="curve"/>
      <point x="1655" y="281" type="line"/>
      <point x="1622" y="185"/>
      <point x="1528" y="115"/>
      <point x="1372" y="115" type="curve" smooth="yes"/>
      <point x="1175" y="115"/>
      <point x="1070" y="255"/>
    </contour>
    <contour>
      <point x="881" y="542" type="curve" smooth="yes"/>
      <point x="881" y="247"/>
      <point x="792" y="113"/>
      <point x="573" y="113" type="curve" smooth="yes"/>
      <point x="374" y="113"/>
      <point x="275" y="256"/>
      <point x="275" y="542" type="curve" smooth="yes"/>
      <point x="275" y="827"/>
      <point x="368" y="969"/>
      <point x="584" y="969" type="curve" smooth="yes"/>
      <point x="796" y="969"/>
      <point x="881" y="834"/>
    </contour>
    <contour>
      <point x="1362" y="969" type="curve" smooth="yes"/>
      <point x="1542" y="969"/>
      <point x="1636" y="869"/>
      <point x="1656" y="641" type="curve"/>
      <point x="1072" y="641" type="line"/>
      <point x="1080" y="845"/>
      <point x="1187" y="969"/>
    </contour>
  </outline>
</glyph>
<glyph name="Tbar" format="2">
  <advance width="1251"/>
  <unicode hex="0166"/>
  <note>
Tbar
</note>
  <outline>
    <contour>
      <point x="720" y="647" type="line"/>
      <point x="1001" y="647" type="line"/>
      <point x="1001" y="801" type="line"/>
      <point x="720" y="801" type="line"/>
      <point x="720" y="1253" type="line"/>
      <point x="1204" y="1253" type="line"/>
      <point x="1204" y="1409" type="line"/>
      <point x="46" y="1409" type="line"/>
      <point x="46" y="1253" type="line"/>
      <point x="530" y="1253" type="line"/>
      <point x="530" y="801" type="line"/>
      <point x="251" y="801" type="line"/>
      <point x="251" y="647" type="line"/>
      <point x="530" y="647" type="line"/>
      <point x="530" y="0" type="line"/>
      <point x="720" y="0" type="line"/>
    </contour>
  </outline>
</glyph>
<glyph name="tbar" format="2">
  <advance width="569"/>
  <unicode hex="0167"/>
  <note>
tbar
</note>
  <outline>
    <contour>
      <point x="372" y="-16" type="curve" smooth="yes"/>
      <point x="434" y="-16"/>
      <point x="495" y="-8"/>
      <point x="554" y="8" type="curve"/>
      <point x="554" y="141" type="line"/>
      <point x="509" y="132"/>
      <point x="474" y="127"/>
      <point x="450" y="127" type="curve" smooth="yes"/>
      <point x="366" y="127"/>
      <point x="336" y="164"/>
      <point x="336" y="268" type="curve" smooth="yes"/>
      <point x="336" y="516" type="line"/>
      <point x="536" y="516" type="line"/>
      <point x="536" y="647" type="line"/>
      <point x="336" y="647" type="line"/>
      <point x="336" y="951" type="line"/>
      <point x="536" y="951" type="line"/>
      <point x="536" y="1082" type="line"/>
      <point x="336" y="1082" type="line"/>
      <point x="336" y="1324" type="line"/>
      <point x="216" y="1324" type="line"/>
      <point x="163" y="1082" type="line"/>
      <point x="31" y="1082" type="line"/>
      <point x="31" y="951" type="line"/>
      <point x="156" y="951" type="line"/>
      <point x="156" y="647" type="line"/>
      <point x="31" y="647" type="line"/>
      <point x="31" y="516" type="line"/>
      <point x="156" y="516" type="line"/>
      <point x="156" y="229" type="line" smooth="yes"/>
      <point x="156" y="66"/>
      <point x="228" y="-16"/>
    </contour>
  </outline>
</glyph>
<glyph name="longs" format="2">
  <advance width="455"/>
  <unicode hex="017F"/>
  <note>
longs
</note>
  <outline>
    <contour>
      <point x="318" y="1179" type="line" smooth="yes"/>
      <point x="318" y="1302"/>
      <point x="357" y="1341"/>
      <point x="449" y="1341" type="curve" smooth="yes"/>
      <point x="472" y="1341"/>
      <point x="499" y="1338"/>
      <point x="529" y="1333" type="curve"/>
      <point x="529" y="1470" type="line"/>
      <point x="494" y="1478"/>
      <point x="452" y="1482"/>
      <point x="402" y="1482" type="curve" smooth="yes"/>
      <point x="223" y="1482"/>
      <point x="138" y="1401"/>
      <point x="138" y="1204" type="curve" smooth="yes"/>
      <point x="138" y="0" type="line"/>
      <point x="318" y="0" type="line"/>
    </contour>
  </outline>
</glyph>
<glyph name="uni0181" format="2">
  <advance width="1553"/>
  <unicode hex="0181"/>
  <note>
uni0181
</note>
  <outline>
    <contour>
      <point x="1436" y="397" type="curve" smooth="yes"/>
      <point x="1436" y="585"/>
      <point x="1310" y="716"/>
      <point x="1086" y="743" type="curve"/>
      <point x="1257" y="782"/>
      <point x="1354" y="900"/>
      <point x="1354" y="1067" type="curve" smooth="yes"/>
      <point x="1354" y="1295"/>
      <point x="1189" y="1409"/>
      <point x="858" y="1409" type="curve" smooth="yes"/>
      <point x="346" y="1409" type="line" smooth="yes"/>
      <point x="141" y="1409"/>
      <point x="20" y="1308"/>
      <point x="20" y="1135" type="curve" smooth="yes"/>
      <point x="20" y="1094"/>
      <point x="26" y="1049"/>
      <point x="37" y="1000" type="curve"/>
      <point x="192" y="1017" type="line"/>
      <point x="180" y="1054"/>
      <point x="174" y="1089"/>
      <point x="174" y="1122" type="curve" smooth="yes"/>
      <point x="174" y="1217"/>
      <point x="214" y="1261"/>
      <point x="317" y="1261" type="curve" smooth="yes"/>
      <point x="346" y="1261" type="line"/>
      <point x="346" y="0" type="line"/>
      <point x="918" y="0" type="line" smooth="yes"/>
      <point x="1243" y="0"/>
      <point x="1436" y="146"/>
    </contour>
    <contour>
      <point x="1162" y="1044" type="curve" smooth="yes"/>
      <point x="1162" y="885"/>
      <point x="1062" y="810"/>
      <point x="858" y="810" type="curve" smooth="yes"/>
      <point x="537" y="810" type="line"/>
      <point x="537" y="1256" type="line"/>
      <point x="858" y="1256" type="line" smooth="yes"/>
      <point x="1055" y="1256"/>
      <point x="1162" y="1196"/>
    </contour>
    <contour>
      <point x="1243" y="412" type="curve" smooth="yes"/>
      <point x="1243" y="240"/>
      <point x="1141" y="153"/>
      <point x="908" y="153" type="curve" smooth="yes"/>
      <point x="537" y="153" type="line"/>
      <point x="537" y="661" type="line"/>
      <point x="893" y="661" type="line" smooth="yes"/>
      <point x="1126" y="661"/>
      <point x="1243" y="578"/>
    </contour>
  </outline>
</glyph>
<glyph name="uni0182" format="2">
  <advance width="1344"/>
  <unicode hex="0182"/>
  <note>
uni0182
</note>
  <outline>
    <contour>
      <point x="1263" y="413" type="curve" smooth="yes"/>
      <point x="1263" y="666"/>
      <point x="1081" y="813"/>
      <point x="766" y="813" type="curve" smooth="yes"/>
      <point x="359" y="813" type="line"/>
      <point x="359" y="1253" type="line"/>
      <point x="1119" y="1253" type="line"/>
      <point x="1119" y="1409" type="line"/>
      <point x="168" y="1409" type="line"/>
      <point x="168" y="0" type="line"/>
      <point x="778" y="0" type="line" smooth="yes"/>
      <point x="1081" y="0"/>
      <point x="1263" y="164"/>
    </contour>
    <contour>
      <point x="1071" y="411" type="curve" smooth="yes"/>
      <point x="1071" y="246"/>
      <point x="970" y="151"/>
      <point x="751" y="151" type="curve" smooth="yes"/>
      <point x="359" y="151" type="line"/>
      <point x="359" y="661" type="line"/>
      <point x="743" y="661" type="line" smooth="yes"/>
      <point x="962" y="661"/>
      <point x="1071" y="572"/>
    </contour>
  </outline>
</glyph>
<glyph name="uni0183" format="2">
  <advance width="1139"/>
  <unicode hex="0183"/>
  <note>
uni0183
</note>
  <outline>
    <contour>
      <point x="1053" y="546" type="curve" smooth="yes"/>
      <point x="1053" y="919"/>
      <point x="928" y="1102"/>
      <point x="655" y="1102" type="curve" smooth="yes"/>
      <point x="492" y="1102"/>
      <point x="385" y="1047"/>
      <point x="318" y="908" type="curve"/>
      <point x="314" y="908" type="line"/>
      <point x="317" y="967"/>
      <point x="318" y="1018"/>
      <point x="318" y="1061" type="curve" smooth="yes"/>
      <point x="318" y="1325" type="line"/>
      <point x="882" y="1325" type="line"/>
      <point x="882" y="1484" type="line"/>
      <point x="138" y="1484" type="line"/>
      <point x="138" y="223" type="line" smooth="yes"/>
      <point x="138" y="110"/>
      <point x="136" y="36"/>
      <point x="132" y="0" type="curve"/>
      <point x="306" y="0" type="line"/>
      <point x="309" y="13"/>
      <point x="316" y="127"/>
      <point x="316" y="168" type="curve"/>
      <point x="318" y="168" type="line"/>
      <point x="386" y="36"/>
      <point x="491" y="-20"/>
      <point x="655" y="-20" type="curve" smooth="yes"/>
      <point x="920" y="-20"/>
      <point x="1053" y="169"/>
    </contour>
    <contour>
      <point x="864" y="540" type="curve" smooth="yes"/>
      <point x="864" y="239"/>
      <point x="788" y="113"/>
      <point x="607" y="113" type="curve" smooth="yes"/>
      <point x="403" y="113"/>
      <point x="318" y="245"/>
      <point x="318" y="529" type="curve" smooth="yes"/>
      <point x="318" y="830"/>
      <point x="406" y="963"/>
      <point x="609" y="963" type="curve" smooth="yes"/>
      <point x="789" y="963"/>
      <point x="864" y="843"/>
    </contour>
  </outline>
</glyph>
<glyph name="uni0184" format="2">
  <advance width="1344"/>
  <unicode hex="0184"/>
  <note>
uni0184
</note>
  <outline>
    <contour>
      <point x="1263" y="418" type="curve" smooth="yes"/>
      <point x="1263" y="671"/>
      <point x="1082" y="823"/>
      <point x="766" y="823" type="curve" smooth="yes"/>
      <point x="359" y="823" type="line"/>
      <point x="359" y="1409" type="line"/>
      <point x="303" y="1409" type="line"/>
      <point x="10" y="1209" type="line"/>
      <point x="10" y="1176" type="line"/>
      <point x="168" y="1011" type="line"/>
      <point x="168" y="0" type="line"/>
      <point x="778" y="0" type="line" smooth="yes"/>
      <point x="977" y="0"/>
      <point x="1127" y="73"/>
      <point x="1205" y="200" type="curve" smooth="yes"/>
      <point x="1244" y="263"/>
      <point x="1263" y="336"/>
    </contour>
    <contour>
      <point x="1071" y="416" type="curve" smooth="yes"/>
      <point x="1071" y="251"/>
      <point x="970" y="151"/>
      <point x="751" y="151" type="curve" smooth="yes"/>
      <point x="359" y="151" type="line"/>
      <point x="359" y="671" type="line"/>
      <point x="743" y="671" type="line" smooth="yes"/>
      <point x="960" y="671"/>
      <point x="1071" y="576"/>
    </contour>
  </outline>
</glyph>
<glyph name="uni0186" format="2">
  <advance width="1479"/>
  <unicode hex="0186"/>
  <note>
uni0186
</note>
  <outline>
    <contour>
      <point x="697" y="136" type="curve" smooth="yes"/>
      <point x="496" y="136"/>
      <point x="345" y="229"/>
      <point x="285" y="389" type="curve"/>
      <point x="104" y="329" type="line"/>
      <point x="199" y="96"/>
      <point x="398" y="-20"/>
      <point x="699" y="-20" type="curve" smooth="yes"/>
      <point x="1127" y="-20"/>
      <point x="1382" y="248"/>
      <point x="1382" y="699" type="curve" smooth="yes"/>
      <point x="1382" y="1151"/>
      <point x="1127" y="1430"/>
      <point x="698" y="1430" type="curve" smooth="yes"/>
      <point x="421" y="1430"/>
      <point x="208" y="1301"/>
      <point x="91" y="1058" type="curve"/>
      <point x="247" y="980" type="line"/>
      <point x="348" y="1175"/>
      <point x="495" y="1273"/>
      <point x="689" y="1273" type="curve" smooth="yes"/>
      <point x="996" y="1273"/>
      <point x="1188" y="1046"/>
      <point x="1188" y="699" type="curve" smooth="yes"/>
      <point x="1188" y="346"/>
      <point x="1008" y="136"/>
    </contour>
  </outline>
</glyph>
<glyph name="uni0187" format="2">
  <advance width="1479"/>
  <unicode hex="0187"/>
  <note>
uni0187
</note>
  <outline>
    <contour>
      <point x="1207" y="1021" type="curve"/>
      <point x="1388" y="1081" type="line"/>
      <point x="1388" y="1314" type="line" smooth="yes"/>
      <point x="1388" y="1417"/>
      <point x="1426" y="1462"/>
      <point x="1521" y="1462" type="curve" smooth="yes"/>
      <point x="1542" y="1462"/>
      <point x="1572" y="1456"/>
      <point x="1609" y="1444" type="curve"/>
      <point x="1609" y="1601" type="line"/>
      <point x="1565" y="1611"/>
      <point x="1525" y="1616"/>
      <point x="1489" y="1616" type="curve" smooth="yes"/>
      <point x="1326" y="1616"/>
      <point x="1230" y="1504"/>
      <point x="1230" y="1320" type="curve" smooth="yes"/>
      <point x="1230" y="1297" type="line"/>
      <point x="1120" y="1386"/>
      <point x="973" y="1430"/>
      <point x="790" y="1430" type="curve" smooth="yes"/>
      <point x="361" y="1430"/>
      <point x="104" y="1160"/>
      <point x="104" y="711" type="curve" smooth="yes"/>
      <point x="104" y="262"/>
      <point x="363" y="-20"/>
      <point x="791" y="-20" type="curve" smooth="yes"/>
      <point x="1068" y="-20"/>
      <point x="1285" y="109"/>
      <point x="1401" y="352" type="curve"/>
      <point x="1245" y="430" type="line"/>
      <point x="1146" y="235"/>
      <point x="997" y="137"/>
      <point x="800" y="137" type="curve" smooth="yes"/>
      <point x="492" y="137"/>
      <point x="298" y="366"/>
      <point x="298" y="711" type="curve" smooth="yes"/>
      <point x="298" y="1060"/>
      <point x="480" y="1274"/>
      <point x="792" y="1274" type="curve" smooth="yes"/>
      <point x="991" y="1274"/>
      <point x="1142" y="1185"/>
    </contour>
  </outline>
</glyph>
<glyph name="uni0188" format="2">
  <advance width="1024"/>
  <unicode hex="0188"/>
  <note>
uni0188
</note>
  <outline>
    <contour>
      <point x="779" y="765" type="curve"/>
      <point x="964" y="779" type="line"/>
      <point x="964" y="989" type="line" smooth="yes"/>
      <point x="964" y="1092"/>
      <point x="997" y="1137"/>
      <point x="1085" y="1137" type="curve" smooth="yes"/>
      <point x="1114" y="1137"/>
      <point x="1140" y="1132"/>
      <point x="1164" y="1121" type="curve"/>
      <point x="1164" y="1271" type="line"/>
      <point x="1129" y="1279"/>
      <point x="1096" y="1283"/>
      <point x="1065" y="1283" type="curve" smooth="yes"/>
      <point x="908" y="1283"/>
      <point x="819" y="1191"/>
      <point x="807" y="1030" type="curve"/>
      <point x="736" y="1078"/>
      <point x="651" y="1102"/>
      <point x="551" y="1102" type="curve" smooth="yes"/>
      <point x="252" y="1102"/>
      <point x="87" y="906"/>
      <point x="87" y="542" type="curve" smooth="yes"/>
      <point x="87" y="175"/>
      <point x="250" y="-20"/>
      <point x="553" y="-20" type="curve" smooth="yes"/>
      <point x="782" y="-20"/>
      <point x="942" y="114"/>
      <point x="970" y="322" type="curve"/>
      <point x="788" y="334" type="line"/>
      <point x="768" y="190"/>
      <point x="676" y="122"/>
      <point x="548" y="122" type="curve" smooth="yes"/>
      <point x="365" y="122"/>
      <point x="275" y="258"/>
      <point x="275" y="546" type="curve" smooth="yes"/>
      <point x="275" y="846"/>
      <point x="355" y="961"/>
      <point x="546" y="961" type="curve" smooth="yes"/>
      <point x="686" y="961"/>
      <point x="760" y="885"/>
    </contour>
  </outline>
</glyph>
<glyph name="uni018A" format="2">
  <advance width="1658"/>
  <unicode hex="018A"/>
  <note>
uni018A
</note>
  <outline>
    <contour>
      <point x="1559" y="719" type="curve" smooth="yes"/>
      <point x="1559" y="1160"/>
      <point x="1289" y="1409"/>
      <point x="812" y="1409" type="curve" smooth="yes"/>
      <point x="346" y="1409" type="line" smooth="yes"/>
      <point x="141" y="1409"/>
      <point x="20" y="1308"/>
      <point x="20" y="1135" type="curve" smooth="yes"/>
      <point x="20" y="1094"/>
      <point x="26" y="1049"/>
      <point x="37" y="1000" type="curve"/>
      <point x="192" y="1017" type="line"/>
      <point x="180" y="1054"/>
      <point x="174" y="1089"/>
      <point x="174" y="1122" type="curve" smooth="yes"/>
      <point x="174" y="1217"/>
      <point x="214" y="1261"/>
      <point x="317" y="1261" type="curve" smooth="yes"/>
      <point x="346" y="1261" type="line"/>
      <point x="346" y="0" type="line"/>
      <point x="873" y="0" type="line" smooth="yes"/>
      <point x="1145" y="0"/>
      <point x="1361" y="120"/>
      <point x="1474" y="338" type="curve" smooth="yes"/>
      <point x="1531" y="447"/>
      <point x="1559" y="574"/>
    </contour>
    <contour>
      <point x="1367" y="719" type="curve" smooth="yes"/>
      <point x="1367" y="370"/>
      <point x="1160" y="153"/>
      <point x="851" y="153" type="curve" smooth="yes"/>
      <point x="537" y="153" type="line"/>
      <point x="537" y="1256" type="line"/>
      <point x="808" y="1256" type="line" smooth="yes"/>
      <point x="1171" y="1256"/>
      <point x="1367" y="1068"/>
    </contour>
  </outline>
</glyph>
<glyph name="uni018B" format="2">
  <advance width="1344"/>
  <unicode hex="018B"/>
  <note>
uni018B
</note>
  <outline>
    <contour>
      <point x="81" y="413" type="curve" smooth="yes"/>
      <point x="81" y="164"/>
      <point x="265" y="0"/>
      <point x="566" y="0" type="curve" smooth="yes"/>
      <point x="1176" y="0" type="line"/>
      <point x="1176" y="1409" type="line"/>
      <point x="225" y="1409" type="line"/>
      <point x="225" y="1253" type="line"/>
      <point x="985" y="1253" type="line"/>
      <point x="985" y="813" type="line"/>
      <point x="578" y="813" type="line" smooth="yes"/>
      <point x="263" y="813"/>
      <point x="81" y="666"/>
    </contour>
    <contour>
      <point x="273" y="411" type="curve" smooth="yes"/>
      <point x="273" y="572"/>
      <point x="382" y="661"/>
      <point x="601" y="661" type="curve" smooth="yes"/>
      <point x="985" y="661" type="line"/>
      <point x="985" y="151" type="line"/>
      <point x="593" y="151" type="line" smooth="yes"/>
      <point x="374" y="151"/>
      <point x="273" y="246"/>
    </contour>
  </outline>
</glyph>
<glyph name="uni018C" format="2">
  <advance width="1139"/>
  <unicode hex="018C"/>
  <note>
uni018C
</note>
  <outline>
    <contour>
      <point x="82" y="546" type="curve" smooth="yes"/>
      <point x="82" y="169"/>
      <point x="215" y="-20"/>
      <point x="480" y="-20" type="curve" smooth="yes"/>
      <point x="644" y="-20"/>
      <point x="749" y="36"/>
      <point x="817" y="168" type="curve"/>
      <point x="819" y="168" type="line"/>
      <point x="819" y="127"/>
      <point x="826" y="12"/>
      <point x="829" y="0" type="curve"/>
      <point x="1003" y="0" type="line"/>
      <point x="999" y="36"/>
      <point x="997" y="110"/>
      <point x="997" y="223" type="curve" smooth="yes"/>
      <point x="997" y="1484" type="line"/>
      <point x="253" y="1484" type="line"/>
      <point x="253" y="1325" type="line"/>
      <point x="817" y="1325" type="line"/>
      <point x="817" y="1061" type="line" smooth="yes"/>
      <point x="817" y="1018"/>
      <point x="818" y="967"/>
      <point x="821" y="908" type="curve"/>
      <point x="817" y="908" type="line"/>
      <point x="750" y="1047"/>
      <point x="643" y="1102"/>
      <point x="480" y="1102" type="curve" smooth="yes"/>
      <point x="207" y="1102"/>
      <point x="82" y="919"/>
    </contour>
    <contour>
      <point x="271" y="540" type="curve" smooth="yes"/>
      <point x="271" y="841"/>
      <point x="346" y="963"/>
      <point x="526" y="963" type="curve" smooth="yes"/>
      <point x="730" y="963"/>
      <point x="817" y="828"/>
      <point x="817" y="529" type="curve" smooth="yes"/>
      <point x="817" y="244"/>
      <point x="729" y="113"/>
      <point x="528" y="113" type="curve" smooth="yes"/>
      <point x="347" y="113"/>
      <point x="271" y="240"/>
    </contour>
  </outline>
</glyph>
<glyph name="uni018D" format="2">
  <advance width="1140"/>
  <unicode hex="018D"/>
  <note>
uni018D
</note>
  <outline>
    <contour>
      <point x="1053" y="557" type="curve" smooth="yes"/>
      <point x="1053" y="934"/>
      <point x="906" y="1102"/>
      <point x="571" y="1102" type="curve" smooth="yes"/>
      <point x="248" y="1102"/>
      <point x="86" y="929"/>
      <point x="86" y="557" type="curve" smooth="yes"/>
      <point x="86" y="333"/>
      <point x="140" y="187"/>
      <point x="281" y="71" type="curve" smooth="yes"/>
      <point x="708" y="-280" type="line"/>
      <point x="189" y="-280" type="line"/>
      <point x="189" y="-425" type="line"/>
      <point x="965" y="-425" type="line"/>
      <point x="965" y="-293" type="line"/>
      <point x="609" y="5" type="line"/>
      <point x="905" y="22"/>
      <point x="1053" y="206"/>
    </contour>
    <contour>
      <point x="864" y="557" type="curve" smooth="yes"/>
      <point x="864" y="280"/>
      <point x="786" y="137"/>
      <point x="563" y="137" type="curve" smooth="yes"/>
      <point x="362" y="137"/>
      <point x="275" y="274"/>
      <point x="275" y="557" type="curve" smooth="yes"/>
      <point x="275" y="845"/>
      <point x="359" y="969"/>
      <point x="574" y="969" type="curve" smooth="yes"/>
      <point x="787" y="969"/>
      <point x="864" y="850"/>
    </contour>
  </outline>
</glyph>
<glyph name="uni018E" format="2">
  <advance width="1366"/>
  <unicode hex="018E"/>
  <note>
uni018E
</note>
  <outline>
    <contour>
      <point x="1199" y="1409" type="line"/>
      <point x="130" y="1409" type="line"/>
      <point x="130" y="1253" type="line"/>
      <point x="1008" y="1253" type="line"/>
      <point x="1008" y="801" type="line"/>
      <point x="190" y="801" type="line"/>
      <point x="190" y="647" type="line"/>
      <point x="1008" y="647" type="line"/>
      <point x="1008" y="156" type="line"/>
      <point x="89" y="156" type="line"/>
      <point x="89" y="0" type="line"/>
      <point x="1199" y="0" type="line"/>
    </contour>
  </outline>
</glyph>
<glyph name="uni018F" format="2">
  <advance width="1541"/>
  <unicode hex="018F"/>
  <unicode hex="04D8"/>
  <note>
uni018F
</note>
  <outline>
    <contour>
      <point x="1254" y="810" type="curve"/>
      <point x="99" y="810" type="line"/>
      <point x="96" y="769"/>
      <point x="94" y="736"/>
      <point x="94" y="711" type="curve" smooth="yes"/>
      <point x="94" y="418"/>
      <point x="205" y="188"/>
      <point x="410" y="69" type="curve" smooth="yes"/>
      <point x="512" y="10"/>
      <point x="633" y="-20"/>
      <point x="772" y="-20" type="curve" smooth="yes"/>
      <point x="1045" y="-20"/>
      <point x="1256" y="104"/>
      <point x="1365" y="326" type="curve" smooth="yes"/>
      <point x="1420" y="437"/>
      <point x="1447" y="565"/>
      <point x="1447" y="711" type="curve" smooth="yes"/>
      <point x="1447" y="1002"/>
      <point x="1337" y="1227"/>
      <point x="1134" y="1343" type="curve" smooth="yes"/>
      <point x="1033" y="1401"/>
      <point x="913" y="1430"/>
      <point x="774" y="1430" type="curve" smooth="yes"/>
      <point x="478" y="1430"/>
      <point x="271" y="1301"/>
      <point x="167" y="1077" type="curve"/>
      <point x="349" y="1020" type="line"/>
      <point x="425" y="1181"/>
      <point x="567" y="1274"/>
      <point x="774" y="1274" type="curve" smooth="yes"/>
      <point x="1039" y="1274"/>
      <point x="1221" y="1101"/>
    </contour>
    <contour>
      <point x="772" y="126" type="curve"/>
      <point x="480" y="126"/>
      <point x="299" y="323"/>
      <point x="276" y="652" type="curve"/>
      <point x="1261" y="652" type="line"/>
      <point x="1246" y="317"/>
      <point x="1075" y="126"/>
    </contour>
  </outline>
</glyph>
<glyph name="uni0190" format="2">
  <advance width="1237"/>
  <unicode hex="0190"/>
  <note>
uni0190
</note>
  <outline>
    <contour>
      <point x="608" y="-20" type="curve" smooth="yes"/>
      <point x="879" y="-20"/>
      <point x="1049" y="80"/>
      <point x="1162" y="328" type="curve"/>
      <point x="997" y="405" type="line"/>
      <point x="918" y="224"/>
      <point x="790" y="133"/>
      <point x="615" y="133" type="curve" smooth="yes"/>
      <point x="408" y="133"/>
      <point x="281" y="232"/>
      <point x="281" y="403" type="curve" smooth="yes"/>
      <point x="281" y="580"/>
      <point x="406" y="654"/>
      <point x="675" y="654" type="curve" smooth="yes"/>
      <point x="746" y="654" type="line"/>
      <point x="746" y="802" type="line"/>
      <point x="675" y="802" type="line" smooth="yes"/>
      <point x="439" y="802"/>
      <point x="321" y="887"/>
      <point x="321" y="1057" type="curve" smooth="yes"/>
      <point x="321" y="1192"/>
      <point x="433" y="1274"/>
      <point x="606" y="1274" type="curve" smooth="yes"/>
      <point x="774" y="1274"/>
      <point x="888" y="1199"/>
      <point x="955" y="1027" type="curve"/>
      <point x="1133" y="1088" type="line"/>
      <point x="1040" y="1319"/>
      <point x="864" y="1429"/>
      <point x="599" y="1429" type="curve" smooth="yes"/>
      <point x="319" y="1429"/>
      <point x="130" y="1278"/>
      <point x="130" y="1051" type="curve" smooth="yes"/>
      <point x="130" y="878"/>
      <point x="223" y="773"/>
      <point x="410" y="736" type="curve"/>
      <point x="199" y="704"/>
      <point x="88" y="580"/>
      <point x="88" y="391" type="curve" smooth="yes"/>
      <point x="88" y="153"/>
      <point x="303" y="-20"/>
    </contour>
  </outline>
</glyph>
<glyph name="uni0191" format="2">
  <advance width="1251"/>
  <unicode hex="0191"/>
  <note>
uni0191
</note>
  <outline>
    <contour>
      <point x="359" y="-130" type="curve" smooth="yes"/>
      <point x="359" y="571" type="line"/>
      <point x="1145" y="571" type="line"/>
      <point x="1145" y="729" type="line"/>
      <point x="359" y="729" type="line"/>
      <point x="359" y="1253" type="line"/>
      <point x="1169" y="1253" type="line"/>
      <point x="1169" y="1409" type="line"/>
      <point x="168" y="1409" type="line"/>
      <point x="168" y="-109" type="line" smooth="yes"/>
      <point x="168" y="-214"/>
      <point x="133" y="-266"/>
      <point x="64" y="-266" type="curve" smooth="yes"/>
      <point x="40" y="-266"/>
      <point x="11" y="-260"/>
      <point x="-23" y="-249" type="curve"/>
      <point x="-58" y="-405" type="line"/>
      <point x="-3" y="-418"/>
      <point x="44" y="-425"/>
      <point x="85" y="-425" type="curve" smooth="yes"/>
      <point x="260" y="-425"/>
      <point x="359" y="-321"/>
    </contour>
  </outline>
</glyph>
<glyph name="florin" format="2">
  <advance width="1139"/>
  <unicode hex="0192"/>
  <note>
florin
</note>
  <outline>
    <contour>
      <point x="854" y="1312" type="curve"/>
      <point x="854" y="1434" type="line"/>
      <point x="807" y="1447"/>
      <point x="749" y="1454"/>
      <point x="701" y="1454" type="curve" smooth="yes"/>
      <point x="524" y="1454"/>
      <point x="438" y="1367"/>
      <point x="438" y="1154" type="curve" smooth="yes"/>
      <point x="438" y="1022" type="line"/>
      <point x="285" y="1022" type="line"/>
      <point x="285" y="891" type="line"/>
      <point x="437" y="891" type="line"/>
      <point x="437" y="-456" type="line"/>
      <point x="617" y="-456" type="line"/>
      <point x="617" y="891" type="line"/>
      <point x="830" y="891" type="line"/>
      <point x="830" y="1022" type="line"/>
      <point x="619" y="1022" type="line"/>
      <point x="619" y="1159" type="line" smooth="yes"/>
      <point x="619" y="1280"/>
      <point x="658" y="1327"/>
      <point x="742" y="1327" type="curve" smooth="yes"/>
      <point x="786" y="1327"/>
      <point x="831" y="1319"/>
    </contour>
  </outline>
</glyph>
<glyph name="uni0193" format="2">
  <advance width="1593"/>
  <unicode hex="0193"/>
  <note>
uni0193
</note>
  <outline>
    <contour>
      <point x="1227" y="1044" type="curve"/>
      <point x="1409" y="1098" type="line"/>
      <point x="1409" y="1331" type="line" smooth="yes"/>
      <point x="1409" y="1434"/>
      <point x="1447" y="1479"/>
      <point x="1542" y="1479" type="curve" smooth="yes"/>
      <point x="1563" y="1479"/>
      <point x="1593" y="1473"/>
      <point x="1630" y="1461" type="curve"/>
      <point x="1630" y="1618" type="line"/>
      <point x="1586" y="1628"/>
      <point x="1546" y="1633"/>
      <point x="1510" y="1633" type="curve" smooth="yes"/>
      <point x="1347" y="1633"/>
      <point x="1251" y="1521"/>
      <point x="1251" y="1337" type="curve" smooth="yes"/>
      <point x="1251" y="1307" type="line"/>
      <point x="1146" y="1389"/>
      <point x="997" y="1430"/>
      <point x="804" y="1430" type="curve" smooth="yes"/>
      <point x="360" y="1430"/>
      <point x="103" y="1168"/>
      <point x="103" y="711" type="curve" smooth="yes"/>
      <point x="103" y="262"/>
      <point x="373" y="-20"/>
      <point x="813" y="-20" type="curve" smooth="yes"/>
      <point x="1066" y="-20"/>
      <point x="1291" y="67"/>
      <point x="1440" y="219" type="curve"/>
      <point x="1440" y="705" type="line"/>
      <point x="843" y="705" type="line"/>
      <point x="843" y="545" type="line"/>
      <point x="1264" y="545" type="line"/>
      <point x="1264" y="291" type="line"/>
      <point x="1165" y="195"/>
      <point x="997" y="135"/>
      <point x="813" y="135" type="curve" smooth="yes"/>
      <point x="490" y="135"/>
      <point x="297" y="355"/>
      <point x="297" y="711" type="curve" smooth="yes"/>
      <point x="297" y="1068"/>
      <point x="474" y="1274"/>
      <point x="799" y="1274" type="curve" smooth="yes"/>
      <point x="1008" y="1274"/>
      <point x="1147" y="1204"/>
    </contour>
  </outline>
</glyph>
<glyph name="uni0194" format="2">
  <advance width="1278"/>
  <unicode hex="0194"/>
  <note>
uni0194
</note>
  <outline>
    <contour>
      <point x="10" y="1409" type="line"/>
      <point x="540" y="247" type="line"/>
      <point x="487" y="146"/>
      <point x="450" y="65"/>
      <point x="429" y="7" type="curve" smooth="yes"/>
      <point x="406" y="-56"/>
      <point x="393" y="-112"/>
      <point x="393" y="-160" type="curve" smooth="yes"/>
      <point x="393" y="-323"/>
      <point x="488" y="-425"/>
      <point x="641" y="-425" type="curve" smooth="yes"/>
      <point x="796" y="-425"/>
      <point x="890" y="-321"/>
      <point x="890" y="-160" type="curve" smooth="yes"/>
      <point x="890" y="-117"/>
      <point x="880" y="-65"/>
      <point x="859" y="-5" type="curve" smooth="yes"/>
      <point x="838" y="55"/>
      <point x="797" y="139"/>
      <point x="738" y="247" type="curve"/>
      <point x="1268" y="1409" type="line"/>
      <point x="1067" y="1409" type="line"/>
      <point x="640" y="408" type="line"/>
      <point x="211" y="1409" type="line"/>
    </contour>
    <contour>
      <point x="727" y="-163" type="curve" smooth="yes"/>
      <point x="727" y="-235"/>
      <point x="694" y="-275"/>
      <point x="641" y="-275" type="curve" smooth="yes"/>
      <point x="588" y="-275"/>
      <point x="555" y="-234"/>
      <point x="555" y="-163" type="curve" smooth="yes"/>
      <point x="555" y="-86"/>
      <point x="596" y="35"/>
      <point x="641" y="130" type="curve"/>
      <point x="686" y="35"/>
      <point x="727" y="-87"/>
    </contour>
  </outline>
</glyph>
<glyph name="uni0195" format="2">
  <advance width="1804"/>
  <unicode hex="0195"/>
  <note>
uni0195
</note>
  <outline>
    <contour>
      <point x="1256" y="-20" type="curve" smooth="yes"/>
      <point x="1521" y="-20"/>
      <point x="1668" y="125"/>
      <point x="1668" y="365" type="curve" smooth="yes"/>
      <point x="1668" y="1082" type="line"/>
      <point x="1487" y="1082" type="line"/>
      <point x="1487" y="394" type="line" smooth="yes"/>
      <point x="1487" y="186"/>
      <point x="1420" y="117"/>
      <point x="1257" y="117" type="curve" smooth="yes"/>
      <point x="1096" y="117"/>
      <point x="1026" y="186"/>
      <point x="1026" y="394" type="curve" smooth="yes"/>
      <point x="1026" y="721" type="line" smooth="yes"/>
      <point x="1026" y="981"/>
      <point x="907" y="1102"/>
      <point x="663" y="1102" type="curve" smooth="yes"/>
      <point x="498" y="1102"/>
      <point x="383" y="1034"/>
      <point x="317" y="897" type="curve"/>
      <point x="314" y="897" type="line"/>
      <point x="315" y="910"/>
      <point x="322" y="1017"/>
      <point x="322" y="1098" type="curve" smooth="yes"/>
      <point x="322" y="1484" type="line"/>
      <point x="142" y="1484" type="line"/>
      <point x="142" y="0" type="line"/>
      <point x="322" y="0" type="line"/>
      <point x="322" y="638" type="line" smooth="yes"/>
      <point x="322" y="837"/>
      <point x="433" y="963"/>
      <point x="602" y="963" type="curve" smooth="yes"/>
      <point x="773" y="963"/>
      <point x="845" y="890"/>
      <point x="845" y="686" type="curve" smooth="yes"/>
      <point x="845" y="361" type="line" smooth="yes"/>
      <point x="845" y="121"/>
      <point x="991" y="-20"/>
    </contour>
  </outline>
</glyph>
<glyph name="uni0196" format="2">
  <advance width="455"/>
  <unicode hex="0196"/>
  <note>
uni0196
</note>
  <outline>
    <contour>
      <point x="199" y="0" type="curve"/>
      <point x="397" y="0" type="line"/>
      <point x="349" y="51"/>
      <point x="317" y="140"/>
      <point x="317" y="227" type="curve" smooth="yes"/>
      <point x="317" y="1484" type="line"/>
      <point x="137" y="1484" type="line"/>
      <point x="137" y="236" type="line" smooth="yes"/>
      <point x="137" y="141"/>
      <point x="160" y="41"/>
    </contour>
  </outline>
</glyph>
<glyph name="uni0197" format="2">
  <advance width="569"/>
  <unicode hex="0197"/>
  <note>
uni0197
</note>
  <outline>
    <contour>
      <point x="196" y="0" type="line"/>
      <point x="376" y="0" type="line"/>
      <point x="376" y="672" type="line"/>
      <point x="545" y="672" type="line"/>
      <point x="545" y="813" type="line"/>
      <point x="376" y="813" type="line"/>
      <point x="376" y="1484" type="line"/>
      <point x="196" y="1484" type="line"/>
      <point x="196" y="813" type="line"/>
      <point x="30" y="813" type="line"/>
      <point x="30" y="672" type="line"/>
      <point x="196" y="672" type="line"/>
    </contour>
  </outline>
</glyph>
<glyph name="uni0198" format="2">
  <advance width="1366"/>
  <unicode hex="0198"/>
  <note>
uni0198
</note>
  <outline>
    <contour>
      <point x="359" y="540" type="line"/>
      <point x="543" y="680" type="line"/>
      <point x="1106" y="0" type="line"/>
      <point x="1343" y="0" type="line"/>
      <point x="663" y="797" type="line"/>
      <point x="976" y="1116" type="line" smooth="yes"/>
      <point x="1068" y="1210"/>
      <point x="1118" y="1263"/>
      <point x="1200" y="1263" type="curve" smooth="yes"/>
      <point x="1229" y="1263"/>
      <point x="1271" y="1257"/>
      <point x="1304" y="1245" type="curve"/>
      <point x="1304" y="1410" type="line"/>
      <point x="1257" y="1421"/>
      <point x="1222" y="1425"/>
      <point x="1183" y="1425" type="curve" smooth="yes"/>
      <point x="1051" y="1425"/>
      <point x="951" y="1318"/>
      <point x="861" y="1224" type="curve" smooth="yes"/>
      <point x="359" y="703" type="line"/>
      <point x="359" y="1409" type="line"/>
      <point x="168" y="1409" type="line"/>
      <point x="168" y="0" type="line"/>
      <point x="359" y="0" type="line"/>
    </contour>
  </outline>
</glyph>
<glyph name="uni0199" format="2">
  <advance width="1024"/>
  <unicode hex="0199"/>
  <note>
uni0199
</note>
  <outline>
    <contour>
      <point x="816" y="0" type="line"/>
      <point x="1027" y="0" type="line"/>
      <point x="565" y="617" type="line"/>
      <point x="1004" y="1082" type="line"/>
      <point x="793" y="1082" type="line"/>
      <point x="318" y="557" type="line"/>
      <point x="318" y="1188" type="line" smooth="yes"/>
      <point x="318" y="1287"/>
      <point x="361" y="1336"/>
      <point x="446" y="1336" type="curve" smooth="yes"/>
      <point x="490" y="1336"/>
      <point x="529" y="1330"/>
      <point x="562" y="1318" type="curve"/>
      <point x="562" y="1483" type="line"/>
      <point x="518" y="1493"/>
      <point x="474" y="1498"/>
      <point x="430" y="1498" type="curve" smooth="yes"/>
      <point x="243" y="1498"/>
      <point x="138" y="1393"/>
      <point x="138" y="1202" type="curve" smooth="yes"/>
      <point x="138" y="0" type="line"/>
      <point x="318" y="0" type="line"/>
      <point x="318" y="385" type="line"/>
      <point x="450" y="494" type="line"/>
    </contour>
  </outline>
</glyph>
<glyph name="uni019A" format="2">
  <advance width="455"/>
  <unicode hex="019A"/>
  <note>
uni019A
</note>
  <outline>
    <contour>
      <point x="132" y="0" type="line"/>
      <point x="312" y="0" type="line"/>
      <point x="312" y="672" type="line"/>
      <point x="421" y="672" type="line"/>
      <point x="421" y="813" type="line"/>
      <point x="312" y="813" type="line"/>
      <point x="312" y="1484" type="line"/>
      <point x="132" y="1484" type="line"/>
      <point x="132" y="813" type="line"/>
      <point x="20" y="813" type="line"/>
      <point x="20" y="672" type="line"/>
      <point x="132" y="672" type="line"/>
    </contour>
  </outline>
</glyph>
<glyph name="uni019B" format="2">
  <advance width="1024"/>
  <unicode hex="019B"/>
  <note>
uni019B
</note>
  <outline>
    <contour>
      <point x="165" y="1210" type="line"/>
      <point x="211" y="1092" type="line"/>
      <point x="395" y="1159" type="line"/>
      <point x="463" y="970" type="line"/>
      <point x="14" y="0" type="line"/>
      <point x="201" y="0" type="line"/>
      <point x="540" y="785" type="line"/>
      <point x="816" y="0" type="line"/>
      <point x="1006" y="0" type="line"/>
      <point x="555" y="1217" type="line"/>
      <point x="714" y="1275" type="line"/>
      <point x="668" y="1394" type="line"/>
      <point x="511" y="1337" type="line"/>
      <point x="457" y="1484" type="line"/>
      <point x="280" y="1484" type="line"/>
      <point x="353" y="1279" type="line"/>
    </contour>
  </outline>
</glyph>
<glyph name="uni019C" format="2">
  <advance width="1824"/>
  <unicode hex="019C"/>
  <note>
uni019C
</note>
  <outline>
    <contour>
      <point x="1000" y="1409" type="line"/>
      <point x="812" y="1409" type="line"/>
      <point x="812" y="440" type="line" smooth="yes"/>
      <point x="812" y="239"/>
      <point x="740" y="135"/>
      <point x="581" y="135" type="curve" smooth="yes"/>
      <point x="406" y="135"/>
      <point x="346" y="245"/>
      <point x="346" y="488" type="curve" smooth="yes"/>
      <point x="346" y="1409" type="line"/>
      <point x="158" y="1409" type="line"/>
      <point x="158" y="472" type="line" smooth="yes"/>
      <point x="158" y="144"/>
      <point x="296" y="-20"/>
      <point x="571" y="-20" type="curve" smooth="yes"/>
      <point x="707" y="-20"/>
      <point x="815" y="36"/>
      <point x="895" y="147" type="curve"/>
      <point x="956" y="36"/>
      <point x="1056" y="-20"/>
      <point x="1195" y="-20" type="curve" smooth="yes"/>
      <point x="1319" y="-20"/>
      <point x="1414" y="32"/>
      <point x="1466" y="126" type="curve"/>
      <point x="1467" y="126" type="line"/>
      <point x="1471" y="0" type="line"/>
      <point x="1655" y="0" type="line"/>
      <point x="1655" y="1409" type="line"/>
      <point x="1467" y="1409" type="line"/>
      <point x="1467" y="458" type="line" smooth="yes"/>
      <point x="1467" y="243"/>
      <point x="1384" y="135"/>
      <point x="1219" y="135" type="curve" smooth="yes"/>
      <point x="1060" y="135"/>
      <point x="1000" y="239"/>
      <point x="1000" y="456" type="curve" smooth="yes"/>
    </contour>
  </outline>
</glyph>
<glyph name="uni019D" format="2">
  <advance width="1479"/>
  <unicode hex="019D"/>
  <note>
uni019D
</note>
  <outline>
    <contour>
      <point x="338" y="-130" type="curve" smooth="yes"/>
      <point x="338" y="936" type="line" smooth="yes"/>
      <point x="338" y="1024"/>
      <point x="331" y="1112"/>
      <point x="328" y="1200" type="curve"/>
      <point x="1082" y="0" type="line"/>
      <point x="1312" y="0" type="line"/>
      <point x="1312" y="1409" type="line"/>
      <point x="1140" y="1409" type="line"/>
      <point x="1140" y="485" type="line" smooth="yes"/>
      <point x="1140" y="426"/>
      <point x="1144" y="332"/>
      <point x="1152" y="201" type="curve"/>
      <point x="390" y="1409" type="line"/>
      <point x="168" y="1409" type="line"/>
      <point x="167" y="-109" type="line" smooth="yes"/>
      <point x="167" y="-214"/>
      <point x="129" y="-266"/>
      <point x="52" y="-266" type="curve" smooth="yes"/>
      <point x="15" y="-266"/>
      <point x="-19" y="-261"/>
      <point x="-48" y="-252" type="curve"/>
      <point x="-48" y="-414" type="line"/>
      <point x="-15" y="-421"/>
      <point x="25" y="-425"/>
      <point x="73" y="-425" type="curve" smooth="yes"/>
      <point x="246" y="-425"/>
      <point x="338" y="-322"/>
    </contour>
  </outline>
</glyph>
<glyph name="uni019E" format="2">
  <advance width="1139"/>
  <unicode hex="019E"/>
  <note>
uni019E
</note>
  <outline>
    <contour>
      <point x="1006" y="721" type="line" smooth="yes"/>
      <point x="1006" y="993"/>
      <point x="900" y="1102"/>
      <point x="663" y="1102" type="curve" smooth="yes"/>
      <point x="502" y="1102"/>
      <point x="400" y="1046"/>
      <point x="317" y="897" type="curve"/>
      <point x="314" y="897" type="line"/>
      <point x="311" y="1025"/>
      <point x="307" y="1075"/>
      <point x="306" y="1082" type="curve"/>
      <point x="136" y="1082" type="line"/>
      <point x="140" y="1054"/>
      <point x="142" y="977"/>
      <point x="142" y="851" type="curve" smooth="yes"/>
      <point x="142" y="0" type="line"/>
      <point x="322" y="0" type="line"/>
      <point x="322" y="627" type="line" smooth="yes"/>
      <point x="322" y="838"/>
      <point x="429" y="963"/>
      <point x="602" y="963" type="curve" smooth="yes"/>
      <point x="779" y="963"/>
      <point x="825" y="885"/>
      <point x="825" y="686" type="curve" smooth="yes"/>
      <point x="825" y="-426" type="line"/>
      <point x="1006" y="-426" type="line"/>
    </contour>
  </outline>
</glyph>
<glyph name="Ohorn" format="2">
  <advance width="1756"/>
  <unicode hex="01A0"/>
  <note>
Ohorn
</note>
  <outline>
    <contour>
      <point x="1495" y="711" type="curve" smooth="yes"/>
      <point x="1495" y="790"/>
      <point x="1486" y="865"/>
      <point x="1469" y="936" type="curve"/>
      <point x="1636" y="1017"/>
      <point x="1709" y="1139"/>
      <point x="1709" y="1303" type="curve" smooth="yes"/>
      <point x="1709" y="1409" type="line"/>
      <point x="1514" y="1409" type="line"/>
      <point x="1514" y="1242" type="line"/>
      <point x="1602" y="1242" type="line"/>
      <point x="1602" y="1145"/>
      <point x="1562" y="1078"/>
      <point x="1445" y="1019" type="curve"/>
      <point x="1349" y="1280"/>
      <point x="1122" y="1430"/>
      <point x="797" y="1430" type="curve" smooth="yes"/>
      <point x="357" y="1430"/>
      <point x="97" y="1162"/>
      <point x="97" y="711" type="curve" smooth="yes"/>
      <point x="97" y="267"/>
      <point x="362" y="-20"/>
      <point x="795" y="-20" type="curve" smooth="yes"/>
      <point x="1082" y="-20"/>
      <point x="1298" y="103"/>
      <point x="1411" y="324" type="curve" smooth="yes"/>
      <point x="1467" y="435"/>
      <point x="1495" y="564"/>
    </contour>
    <contour>
      <point x="1300" y="711" type="curve" smooth="yes"/>
      <point x="1300" y="344"/>
      <point x="1120" y="135"/>
      <point x="795" y="135" type="curve" smooth="yes"/>
      <point x="479" y="135"/>
      <point x="291" y="358"/>
      <point x="291" y="711" type="curve" smooth="yes"/>
      <point x="291" y="1067"/>
      <point x="474" y="1274"/>
      <point x="797" y="1274" type="curve" smooth="yes"/>
      <point x="1117" y="1274"/>
      <point x="1300" y="1062"/>
    </contour>
  </outline>
</glyph>
